%TF.GenerationSoftware,KiCad,Pcbnew,8.0.1*%
%TF.CreationDate,2024-07-15T00:54:38+06:00*%
%TF.ProjectId,saucey,73617563-6579-42e6-9b69-6361645f7063,1.0*%
%TF.SameCoordinates,Original*%
%TF.FileFunction,Drillmap*%
%TF.FilePolarity,Positive*%
%FSLAX45Y45*%
G04 Gerber Fmt 4.5, Leading zero omitted, Abs format (unit mm)*
G04 Created by KiCad (PCBNEW 8.0.1) date 2024-07-15 00:54:38*
%MOMM*%
%LPD*%
G01*
G04 APERTURE LIST*
%ADD10C,0.050000*%
%ADD11C,0.200000*%
%ADD12C,0.100000*%
%ADD13C,0.220000*%
G04 APERTURE END LIST*
D10*
X10250000Y-8625000D02*
X10250000Y-5650000D01*
X18300000Y-8625000D02*
X17750000Y-9175000D01*
X15200000Y-5100000D02*
X17750000Y-5100000D01*
X18300000Y-5650000D02*
X18300000Y-8625000D01*
X10800000Y-5100000D02*
X10250000Y-5650000D01*
X17750000Y-5100000D02*
X18300000Y-5650000D01*
X13350000Y-5100000D02*
X15200000Y-5100000D01*
X10800000Y-5100000D02*
X13350000Y-5100000D01*
X17750000Y-9175000D02*
X10800000Y-9175000D01*
X10250000Y-8625000D02*
X10800000Y-9175000D01*
D11*
D12*
X17607000Y-6753500D02*
X17672000Y-6818500D01*
X17672000Y-6753500D02*
X17607000Y-6818500D01*
X17607000Y-7331500D02*
X17672000Y-7396500D01*
X17672000Y-7331500D02*
X17607000Y-7396500D01*
D13*
X11735000Y-5400000D02*
G75*
G02*
X11515000Y-5400000I-110000J0D01*
G01*
X11515000Y-5400000D02*
G75*
G02*
X11735000Y-5400000I110000J0D01*
G01*
X11760000Y-8850000D02*
G75*
G02*
X11540000Y-8850000I-110000J0D01*
G01*
X11540000Y-8850000D02*
G75*
G02*
X11760000Y-8850000I110000J0D01*
G01*
X16985000Y-5400000D02*
G75*
G02*
X16765000Y-5400000I-110000J0D01*
G01*
X16765000Y-5400000D02*
G75*
G02*
X16985000Y-5400000I110000J0D01*
G01*
X17010000Y-8850000D02*
G75*
G02*
X16790000Y-8850000I-110000J0D01*
G01*
X16790000Y-8850000D02*
G75*
G02*
X17010000Y-8850000I110000J0D01*
G01*
D11*
X10508277Y-9488984D02*
X10508277Y-9288984D01*
X10508277Y-9288984D02*
X10555896Y-9288984D01*
X10555896Y-9288984D02*
X10584467Y-9298508D01*
X10584467Y-9298508D02*
X10603515Y-9317555D01*
X10603515Y-9317555D02*
X10613039Y-9336603D01*
X10613039Y-9336603D02*
X10622563Y-9374698D01*
X10622563Y-9374698D02*
X10622563Y-9403270D01*
X10622563Y-9403270D02*
X10613039Y-9441365D01*
X10613039Y-9441365D02*
X10603515Y-9460412D01*
X10603515Y-9460412D02*
X10584467Y-9479460D01*
X10584467Y-9479460D02*
X10555896Y-9488984D01*
X10555896Y-9488984D02*
X10508277Y-9488984D01*
X10708277Y-9488984D02*
X10708277Y-9355650D01*
X10708277Y-9393746D02*
X10717801Y-9374698D01*
X10717801Y-9374698D02*
X10727324Y-9365174D01*
X10727324Y-9365174D02*
X10746372Y-9355650D01*
X10746372Y-9355650D02*
X10765420Y-9355650D01*
X10832086Y-9488984D02*
X10832086Y-9355650D01*
X10832086Y-9288984D02*
X10822563Y-9298508D01*
X10822563Y-9298508D02*
X10832086Y-9308031D01*
X10832086Y-9308031D02*
X10841610Y-9298508D01*
X10841610Y-9298508D02*
X10832086Y-9288984D01*
X10832086Y-9288984D02*
X10832086Y-9308031D01*
X10955896Y-9488984D02*
X10936848Y-9479460D01*
X10936848Y-9479460D02*
X10927324Y-9460412D01*
X10927324Y-9460412D02*
X10927324Y-9288984D01*
X11060658Y-9488984D02*
X11041610Y-9479460D01*
X11041610Y-9479460D02*
X11032086Y-9460412D01*
X11032086Y-9460412D02*
X11032086Y-9288984D01*
X11289229Y-9488984D02*
X11289229Y-9288984D01*
X11289229Y-9288984D02*
X11355896Y-9431841D01*
X11355896Y-9431841D02*
X11422562Y-9288984D01*
X11422562Y-9288984D02*
X11422562Y-9488984D01*
X11603515Y-9488984D02*
X11603515Y-9384222D01*
X11603515Y-9384222D02*
X11593991Y-9365174D01*
X11593991Y-9365174D02*
X11574943Y-9355650D01*
X11574943Y-9355650D02*
X11536848Y-9355650D01*
X11536848Y-9355650D02*
X11517801Y-9365174D01*
X11603515Y-9479460D02*
X11584467Y-9488984D01*
X11584467Y-9488984D02*
X11536848Y-9488984D01*
X11536848Y-9488984D02*
X11517801Y-9479460D01*
X11517801Y-9479460D02*
X11508277Y-9460412D01*
X11508277Y-9460412D02*
X11508277Y-9441365D01*
X11508277Y-9441365D02*
X11517801Y-9422317D01*
X11517801Y-9422317D02*
X11536848Y-9412793D01*
X11536848Y-9412793D02*
X11584467Y-9412793D01*
X11584467Y-9412793D02*
X11603515Y-9403270D01*
X11698753Y-9355650D02*
X11698753Y-9555650D01*
X11698753Y-9365174D02*
X11717801Y-9355650D01*
X11717801Y-9355650D02*
X11755896Y-9355650D01*
X11755896Y-9355650D02*
X11774943Y-9365174D01*
X11774943Y-9365174D02*
X11784467Y-9374698D01*
X11784467Y-9374698D02*
X11793991Y-9393746D01*
X11793991Y-9393746D02*
X11793991Y-9450889D01*
X11793991Y-9450889D02*
X11784467Y-9469936D01*
X11784467Y-9469936D02*
X11774943Y-9479460D01*
X11774943Y-9479460D02*
X11755896Y-9488984D01*
X11755896Y-9488984D02*
X11717801Y-9488984D01*
X11717801Y-9488984D02*
X11698753Y-9479460D01*
X11879705Y-9469936D02*
X11889229Y-9479460D01*
X11889229Y-9479460D02*
X11879705Y-9488984D01*
X11879705Y-9488984D02*
X11870182Y-9479460D01*
X11870182Y-9479460D02*
X11879705Y-9469936D01*
X11879705Y-9469936D02*
X11879705Y-9488984D01*
X11879705Y-9365174D02*
X11889229Y-9374698D01*
X11889229Y-9374698D02*
X11879705Y-9384222D01*
X11879705Y-9384222D02*
X11870182Y-9374698D01*
X11870182Y-9374698D02*
X11879705Y-9365174D01*
X11879705Y-9365174D02*
X11879705Y-9384222D01*
D12*
X10182500Y-9785000D02*
X10247500Y-9850000D01*
X10247500Y-9785000D02*
X10182500Y-9850000D01*
D11*
X10546372Y-9708984D02*
X10565420Y-9708984D01*
X10565420Y-9708984D02*
X10584467Y-9718508D01*
X10584467Y-9718508D02*
X10593991Y-9728031D01*
X10593991Y-9728031D02*
X10603515Y-9747079D01*
X10603515Y-9747079D02*
X10613039Y-9785174D01*
X10613039Y-9785174D02*
X10613039Y-9832793D01*
X10613039Y-9832793D02*
X10603515Y-9870889D01*
X10603515Y-9870889D02*
X10593991Y-9889936D01*
X10593991Y-9889936D02*
X10584467Y-9899460D01*
X10584467Y-9899460D02*
X10565420Y-9908984D01*
X10565420Y-9908984D02*
X10546372Y-9908984D01*
X10546372Y-9908984D02*
X10527324Y-9899460D01*
X10527324Y-9899460D02*
X10517801Y-9889936D01*
X10517801Y-9889936D02*
X10508277Y-9870889D01*
X10508277Y-9870889D02*
X10498753Y-9832793D01*
X10498753Y-9832793D02*
X10498753Y-9785174D01*
X10498753Y-9785174D02*
X10508277Y-9747079D01*
X10508277Y-9747079D02*
X10517801Y-9728031D01*
X10517801Y-9728031D02*
X10527324Y-9718508D01*
X10527324Y-9718508D02*
X10546372Y-9708984D01*
X10698753Y-9889936D02*
X10708277Y-9899460D01*
X10708277Y-9899460D02*
X10698753Y-9908984D01*
X10698753Y-9908984D02*
X10689229Y-9899460D01*
X10689229Y-9899460D02*
X10698753Y-9889936D01*
X10698753Y-9889936D02*
X10698753Y-9908984D01*
X10879705Y-9708984D02*
X10841610Y-9708984D01*
X10841610Y-9708984D02*
X10822563Y-9718508D01*
X10822563Y-9718508D02*
X10813039Y-9728031D01*
X10813039Y-9728031D02*
X10793991Y-9756603D01*
X10793991Y-9756603D02*
X10784467Y-9794698D01*
X10784467Y-9794698D02*
X10784467Y-9870889D01*
X10784467Y-9870889D02*
X10793991Y-9889936D01*
X10793991Y-9889936D02*
X10803515Y-9899460D01*
X10803515Y-9899460D02*
X10822563Y-9908984D01*
X10822563Y-9908984D02*
X10860658Y-9908984D01*
X10860658Y-9908984D02*
X10879705Y-9899460D01*
X10879705Y-9899460D02*
X10889229Y-9889936D01*
X10889229Y-9889936D02*
X10898753Y-9870889D01*
X10898753Y-9870889D02*
X10898753Y-9823270D01*
X10898753Y-9823270D02*
X10889229Y-9804222D01*
X10889229Y-9804222D02*
X10879705Y-9794698D01*
X10879705Y-9794698D02*
X10860658Y-9785174D01*
X10860658Y-9785174D02*
X10822563Y-9785174D01*
X10822563Y-9785174D02*
X10803515Y-9794698D01*
X10803515Y-9794698D02*
X10793991Y-9804222D01*
X10793991Y-9804222D02*
X10784467Y-9823270D01*
X11079705Y-9708984D02*
X10984467Y-9708984D01*
X10984467Y-9708984D02*
X10974944Y-9804222D01*
X10974944Y-9804222D02*
X10984467Y-9794698D01*
X10984467Y-9794698D02*
X11003515Y-9785174D01*
X11003515Y-9785174D02*
X11051134Y-9785174D01*
X11051134Y-9785174D02*
X11070182Y-9794698D01*
X11070182Y-9794698D02*
X11079705Y-9804222D01*
X11079705Y-9804222D02*
X11089229Y-9823270D01*
X11089229Y-9823270D02*
X11089229Y-9870889D01*
X11089229Y-9870889D02*
X11079705Y-9889936D01*
X11079705Y-9889936D02*
X11070182Y-9899460D01*
X11070182Y-9899460D02*
X11051134Y-9908984D01*
X11051134Y-9908984D02*
X11003515Y-9908984D01*
X11003515Y-9908984D02*
X10984467Y-9899460D01*
X10984467Y-9899460D02*
X10974944Y-9889936D01*
X11213039Y-9708984D02*
X11232086Y-9708984D01*
X11232086Y-9708984D02*
X11251134Y-9718508D01*
X11251134Y-9718508D02*
X11260658Y-9728031D01*
X11260658Y-9728031D02*
X11270182Y-9747079D01*
X11270182Y-9747079D02*
X11279705Y-9785174D01*
X11279705Y-9785174D02*
X11279705Y-9832793D01*
X11279705Y-9832793D02*
X11270182Y-9870889D01*
X11270182Y-9870889D02*
X11260658Y-9889936D01*
X11260658Y-9889936D02*
X11251134Y-9899460D01*
X11251134Y-9899460D02*
X11232086Y-9908984D01*
X11232086Y-9908984D02*
X11213039Y-9908984D01*
X11213039Y-9908984D02*
X11193991Y-9899460D01*
X11193991Y-9899460D02*
X11184467Y-9889936D01*
X11184467Y-9889936D02*
X11174944Y-9870889D01*
X11174944Y-9870889D02*
X11165420Y-9832793D01*
X11165420Y-9832793D02*
X11165420Y-9785174D01*
X11165420Y-9785174D02*
X11174944Y-9747079D01*
X11174944Y-9747079D02*
X11184467Y-9728031D01*
X11184467Y-9728031D02*
X11193991Y-9718508D01*
X11193991Y-9718508D02*
X11213039Y-9708984D01*
X11365420Y-9908984D02*
X11365420Y-9775650D01*
X11365420Y-9794698D02*
X11374943Y-9785174D01*
X11374943Y-9785174D02*
X11393991Y-9775650D01*
X11393991Y-9775650D02*
X11422563Y-9775650D01*
X11422563Y-9775650D02*
X11441610Y-9785174D01*
X11441610Y-9785174D02*
X11451134Y-9804222D01*
X11451134Y-9804222D02*
X11451134Y-9908984D01*
X11451134Y-9804222D02*
X11460658Y-9785174D01*
X11460658Y-9785174D02*
X11479705Y-9775650D01*
X11479705Y-9775650D02*
X11508277Y-9775650D01*
X11508277Y-9775650D02*
X11527324Y-9785174D01*
X11527324Y-9785174D02*
X11536848Y-9804222D01*
X11536848Y-9804222D02*
X11536848Y-9908984D01*
X11632086Y-9908984D02*
X11632086Y-9775650D01*
X11632086Y-9794698D02*
X11641610Y-9785174D01*
X11641610Y-9785174D02*
X11660658Y-9775650D01*
X11660658Y-9775650D02*
X11689229Y-9775650D01*
X11689229Y-9775650D02*
X11708277Y-9785174D01*
X11708277Y-9785174D02*
X11717801Y-9804222D01*
X11717801Y-9804222D02*
X11717801Y-9908984D01*
X11717801Y-9804222D02*
X11727324Y-9785174D01*
X11727324Y-9785174D02*
X11746372Y-9775650D01*
X11746372Y-9775650D02*
X11774943Y-9775650D01*
X11774943Y-9775650D02*
X11793991Y-9785174D01*
X11793991Y-9785174D02*
X11803515Y-9804222D01*
X11803515Y-9804222D02*
X11803515Y-9908984D01*
X12193991Y-9699460D02*
X12022563Y-9956603D01*
X12451134Y-9708984D02*
X12470182Y-9708984D01*
X12470182Y-9708984D02*
X12489229Y-9718508D01*
X12489229Y-9718508D02*
X12498753Y-9728031D01*
X12498753Y-9728031D02*
X12508277Y-9747079D01*
X12508277Y-9747079D02*
X12517801Y-9785174D01*
X12517801Y-9785174D02*
X12517801Y-9832793D01*
X12517801Y-9832793D02*
X12508277Y-9870889D01*
X12508277Y-9870889D02*
X12498753Y-9889936D01*
X12498753Y-9889936D02*
X12489229Y-9899460D01*
X12489229Y-9899460D02*
X12470182Y-9908984D01*
X12470182Y-9908984D02*
X12451134Y-9908984D01*
X12451134Y-9908984D02*
X12432086Y-9899460D01*
X12432086Y-9899460D02*
X12422563Y-9889936D01*
X12422563Y-9889936D02*
X12413039Y-9870889D01*
X12413039Y-9870889D02*
X12403515Y-9832793D01*
X12403515Y-9832793D02*
X12403515Y-9785174D01*
X12403515Y-9785174D02*
X12413039Y-9747079D01*
X12413039Y-9747079D02*
X12422563Y-9728031D01*
X12422563Y-9728031D02*
X12432086Y-9718508D01*
X12432086Y-9718508D02*
X12451134Y-9708984D01*
X12603515Y-9889936D02*
X12613039Y-9899460D01*
X12613039Y-9899460D02*
X12603515Y-9908984D01*
X12603515Y-9908984D02*
X12593991Y-9899460D01*
X12593991Y-9899460D02*
X12603515Y-9889936D01*
X12603515Y-9889936D02*
X12603515Y-9908984D01*
X12736848Y-9708984D02*
X12755896Y-9708984D01*
X12755896Y-9708984D02*
X12774944Y-9718508D01*
X12774944Y-9718508D02*
X12784467Y-9728031D01*
X12784467Y-9728031D02*
X12793991Y-9747079D01*
X12793991Y-9747079D02*
X12803515Y-9785174D01*
X12803515Y-9785174D02*
X12803515Y-9832793D01*
X12803515Y-9832793D02*
X12793991Y-9870889D01*
X12793991Y-9870889D02*
X12784467Y-9889936D01*
X12784467Y-9889936D02*
X12774944Y-9899460D01*
X12774944Y-9899460D02*
X12755896Y-9908984D01*
X12755896Y-9908984D02*
X12736848Y-9908984D01*
X12736848Y-9908984D02*
X12717801Y-9899460D01*
X12717801Y-9899460D02*
X12708277Y-9889936D01*
X12708277Y-9889936D02*
X12698753Y-9870889D01*
X12698753Y-9870889D02*
X12689229Y-9832793D01*
X12689229Y-9832793D02*
X12689229Y-9785174D01*
X12689229Y-9785174D02*
X12698753Y-9747079D01*
X12698753Y-9747079D02*
X12708277Y-9728031D01*
X12708277Y-9728031D02*
X12717801Y-9718508D01*
X12717801Y-9718508D02*
X12736848Y-9708984D01*
X12879706Y-9728031D02*
X12889229Y-9718508D01*
X12889229Y-9718508D02*
X12908277Y-9708984D01*
X12908277Y-9708984D02*
X12955896Y-9708984D01*
X12955896Y-9708984D02*
X12974944Y-9718508D01*
X12974944Y-9718508D02*
X12984467Y-9728031D01*
X12984467Y-9728031D02*
X12993991Y-9747079D01*
X12993991Y-9747079D02*
X12993991Y-9766127D01*
X12993991Y-9766127D02*
X12984467Y-9794698D01*
X12984467Y-9794698D02*
X12870182Y-9908984D01*
X12870182Y-9908984D02*
X12993991Y-9908984D01*
X13174944Y-9708984D02*
X13079706Y-9708984D01*
X13079706Y-9708984D02*
X13070182Y-9804222D01*
X13070182Y-9804222D02*
X13079706Y-9794698D01*
X13079706Y-9794698D02*
X13098753Y-9785174D01*
X13098753Y-9785174D02*
X13146372Y-9785174D01*
X13146372Y-9785174D02*
X13165420Y-9794698D01*
X13165420Y-9794698D02*
X13174944Y-9804222D01*
X13174944Y-9804222D02*
X13184467Y-9823270D01*
X13184467Y-9823270D02*
X13184467Y-9870889D01*
X13184467Y-9870889D02*
X13174944Y-9889936D01*
X13174944Y-9889936D02*
X13165420Y-9899460D01*
X13165420Y-9899460D02*
X13146372Y-9908984D01*
X13146372Y-9908984D02*
X13098753Y-9908984D01*
X13098753Y-9908984D02*
X13079706Y-9899460D01*
X13079706Y-9899460D02*
X13070182Y-9889936D01*
X13355896Y-9708984D02*
X13317801Y-9708984D01*
X13317801Y-9708984D02*
X13298753Y-9718508D01*
X13298753Y-9718508D02*
X13289229Y-9728031D01*
X13289229Y-9728031D02*
X13270182Y-9756603D01*
X13270182Y-9756603D02*
X13260658Y-9794698D01*
X13260658Y-9794698D02*
X13260658Y-9870889D01*
X13260658Y-9870889D02*
X13270182Y-9889936D01*
X13270182Y-9889936D02*
X13279706Y-9899460D01*
X13279706Y-9899460D02*
X13298753Y-9908984D01*
X13298753Y-9908984D02*
X13336848Y-9908984D01*
X13336848Y-9908984D02*
X13355896Y-9899460D01*
X13355896Y-9899460D02*
X13365420Y-9889936D01*
X13365420Y-9889936D02*
X13374944Y-9870889D01*
X13374944Y-9870889D02*
X13374944Y-9823270D01*
X13374944Y-9823270D02*
X13365420Y-9804222D01*
X13365420Y-9804222D02*
X13355896Y-9794698D01*
X13355896Y-9794698D02*
X13336848Y-9785174D01*
X13336848Y-9785174D02*
X13298753Y-9785174D01*
X13298753Y-9785174D02*
X13279706Y-9794698D01*
X13279706Y-9794698D02*
X13270182Y-9804222D01*
X13270182Y-9804222D02*
X13260658Y-9823270D01*
X13451134Y-9708984D02*
X13451134Y-9747079D01*
X13527325Y-9708984D02*
X13527325Y-9747079D01*
X13822563Y-9985174D02*
X13813039Y-9975650D01*
X13813039Y-9975650D02*
X13793991Y-9947079D01*
X13793991Y-9947079D02*
X13784468Y-9928031D01*
X13784468Y-9928031D02*
X13774944Y-9899460D01*
X13774944Y-9899460D02*
X13765420Y-9851841D01*
X13765420Y-9851841D02*
X13765420Y-9813746D01*
X13765420Y-9813746D02*
X13774944Y-9766127D01*
X13774944Y-9766127D02*
X13784468Y-9737555D01*
X13784468Y-9737555D02*
X13793991Y-9718508D01*
X13793991Y-9718508D02*
X13813039Y-9689936D01*
X13813039Y-9689936D02*
X13822563Y-9680412D01*
X13889229Y-9728031D02*
X13898753Y-9718508D01*
X13898753Y-9718508D02*
X13917801Y-9708984D01*
X13917801Y-9708984D02*
X13965420Y-9708984D01*
X13965420Y-9708984D02*
X13984468Y-9718508D01*
X13984468Y-9718508D02*
X13993991Y-9728031D01*
X13993991Y-9728031D02*
X14003515Y-9747079D01*
X14003515Y-9747079D02*
X14003515Y-9766127D01*
X14003515Y-9766127D02*
X13993991Y-9794698D01*
X13993991Y-9794698D02*
X13879706Y-9908984D01*
X13879706Y-9908984D02*
X14003515Y-9908984D01*
X14241610Y-9908984D02*
X14241610Y-9708984D01*
X14327325Y-9908984D02*
X14327325Y-9804222D01*
X14327325Y-9804222D02*
X14317801Y-9785174D01*
X14317801Y-9785174D02*
X14298753Y-9775650D01*
X14298753Y-9775650D02*
X14270182Y-9775650D01*
X14270182Y-9775650D02*
X14251134Y-9785174D01*
X14251134Y-9785174D02*
X14241610Y-9794698D01*
X14451134Y-9908984D02*
X14432087Y-9899460D01*
X14432087Y-9899460D02*
X14422563Y-9889936D01*
X14422563Y-9889936D02*
X14413039Y-9870889D01*
X14413039Y-9870889D02*
X14413039Y-9813746D01*
X14413039Y-9813746D02*
X14422563Y-9794698D01*
X14422563Y-9794698D02*
X14432087Y-9785174D01*
X14432087Y-9785174D02*
X14451134Y-9775650D01*
X14451134Y-9775650D02*
X14479706Y-9775650D01*
X14479706Y-9775650D02*
X14498753Y-9785174D01*
X14498753Y-9785174D02*
X14508277Y-9794698D01*
X14508277Y-9794698D02*
X14517801Y-9813746D01*
X14517801Y-9813746D02*
X14517801Y-9870889D01*
X14517801Y-9870889D02*
X14508277Y-9889936D01*
X14508277Y-9889936D02*
X14498753Y-9899460D01*
X14498753Y-9899460D02*
X14479706Y-9908984D01*
X14479706Y-9908984D02*
X14451134Y-9908984D01*
X14632087Y-9908984D02*
X14613039Y-9899460D01*
X14613039Y-9899460D02*
X14603515Y-9880412D01*
X14603515Y-9880412D02*
X14603515Y-9708984D01*
X14784468Y-9899460D02*
X14765420Y-9908984D01*
X14765420Y-9908984D02*
X14727325Y-9908984D01*
X14727325Y-9908984D02*
X14708277Y-9899460D01*
X14708277Y-9899460D02*
X14698753Y-9880412D01*
X14698753Y-9880412D02*
X14698753Y-9804222D01*
X14698753Y-9804222D02*
X14708277Y-9785174D01*
X14708277Y-9785174D02*
X14727325Y-9775650D01*
X14727325Y-9775650D02*
X14765420Y-9775650D01*
X14765420Y-9775650D02*
X14784468Y-9785174D01*
X14784468Y-9785174D02*
X14793991Y-9804222D01*
X14793991Y-9804222D02*
X14793991Y-9823270D01*
X14793991Y-9823270D02*
X14698753Y-9842317D01*
X14870182Y-9899460D02*
X14889230Y-9908984D01*
X14889230Y-9908984D02*
X14927325Y-9908984D01*
X14927325Y-9908984D02*
X14946372Y-9899460D01*
X14946372Y-9899460D02*
X14955896Y-9880412D01*
X14955896Y-9880412D02*
X14955896Y-9870889D01*
X14955896Y-9870889D02*
X14946372Y-9851841D01*
X14946372Y-9851841D02*
X14927325Y-9842317D01*
X14927325Y-9842317D02*
X14898753Y-9842317D01*
X14898753Y-9842317D02*
X14879706Y-9832793D01*
X14879706Y-9832793D02*
X14870182Y-9813746D01*
X14870182Y-9813746D02*
X14870182Y-9804222D01*
X14870182Y-9804222D02*
X14879706Y-9785174D01*
X14879706Y-9785174D02*
X14898753Y-9775650D01*
X14898753Y-9775650D02*
X14927325Y-9775650D01*
X14927325Y-9775650D02*
X14946372Y-9785174D01*
X15022563Y-9985174D02*
X15032087Y-9975650D01*
X15032087Y-9975650D02*
X15051134Y-9947079D01*
X15051134Y-9947079D02*
X15060658Y-9928031D01*
X15060658Y-9928031D02*
X15070182Y-9899460D01*
X15070182Y-9899460D02*
X15079706Y-9851841D01*
X15079706Y-9851841D02*
X15079706Y-9813746D01*
X15079706Y-9813746D02*
X15070182Y-9766127D01*
X15070182Y-9766127D02*
X15060658Y-9737555D01*
X15060658Y-9737555D02*
X15051134Y-9718508D01*
X15051134Y-9718508D02*
X15032087Y-9689936D01*
X15032087Y-9689936D02*
X15022563Y-9680412D01*
X15384468Y-9985174D02*
X15374944Y-9975650D01*
X15374944Y-9975650D02*
X15355896Y-9947079D01*
X15355896Y-9947079D02*
X15346372Y-9928031D01*
X15346372Y-9928031D02*
X15336849Y-9899460D01*
X15336849Y-9899460D02*
X15327325Y-9851841D01*
X15327325Y-9851841D02*
X15327325Y-9813746D01*
X15327325Y-9813746D02*
X15336849Y-9766127D01*
X15336849Y-9766127D02*
X15346372Y-9737555D01*
X15346372Y-9737555D02*
X15355896Y-9718508D01*
X15355896Y-9718508D02*
X15374944Y-9689936D01*
X15374944Y-9689936D02*
X15384468Y-9680412D01*
X15460658Y-9775650D02*
X15460658Y-9908984D01*
X15460658Y-9794698D02*
X15470182Y-9785174D01*
X15470182Y-9785174D02*
X15489230Y-9775650D01*
X15489230Y-9775650D02*
X15517801Y-9775650D01*
X15517801Y-9775650D02*
X15536849Y-9785174D01*
X15536849Y-9785174D02*
X15546372Y-9804222D01*
X15546372Y-9804222D02*
X15546372Y-9908984D01*
X15670182Y-9908984D02*
X15651134Y-9899460D01*
X15651134Y-9899460D02*
X15641611Y-9889936D01*
X15641611Y-9889936D02*
X15632087Y-9870889D01*
X15632087Y-9870889D02*
X15632087Y-9813746D01*
X15632087Y-9813746D02*
X15641611Y-9794698D01*
X15641611Y-9794698D02*
X15651134Y-9785174D01*
X15651134Y-9785174D02*
X15670182Y-9775650D01*
X15670182Y-9775650D02*
X15698753Y-9775650D01*
X15698753Y-9775650D02*
X15717801Y-9785174D01*
X15717801Y-9785174D02*
X15727325Y-9794698D01*
X15727325Y-9794698D02*
X15736849Y-9813746D01*
X15736849Y-9813746D02*
X15736849Y-9870889D01*
X15736849Y-9870889D02*
X15727325Y-9889936D01*
X15727325Y-9889936D02*
X15717801Y-9899460D01*
X15717801Y-9899460D02*
X15698753Y-9908984D01*
X15698753Y-9908984D02*
X15670182Y-9908984D01*
X15793992Y-9775650D02*
X15870182Y-9775650D01*
X15822563Y-9708984D02*
X15822563Y-9880412D01*
X15822563Y-9880412D02*
X15832087Y-9899460D01*
X15832087Y-9899460D02*
X15851134Y-9908984D01*
X15851134Y-9908984D02*
X15870182Y-9908984D01*
X16089230Y-9775650D02*
X16089230Y-9975650D01*
X16089230Y-9785174D02*
X16108277Y-9775650D01*
X16108277Y-9775650D02*
X16146373Y-9775650D01*
X16146373Y-9775650D02*
X16165420Y-9785174D01*
X16165420Y-9785174D02*
X16174944Y-9794698D01*
X16174944Y-9794698D02*
X16184468Y-9813746D01*
X16184468Y-9813746D02*
X16184468Y-9870889D01*
X16184468Y-9870889D02*
X16174944Y-9889936D01*
X16174944Y-9889936D02*
X16165420Y-9899460D01*
X16165420Y-9899460D02*
X16146373Y-9908984D01*
X16146373Y-9908984D02*
X16108277Y-9908984D01*
X16108277Y-9908984D02*
X16089230Y-9899460D01*
X16298753Y-9908984D02*
X16279706Y-9899460D01*
X16279706Y-9899460D02*
X16270182Y-9880412D01*
X16270182Y-9880412D02*
X16270182Y-9708984D01*
X16460658Y-9908984D02*
X16460658Y-9804222D01*
X16460658Y-9804222D02*
X16451134Y-9785174D01*
X16451134Y-9785174D02*
X16432087Y-9775650D01*
X16432087Y-9775650D02*
X16393992Y-9775650D01*
X16393992Y-9775650D02*
X16374944Y-9785174D01*
X16460658Y-9899460D02*
X16441611Y-9908984D01*
X16441611Y-9908984D02*
X16393992Y-9908984D01*
X16393992Y-9908984D02*
X16374944Y-9899460D01*
X16374944Y-9899460D02*
X16365420Y-9880412D01*
X16365420Y-9880412D02*
X16365420Y-9861365D01*
X16365420Y-9861365D02*
X16374944Y-9842317D01*
X16374944Y-9842317D02*
X16393992Y-9832793D01*
X16393992Y-9832793D02*
X16441611Y-9832793D01*
X16441611Y-9832793D02*
X16460658Y-9823270D01*
X16527325Y-9775650D02*
X16603515Y-9775650D01*
X16555896Y-9708984D02*
X16555896Y-9880412D01*
X16555896Y-9880412D02*
X16565420Y-9899460D01*
X16565420Y-9899460D02*
X16584468Y-9908984D01*
X16584468Y-9908984D02*
X16603515Y-9908984D01*
X16746373Y-9899460D02*
X16727325Y-9908984D01*
X16727325Y-9908984D02*
X16689230Y-9908984D01*
X16689230Y-9908984D02*
X16670182Y-9899460D01*
X16670182Y-9899460D02*
X16660658Y-9880412D01*
X16660658Y-9880412D02*
X16660658Y-9804222D01*
X16660658Y-9804222D02*
X16670182Y-9785174D01*
X16670182Y-9785174D02*
X16689230Y-9775650D01*
X16689230Y-9775650D02*
X16727325Y-9775650D01*
X16727325Y-9775650D02*
X16746373Y-9785174D01*
X16746373Y-9785174D02*
X16755896Y-9804222D01*
X16755896Y-9804222D02*
X16755896Y-9823270D01*
X16755896Y-9823270D02*
X16660658Y-9842317D01*
X16927325Y-9908984D02*
X16927325Y-9708984D01*
X16927325Y-9899460D02*
X16908277Y-9908984D01*
X16908277Y-9908984D02*
X16870182Y-9908984D01*
X16870182Y-9908984D02*
X16851135Y-9899460D01*
X16851135Y-9899460D02*
X16841611Y-9889936D01*
X16841611Y-9889936D02*
X16832087Y-9870889D01*
X16832087Y-9870889D02*
X16832087Y-9813746D01*
X16832087Y-9813746D02*
X16841611Y-9794698D01*
X16841611Y-9794698D02*
X16851135Y-9785174D01*
X16851135Y-9785174D02*
X16870182Y-9775650D01*
X16870182Y-9775650D02*
X16908277Y-9775650D01*
X16908277Y-9775650D02*
X16927325Y-9785174D01*
X17003516Y-9985174D02*
X17013039Y-9975650D01*
X17013039Y-9975650D02*
X17032087Y-9947079D01*
X17032087Y-9947079D02*
X17041611Y-9928031D01*
X17041611Y-9928031D02*
X17051135Y-9899460D01*
X17051135Y-9899460D02*
X17060658Y-9851841D01*
X17060658Y-9851841D02*
X17060658Y-9813746D01*
X17060658Y-9813746D02*
X17051135Y-9766127D01*
X17051135Y-9766127D02*
X17041611Y-9737555D01*
X17041611Y-9737555D02*
X17032087Y-9718508D01*
X17032087Y-9718508D02*
X17013039Y-9689936D01*
X17013039Y-9689936D02*
X17003516Y-9680412D01*
X10247500Y-10081500D02*
G75*
G02*
X10047500Y-10081500I-100000J0D01*
G01*
X10047500Y-10081500D02*
G75*
G02*
X10247500Y-10081500I100000J0D01*
G01*
X10498753Y-9992031D02*
X10508277Y-9982508D01*
X10508277Y-9982508D02*
X10527324Y-9972984D01*
X10527324Y-9972984D02*
X10574944Y-9972984D01*
X10574944Y-9972984D02*
X10593991Y-9982508D01*
X10593991Y-9982508D02*
X10603515Y-9992031D01*
X10603515Y-9992031D02*
X10613039Y-10011079D01*
X10613039Y-10011079D02*
X10613039Y-10030127D01*
X10613039Y-10030127D02*
X10603515Y-10058698D01*
X10603515Y-10058698D02*
X10489229Y-10172984D01*
X10489229Y-10172984D02*
X10613039Y-10172984D01*
X10698753Y-10153936D02*
X10708277Y-10163460D01*
X10708277Y-10163460D02*
X10698753Y-10172984D01*
X10698753Y-10172984D02*
X10689229Y-10163460D01*
X10689229Y-10163460D02*
X10698753Y-10153936D01*
X10698753Y-10153936D02*
X10698753Y-10172984D01*
X10784467Y-9992031D02*
X10793991Y-9982508D01*
X10793991Y-9982508D02*
X10813039Y-9972984D01*
X10813039Y-9972984D02*
X10860658Y-9972984D01*
X10860658Y-9972984D02*
X10879705Y-9982508D01*
X10879705Y-9982508D02*
X10889229Y-9992031D01*
X10889229Y-9992031D02*
X10898753Y-10011079D01*
X10898753Y-10011079D02*
X10898753Y-10030127D01*
X10898753Y-10030127D02*
X10889229Y-10058698D01*
X10889229Y-10058698D02*
X10774944Y-10172984D01*
X10774944Y-10172984D02*
X10898753Y-10172984D01*
X11022563Y-9972984D02*
X11041610Y-9972984D01*
X11041610Y-9972984D02*
X11060658Y-9982508D01*
X11060658Y-9982508D02*
X11070182Y-9992031D01*
X11070182Y-9992031D02*
X11079705Y-10011079D01*
X11079705Y-10011079D02*
X11089229Y-10049174D01*
X11089229Y-10049174D02*
X11089229Y-10096793D01*
X11089229Y-10096793D02*
X11079705Y-10134889D01*
X11079705Y-10134889D02*
X11070182Y-10153936D01*
X11070182Y-10153936D02*
X11060658Y-10163460D01*
X11060658Y-10163460D02*
X11041610Y-10172984D01*
X11041610Y-10172984D02*
X11022563Y-10172984D01*
X11022563Y-10172984D02*
X11003515Y-10163460D01*
X11003515Y-10163460D02*
X10993991Y-10153936D01*
X10993991Y-10153936D02*
X10984467Y-10134889D01*
X10984467Y-10134889D02*
X10974944Y-10096793D01*
X10974944Y-10096793D02*
X10974944Y-10049174D01*
X10974944Y-10049174D02*
X10984467Y-10011079D01*
X10984467Y-10011079D02*
X10993991Y-9992031D01*
X10993991Y-9992031D02*
X11003515Y-9982508D01*
X11003515Y-9982508D02*
X11022563Y-9972984D01*
X11213039Y-9972984D02*
X11232086Y-9972984D01*
X11232086Y-9972984D02*
X11251134Y-9982508D01*
X11251134Y-9982508D02*
X11260658Y-9992031D01*
X11260658Y-9992031D02*
X11270182Y-10011079D01*
X11270182Y-10011079D02*
X11279705Y-10049174D01*
X11279705Y-10049174D02*
X11279705Y-10096793D01*
X11279705Y-10096793D02*
X11270182Y-10134889D01*
X11270182Y-10134889D02*
X11260658Y-10153936D01*
X11260658Y-10153936D02*
X11251134Y-10163460D01*
X11251134Y-10163460D02*
X11232086Y-10172984D01*
X11232086Y-10172984D02*
X11213039Y-10172984D01*
X11213039Y-10172984D02*
X11193991Y-10163460D01*
X11193991Y-10163460D02*
X11184467Y-10153936D01*
X11184467Y-10153936D02*
X11174944Y-10134889D01*
X11174944Y-10134889D02*
X11165420Y-10096793D01*
X11165420Y-10096793D02*
X11165420Y-10049174D01*
X11165420Y-10049174D02*
X11174944Y-10011079D01*
X11174944Y-10011079D02*
X11184467Y-9992031D01*
X11184467Y-9992031D02*
X11193991Y-9982508D01*
X11193991Y-9982508D02*
X11213039Y-9972984D01*
X11365420Y-10172984D02*
X11365420Y-10039650D01*
X11365420Y-10058698D02*
X11374943Y-10049174D01*
X11374943Y-10049174D02*
X11393991Y-10039650D01*
X11393991Y-10039650D02*
X11422563Y-10039650D01*
X11422563Y-10039650D02*
X11441610Y-10049174D01*
X11441610Y-10049174D02*
X11451134Y-10068222D01*
X11451134Y-10068222D02*
X11451134Y-10172984D01*
X11451134Y-10068222D02*
X11460658Y-10049174D01*
X11460658Y-10049174D02*
X11479705Y-10039650D01*
X11479705Y-10039650D02*
X11508277Y-10039650D01*
X11508277Y-10039650D02*
X11527324Y-10049174D01*
X11527324Y-10049174D02*
X11536848Y-10068222D01*
X11536848Y-10068222D02*
X11536848Y-10172984D01*
X11632086Y-10172984D02*
X11632086Y-10039650D01*
X11632086Y-10058698D02*
X11641610Y-10049174D01*
X11641610Y-10049174D02*
X11660658Y-10039650D01*
X11660658Y-10039650D02*
X11689229Y-10039650D01*
X11689229Y-10039650D02*
X11708277Y-10049174D01*
X11708277Y-10049174D02*
X11717801Y-10068222D01*
X11717801Y-10068222D02*
X11717801Y-10172984D01*
X11717801Y-10068222D02*
X11727324Y-10049174D01*
X11727324Y-10049174D02*
X11746372Y-10039650D01*
X11746372Y-10039650D02*
X11774943Y-10039650D01*
X11774943Y-10039650D02*
X11793991Y-10049174D01*
X11793991Y-10049174D02*
X11803515Y-10068222D01*
X11803515Y-10068222D02*
X11803515Y-10172984D01*
X12193991Y-9963460D02*
X12022563Y-10220603D01*
X12451134Y-9972984D02*
X12470182Y-9972984D01*
X12470182Y-9972984D02*
X12489229Y-9982508D01*
X12489229Y-9982508D02*
X12498753Y-9992031D01*
X12498753Y-9992031D02*
X12508277Y-10011079D01*
X12508277Y-10011079D02*
X12517801Y-10049174D01*
X12517801Y-10049174D02*
X12517801Y-10096793D01*
X12517801Y-10096793D02*
X12508277Y-10134889D01*
X12508277Y-10134889D02*
X12498753Y-10153936D01*
X12498753Y-10153936D02*
X12489229Y-10163460D01*
X12489229Y-10163460D02*
X12470182Y-10172984D01*
X12470182Y-10172984D02*
X12451134Y-10172984D01*
X12451134Y-10172984D02*
X12432086Y-10163460D01*
X12432086Y-10163460D02*
X12422563Y-10153936D01*
X12422563Y-10153936D02*
X12413039Y-10134889D01*
X12413039Y-10134889D02*
X12403515Y-10096793D01*
X12403515Y-10096793D02*
X12403515Y-10049174D01*
X12403515Y-10049174D02*
X12413039Y-10011079D01*
X12413039Y-10011079D02*
X12422563Y-9992031D01*
X12422563Y-9992031D02*
X12432086Y-9982508D01*
X12432086Y-9982508D02*
X12451134Y-9972984D01*
X12603515Y-10153936D02*
X12613039Y-10163460D01*
X12613039Y-10163460D02*
X12603515Y-10172984D01*
X12603515Y-10172984D02*
X12593991Y-10163460D01*
X12593991Y-10163460D02*
X12603515Y-10153936D01*
X12603515Y-10153936D02*
X12603515Y-10172984D01*
X12736848Y-9972984D02*
X12755896Y-9972984D01*
X12755896Y-9972984D02*
X12774944Y-9982508D01*
X12774944Y-9982508D02*
X12784467Y-9992031D01*
X12784467Y-9992031D02*
X12793991Y-10011079D01*
X12793991Y-10011079D02*
X12803515Y-10049174D01*
X12803515Y-10049174D02*
X12803515Y-10096793D01*
X12803515Y-10096793D02*
X12793991Y-10134889D01*
X12793991Y-10134889D02*
X12784467Y-10153936D01*
X12784467Y-10153936D02*
X12774944Y-10163460D01*
X12774944Y-10163460D02*
X12755896Y-10172984D01*
X12755896Y-10172984D02*
X12736848Y-10172984D01*
X12736848Y-10172984D02*
X12717801Y-10163460D01*
X12717801Y-10163460D02*
X12708277Y-10153936D01*
X12708277Y-10153936D02*
X12698753Y-10134889D01*
X12698753Y-10134889D02*
X12689229Y-10096793D01*
X12689229Y-10096793D02*
X12689229Y-10049174D01*
X12689229Y-10049174D02*
X12698753Y-10011079D01*
X12698753Y-10011079D02*
X12708277Y-9992031D01*
X12708277Y-9992031D02*
X12717801Y-9982508D01*
X12717801Y-9982508D02*
X12736848Y-9972984D01*
X12917801Y-10058698D02*
X12898753Y-10049174D01*
X12898753Y-10049174D02*
X12889229Y-10039650D01*
X12889229Y-10039650D02*
X12879706Y-10020603D01*
X12879706Y-10020603D02*
X12879706Y-10011079D01*
X12879706Y-10011079D02*
X12889229Y-9992031D01*
X12889229Y-9992031D02*
X12898753Y-9982508D01*
X12898753Y-9982508D02*
X12917801Y-9972984D01*
X12917801Y-9972984D02*
X12955896Y-9972984D01*
X12955896Y-9972984D02*
X12974944Y-9982508D01*
X12974944Y-9982508D02*
X12984467Y-9992031D01*
X12984467Y-9992031D02*
X12993991Y-10011079D01*
X12993991Y-10011079D02*
X12993991Y-10020603D01*
X12993991Y-10020603D02*
X12984467Y-10039650D01*
X12984467Y-10039650D02*
X12974944Y-10049174D01*
X12974944Y-10049174D02*
X12955896Y-10058698D01*
X12955896Y-10058698D02*
X12917801Y-10058698D01*
X12917801Y-10058698D02*
X12898753Y-10068222D01*
X12898753Y-10068222D02*
X12889229Y-10077746D01*
X12889229Y-10077746D02*
X12879706Y-10096793D01*
X12879706Y-10096793D02*
X12879706Y-10134889D01*
X12879706Y-10134889D02*
X12889229Y-10153936D01*
X12889229Y-10153936D02*
X12898753Y-10163460D01*
X12898753Y-10163460D02*
X12917801Y-10172984D01*
X12917801Y-10172984D02*
X12955896Y-10172984D01*
X12955896Y-10172984D02*
X12974944Y-10163460D01*
X12974944Y-10163460D02*
X12984467Y-10153936D01*
X12984467Y-10153936D02*
X12993991Y-10134889D01*
X12993991Y-10134889D02*
X12993991Y-10096793D01*
X12993991Y-10096793D02*
X12984467Y-10077746D01*
X12984467Y-10077746D02*
X12974944Y-10068222D01*
X12974944Y-10068222D02*
X12955896Y-10058698D01*
X13165420Y-9972984D02*
X13127325Y-9972984D01*
X13127325Y-9972984D02*
X13108277Y-9982508D01*
X13108277Y-9982508D02*
X13098753Y-9992031D01*
X13098753Y-9992031D02*
X13079706Y-10020603D01*
X13079706Y-10020603D02*
X13070182Y-10058698D01*
X13070182Y-10058698D02*
X13070182Y-10134889D01*
X13070182Y-10134889D02*
X13079706Y-10153936D01*
X13079706Y-10153936D02*
X13089229Y-10163460D01*
X13089229Y-10163460D02*
X13108277Y-10172984D01*
X13108277Y-10172984D02*
X13146372Y-10172984D01*
X13146372Y-10172984D02*
X13165420Y-10163460D01*
X13165420Y-10163460D02*
X13174944Y-10153936D01*
X13174944Y-10153936D02*
X13184467Y-10134889D01*
X13184467Y-10134889D02*
X13184467Y-10087270D01*
X13184467Y-10087270D02*
X13174944Y-10068222D01*
X13174944Y-10068222D02*
X13165420Y-10058698D01*
X13165420Y-10058698D02*
X13146372Y-10049174D01*
X13146372Y-10049174D02*
X13108277Y-10049174D01*
X13108277Y-10049174D02*
X13089229Y-10058698D01*
X13089229Y-10058698D02*
X13079706Y-10068222D01*
X13079706Y-10068222D02*
X13070182Y-10087270D01*
X13355896Y-9972984D02*
X13317801Y-9972984D01*
X13317801Y-9972984D02*
X13298753Y-9982508D01*
X13298753Y-9982508D02*
X13289229Y-9992031D01*
X13289229Y-9992031D02*
X13270182Y-10020603D01*
X13270182Y-10020603D02*
X13260658Y-10058698D01*
X13260658Y-10058698D02*
X13260658Y-10134889D01*
X13260658Y-10134889D02*
X13270182Y-10153936D01*
X13270182Y-10153936D02*
X13279706Y-10163460D01*
X13279706Y-10163460D02*
X13298753Y-10172984D01*
X13298753Y-10172984D02*
X13336848Y-10172984D01*
X13336848Y-10172984D02*
X13355896Y-10163460D01*
X13355896Y-10163460D02*
X13365420Y-10153936D01*
X13365420Y-10153936D02*
X13374944Y-10134889D01*
X13374944Y-10134889D02*
X13374944Y-10087270D01*
X13374944Y-10087270D02*
X13365420Y-10068222D01*
X13365420Y-10068222D02*
X13355896Y-10058698D01*
X13355896Y-10058698D02*
X13336848Y-10049174D01*
X13336848Y-10049174D02*
X13298753Y-10049174D01*
X13298753Y-10049174D02*
X13279706Y-10058698D01*
X13279706Y-10058698D02*
X13270182Y-10068222D01*
X13270182Y-10068222D02*
X13260658Y-10087270D01*
X13451134Y-9972984D02*
X13451134Y-10011079D01*
X13527325Y-9972984D02*
X13527325Y-10011079D01*
X13822563Y-10249174D02*
X13813039Y-10239650D01*
X13813039Y-10239650D02*
X13793991Y-10211079D01*
X13793991Y-10211079D02*
X13784468Y-10192031D01*
X13784468Y-10192031D02*
X13774944Y-10163460D01*
X13774944Y-10163460D02*
X13765420Y-10115841D01*
X13765420Y-10115841D02*
X13765420Y-10077746D01*
X13765420Y-10077746D02*
X13774944Y-10030127D01*
X13774944Y-10030127D02*
X13784468Y-10001555D01*
X13784468Y-10001555D02*
X13793991Y-9982508D01*
X13793991Y-9982508D02*
X13813039Y-9953936D01*
X13813039Y-9953936D02*
X13822563Y-9944412D01*
X13984468Y-10039650D02*
X13984468Y-10172984D01*
X13936848Y-9963460D02*
X13889229Y-10106317D01*
X13889229Y-10106317D02*
X14013039Y-10106317D01*
X14241610Y-10172984D02*
X14241610Y-9972984D01*
X14327325Y-10172984D02*
X14327325Y-10068222D01*
X14327325Y-10068222D02*
X14317801Y-10049174D01*
X14317801Y-10049174D02*
X14298753Y-10039650D01*
X14298753Y-10039650D02*
X14270182Y-10039650D01*
X14270182Y-10039650D02*
X14251134Y-10049174D01*
X14251134Y-10049174D02*
X14241610Y-10058698D01*
X14451134Y-10172984D02*
X14432087Y-10163460D01*
X14432087Y-10163460D02*
X14422563Y-10153936D01*
X14422563Y-10153936D02*
X14413039Y-10134889D01*
X14413039Y-10134889D02*
X14413039Y-10077746D01*
X14413039Y-10077746D02*
X14422563Y-10058698D01*
X14422563Y-10058698D02*
X14432087Y-10049174D01*
X14432087Y-10049174D02*
X14451134Y-10039650D01*
X14451134Y-10039650D02*
X14479706Y-10039650D01*
X14479706Y-10039650D02*
X14498753Y-10049174D01*
X14498753Y-10049174D02*
X14508277Y-10058698D01*
X14508277Y-10058698D02*
X14517801Y-10077746D01*
X14517801Y-10077746D02*
X14517801Y-10134889D01*
X14517801Y-10134889D02*
X14508277Y-10153936D01*
X14508277Y-10153936D02*
X14498753Y-10163460D01*
X14498753Y-10163460D02*
X14479706Y-10172984D01*
X14479706Y-10172984D02*
X14451134Y-10172984D01*
X14632087Y-10172984D02*
X14613039Y-10163460D01*
X14613039Y-10163460D02*
X14603515Y-10144412D01*
X14603515Y-10144412D02*
X14603515Y-9972984D01*
X14784468Y-10163460D02*
X14765420Y-10172984D01*
X14765420Y-10172984D02*
X14727325Y-10172984D01*
X14727325Y-10172984D02*
X14708277Y-10163460D01*
X14708277Y-10163460D02*
X14698753Y-10144412D01*
X14698753Y-10144412D02*
X14698753Y-10068222D01*
X14698753Y-10068222D02*
X14708277Y-10049174D01*
X14708277Y-10049174D02*
X14727325Y-10039650D01*
X14727325Y-10039650D02*
X14765420Y-10039650D01*
X14765420Y-10039650D02*
X14784468Y-10049174D01*
X14784468Y-10049174D02*
X14793991Y-10068222D01*
X14793991Y-10068222D02*
X14793991Y-10087270D01*
X14793991Y-10087270D02*
X14698753Y-10106317D01*
X14870182Y-10163460D02*
X14889230Y-10172984D01*
X14889230Y-10172984D02*
X14927325Y-10172984D01*
X14927325Y-10172984D02*
X14946372Y-10163460D01*
X14946372Y-10163460D02*
X14955896Y-10144412D01*
X14955896Y-10144412D02*
X14955896Y-10134889D01*
X14955896Y-10134889D02*
X14946372Y-10115841D01*
X14946372Y-10115841D02*
X14927325Y-10106317D01*
X14927325Y-10106317D02*
X14898753Y-10106317D01*
X14898753Y-10106317D02*
X14879706Y-10096793D01*
X14879706Y-10096793D02*
X14870182Y-10077746D01*
X14870182Y-10077746D02*
X14870182Y-10068222D01*
X14870182Y-10068222D02*
X14879706Y-10049174D01*
X14879706Y-10049174D02*
X14898753Y-10039650D01*
X14898753Y-10039650D02*
X14927325Y-10039650D01*
X14927325Y-10039650D02*
X14946372Y-10049174D01*
X15022563Y-10249174D02*
X15032087Y-10239650D01*
X15032087Y-10239650D02*
X15051134Y-10211079D01*
X15051134Y-10211079D02*
X15060658Y-10192031D01*
X15060658Y-10192031D02*
X15070182Y-10163460D01*
X15070182Y-10163460D02*
X15079706Y-10115841D01*
X15079706Y-10115841D02*
X15079706Y-10077746D01*
X15079706Y-10077746D02*
X15070182Y-10030127D01*
X15070182Y-10030127D02*
X15060658Y-10001555D01*
X15060658Y-10001555D02*
X15051134Y-9982508D01*
X15051134Y-9982508D02*
X15032087Y-9953936D01*
X15032087Y-9953936D02*
X15022563Y-9944412D01*
X15384468Y-10249174D02*
X15374944Y-10239650D01*
X15374944Y-10239650D02*
X15355896Y-10211079D01*
X15355896Y-10211079D02*
X15346372Y-10192031D01*
X15346372Y-10192031D02*
X15336849Y-10163460D01*
X15336849Y-10163460D02*
X15327325Y-10115841D01*
X15327325Y-10115841D02*
X15327325Y-10077746D01*
X15327325Y-10077746D02*
X15336849Y-10030127D01*
X15336849Y-10030127D02*
X15346372Y-10001555D01*
X15346372Y-10001555D02*
X15355896Y-9982508D01*
X15355896Y-9982508D02*
X15374944Y-9953936D01*
X15374944Y-9953936D02*
X15384468Y-9944412D01*
X15460658Y-10039650D02*
X15460658Y-10172984D01*
X15460658Y-10058698D02*
X15470182Y-10049174D01*
X15470182Y-10049174D02*
X15489230Y-10039650D01*
X15489230Y-10039650D02*
X15517801Y-10039650D01*
X15517801Y-10039650D02*
X15536849Y-10049174D01*
X15536849Y-10049174D02*
X15546372Y-10068222D01*
X15546372Y-10068222D02*
X15546372Y-10172984D01*
X15670182Y-10172984D02*
X15651134Y-10163460D01*
X15651134Y-10163460D02*
X15641611Y-10153936D01*
X15641611Y-10153936D02*
X15632087Y-10134889D01*
X15632087Y-10134889D02*
X15632087Y-10077746D01*
X15632087Y-10077746D02*
X15641611Y-10058698D01*
X15641611Y-10058698D02*
X15651134Y-10049174D01*
X15651134Y-10049174D02*
X15670182Y-10039650D01*
X15670182Y-10039650D02*
X15698753Y-10039650D01*
X15698753Y-10039650D02*
X15717801Y-10049174D01*
X15717801Y-10049174D02*
X15727325Y-10058698D01*
X15727325Y-10058698D02*
X15736849Y-10077746D01*
X15736849Y-10077746D02*
X15736849Y-10134889D01*
X15736849Y-10134889D02*
X15727325Y-10153936D01*
X15727325Y-10153936D02*
X15717801Y-10163460D01*
X15717801Y-10163460D02*
X15698753Y-10172984D01*
X15698753Y-10172984D02*
X15670182Y-10172984D01*
X15793992Y-10039650D02*
X15870182Y-10039650D01*
X15822563Y-9972984D02*
X15822563Y-10144412D01*
X15822563Y-10144412D02*
X15832087Y-10163460D01*
X15832087Y-10163460D02*
X15851134Y-10172984D01*
X15851134Y-10172984D02*
X15870182Y-10172984D01*
X16089230Y-10039650D02*
X16089230Y-10239650D01*
X16089230Y-10049174D02*
X16108277Y-10039650D01*
X16108277Y-10039650D02*
X16146373Y-10039650D01*
X16146373Y-10039650D02*
X16165420Y-10049174D01*
X16165420Y-10049174D02*
X16174944Y-10058698D01*
X16174944Y-10058698D02*
X16184468Y-10077746D01*
X16184468Y-10077746D02*
X16184468Y-10134889D01*
X16184468Y-10134889D02*
X16174944Y-10153936D01*
X16174944Y-10153936D02*
X16165420Y-10163460D01*
X16165420Y-10163460D02*
X16146373Y-10172984D01*
X16146373Y-10172984D02*
X16108277Y-10172984D01*
X16108277Y-10172984D02*
X16089230Y-10163460D01*
X16298753Y-10172984D02*
X16279706Y-10163460D01*
X16279706Y-10163460D02*
X16270182Y-10144412D01*
X16270182Y-10144412D02*
X16270182Y-9972984D01*
X16460658Y-10172984D02*
X16460658Y-10068222D01*
X16460658Y-10068222D02*
X16451134Y-10049174D01*
X16451134Y-10049174D02*
X16432087Y-10039650D01*
X16432087Y-10039650D02*
X16393992Y-10039650D01*
X16393992Y-10039650D02*
X16374944Y-10049174D01*
X16460658Y-10163460D02*
X16441611Y-10172984D01*
X16441611Y-10172984D02*
X16393992Y-10172984D01*
X16393992Y-10172984D02*
X16374944Y-10163460D01*
X16374944Y-10163460D02*
X16365420Y-10144412D01*
X16365420Y-10144412D02*
X16365420Y-10125365D01*
X16365420Y-10125365D02*
X16374944Y-10106317D01*
X16374944Y-10106317D02*
X16393992Y-10096793D01*
X16393992Y-10096793D02*
X16441611Y-10096793D01*
X16441611Y-10096793D02*
X16460658Y-10087270D01*
X16527325Y-10039650D02*
X16603515Y-10039650D01*
X16555896Y-9972984D02*
X16555896Y-10144412D01*
X16555896Y-10144412D02*
X16565420Y-10163460D01*
X16565420Y-10163460D02*
X16584468Y-10172984D01*
X16584468Y-10172984D02*
X16603515Y-10172984D01*
X16746373Y-10163460D02*
X16727325Y-10172984D01*
X16727325Y-10172984D02*
X16689230Y-10172984D01*
X16689230Y-10172984D02*
X16670182Y-10163460D01*
X16670182Y-10163460D02*
X16660658Y-10144412D01*
X16660658Y-10144412D02*
X16660658Y-10068222D01*
X16660658Y-10068222D02*
X16670182Y-10049174D01*
X16670182Y-10049174D02*
X16689230Y-10039650D01*
X16689230Y-10039650D02*
X16727325Y-10039650D01*
X16727325Y-10039650D02*
X16746373Y-10049174D01*
X16746373Y-10049174D02*
X16755896Y-10068222D01*
X16755896Y-10068222D02*
X16755896Y-10087270D01*
X16755896Y-10087270D02*
X16660658Y-10106317D01*
X16927325Y-10172984D02*
X16927325Y-9972984D01*
X16927325Y-10163460D02*
X16908277Y-10172984D01*
X16908277Y-10172984D02*
X16870182Y-10172984D01*
X16870182Y-10172984D02*
X16851135Y-10163460D01*
X16851135Y-10163460D02*
X16841611Y-10153936D01*
X16841611Y-10153936D02*
X16832087Y-10134889D01*
X16832087Y-10134889D02*
X16832087Y-10077746D01*
X16832087Y-10077746D02*
X16841611Y-10058698D01*
X16841611Y-10058698D02*
X16851135Y-10049174D01*
X16851135Y-10049174D02*
X16870182Y-10039650D01*
X16870182Y-10039650D02*
X16908277Y-10039650D01*
X16908277Y-10039650D02*
X16927325Y-10049174D01*
X17003516Y-10249174D02*
X17013039Y-10239650D01*
X17013039Y-10239650D02*
X17032087Y-10211079D01*
X17032087Y-10211079D02*
X17041611Y-10192031D01*
X17041611Y-10192031D02*
X17051135Y-10163460D01*
X17051135Y-10163460D02*
X17060658Y-10115841D01*
X17060658Y-10115841D02*
X17060658Y-10077746D01*
X17060658Y-10077746D02*
X17051135Y-10030127D01*
X17051135Y-10030127D02*
X17041611Y-10001555D01*
X17041611Y-10001555D02*
X17032087Y-9982508D01*
X17032087Y-9982508D02*
X17013039Y-9953936D01*
X17013039Y-9953936D02*
X17003516Y-9944412D01*
M02*
