M48
; DRILL file {KiCad 8.0.1} date 2024-07-15T00:54:38+0600
; FORMAT={-:-/ absolute / metric / decimal}
; #@! TF.CreationDate,2024-07-15T00:54:38+06:00
; #@! TF.GenerationSoftware,Kicad,Pcbnew,8.0.1
; #@! TF.FileFunction,Plated,1,2,PTH
FMAT,2
METRIC
; #@! TA.AperFunction,Plated,PTH,ComponentDrill
T1C0.200
; #@! TA.AperFunction,Plated,PTH,ViaDrill
T2C0.300
; #@! TA.AperFunction,Plated,PTH,ComponentDrill
T3C0.600
; #@! TA.AperFunction,Plated,PTH,ComponentDrill
T4C0.750
; #@! TA.AperFunction,Plated,PTH,ComponentDrill
T5C1.000
%
G90
G05
T1
X139.85Y-59.56
X139.85Y-60.96
X140.55Y-58.86
X140.55Y-60.26
X140.55Y-61.66
X141.25Y-59.56
X141.25Y-60.96
X141.95Y-58.86
X141.95Y-60.26
X141.95Y-61.66
X142.65Y-59.56
X142.65Y-60.96
T2
X120.75Y-59.5
X121.0Y-69.75
X122.0Y-59.25
X126.25Y-68.25
X127.5Y-68.25
X127.5Y-80.5
X127.75Y-76.5
X128.5Y-67.75
X129.497Y-67.758
X130.0Y-70.0
X130.0Y-73.75
X130.5Y-67.25
X130.75Y-61.275
X130.775Y-62.75
X140.0Y-81.75
X141.0Y-73.0
X141.588Y-84.912
X143.0Y-81.75
X144.0Y-73.25
X145.25Y-83.5
X145.75Y-75.75
X145.75Y-77.75
X145.75Y-79.0
X145.75Y-80.5
X145.75Y-82.0
X146.25Y-73.5
X146.25Y-83.5
X147.25Y-82.75
X148.5Y-53.5
X148.75Y-85.25
X154.0Y-62.0
X157.25Y-77.25
X158.25Y-68.5
X161.0Y-56.0
X161.5Y-67.25
X161.75Y-70.5
X162.0Y-72.5
X162.5Y-78.5
X165.0Y-59.0
X170.25Y-67.75
X171.0Y-67.75
X171.75Y-69.5
X171.75Y-70.5
T4
X155.23Y-53.64
X155.23Y-65.64
X156.5Y-53.64
X156.5Y-65.64
X157.77Y-53.64
X157.77Y-65.64
T5
X110.306Y-60.573
X110.306Y-82.177
X112.073Y-58.806
X112.073Y-83.944
X112.95Y-70.25
X112.95Y-72.75
X173.427Y-83.944
X173.677Y-58.806
X175.194Y-82.177
X175.444Y-60.573
T3
G00X175.345Y-66.43
M15
G01X176.445Y-66.43
M16
G05
G00X175.345Y-75.07
M15
G01X176.445Y-75.07
M16
G05
G00X179.675Y-66.43
M15
G01X180.475Y-66.43
M16
G05
G00X179.675Y-75.07
M15
G01X180.475Y-75.07
M16
G05
M30
