%TF.GenerationSoftware,KiCad,Pcbnew,8.0.1*%
%TF.CreationDate,2024-07-15T00:54:35+06:00*%
%TF.ProjectId,saucey,73617563-6579-42e6-9b69-6361645f7063,1.0*%
%TF.SameCoordinates,Original*%
%TF.FileFunction,Soldermask,Top*%
%TF.FilePolarity,Negative*%
%FSLAX46Y46*%
G04 Gerber Fmt 4.6, Leading zero omitted, Abs format (unit mm)*
G04 Created by KiCad (PCBNEW 8.0.1) date 2024-07-15 00:54:35*
%MOMM*%
%LPD*%
G01*
G04 APERTURE LIST*
G04 Aperture macros list*
%AMRoundRect*
0 Rectangle with rounded corners*
0 $1 Rounding radius*
0 $2 $3 $4 $5 $6 $7 $8 $9 X,Y pos of 4 corners*
0 Add a 4 corners polygon primitive as box body*
4,1,4,$2,$3,$4,$5,$6,$7,$8,$9,$2,$3,0*
0 Add four circle primitives for the rounded corners*
1,1,$1+$1,$2,$3*
1,1,$1+$1,$4,$5*
1,1,$1+$1,$6,$7*
1,1,$1+$1,$8,$9*
0 Add four rect primitives between the rounded corners*
20,1,$1+$1,$2,$3,$4,$5,0*
20,1,$1+$1,$4,$5,$6,$7,0*
20,1,$1+$1,$6,$7,$8,$9,0*
20,1,$1+$1,$8,$9,$2,$3,0*%
%AMHorizOval*
0 Thick line with rounded ends*
0 $1 width*
0 $2 $3 position (X,Y) of the first rounded end (center of the circle)*
0 $4 $5 position (X,Y) of the second rounded end (center of the circle)*
0 Add line between two ends*
20,1,$1,$2,$3,$4,$5,0*
0 Add two circle primitives to create the rounded ends*
1,1,$1,$2,$3*
1,1,$1,$4,$5*%
%AMRotRect*
0 Rectangle, with rotation*
0 The origin of the aperture is its center*
0 $1 length*
0 $2 width*
0 $3 Rotation angle, in degrees counterclockwise*
0 Add horizontal line*
21,1,$1,$2,0,0,$3*%
G04 Aperture macros list end*
%ADD10RoundRect,0.225000X-0.225000X-0.250000X0.225000X-0.250000X0.225000X0.250000X-0.225000X0.250000X0*%
%ADD11RoundRect,0.225000X0.250000X-0.225000X0.250000X0.225000X-0.250000X0.225000X-0.250000X-0.225000X0*%
%ADD12R,1.700000X0.900000*%
%ADD13C,0.650000*%
%ADD14RoundRect,0.150000X0.425000X-0.150000X0.425000X0.150000X-0.425000X0.150000X-0.425000X-0.150000X0*%
%ADD15RoundRect,0.075000X0.500000X-0.075000X0.500000X0.075000X-0.500000X0.075000X-0.500000X-0.075000X0*%
%ADD16O,2.100000X1.000000*%
%ADD17O,1.800000X1.000000*%
%ADD18RoundRect,0.075000X0.075000X-0.350000X0.075000X0.350000X-0.075000X0.350000X-0.075000X-0.350000X0*%
%ADD19RoundRect,0.075000X-0.350000X-0.075000X0.350000X-0.075000X0.350000X0.075000X-0.350000X0.075000X0*%
%ADD20RoundRect,0.250000X0.106066X-0.954594X0.954594X-0.106066X-0.106066X0.954594X-0.954594X0.106066X0*%
%ADD21HorizOval,1.700000X-0.106066X0.106066X0.106066X-0.106066X0*%
%ADD22RoundRect,0.250000X-0.106066X0.954594X-0.954594X0.106066X0.106066X-0.954594X0.954594X-0.106066X0*%
%ADD23RoundRect,0.250000X0.954594X0.106066X0.106066X0.954594X-0.954594X-0.106066X-0.106066X-0.954594X0*%
%ADD24HorizOval,1.700000X0.106066X0.106066X-0.106066X-0.106066X0*%
%ADD25RoundRect,0.250000X-0.954594X-0.106066X-0.106066X-0.954594X0.954594X0.106066X0.106066X0.954594X0*%
%ADD26HorizOval,1.700000X-0.106066X-0.106066X0.106066X0.106066X0*%
%ADD27RoundRect,0.250000X-0.750000X0.600000X-0.750000X-0.600000X0.750000X-0.600000X0.750000X0.600000X0*%
%ADD28O,2.000000X1.700000*%
%ADD29RoundRect,0.250000X0.325000X1.100000X-0.325000X1.100000X-0.325000X-1.100000X0.325000X-1.100000X0*%
%ADD30RoundRect,0.150000X-0.150000X0.587500X-0.150000X-0.587500X0.150000X-0.587500X0.150000X0.587500X0*%
%ADD31C,2.200000*%
%ADD32RoundRect,0.250000X0.450000X-0.262500X0.450000X0.262500X-0.450000X0.262500X-0.450000X-0.262500X0*%
%ADD33RoundRect,0.250000X-0.262500X-0.450000X0.262500X-0.450000X0.262500X0.450000X-0.262500X0.450000X0*%
%ADD34R,1.050000X1.500000*%
%ADD35O,1.050000X1.500000*%
%ADD36R,1.500000X0.900000*%
%ADD37R,0.900000X1.500000*%
%ADD38C,0.600000*%
%ADD39R,3.900000X3.900000*%
%ADD40RoundRect,0.250000X-0.450000X0.262500X-0.450000X-0.262500X0.450000X-0.262500X0.450000X0.262500X0*%
%ADD41RoundRect,0.225000X-0.250000X0.225000X-0.250000X-0.225000X0.250000X-0.225000X0.250000X0.225000X0*%
%ADD42RoundRect,0.225000X0.106066X-0.424264X0.424264X-0.106066X-0.106066X0.424264X-0.424264X0.106066X0*%
%ADD43RoundRect,0.250000X0.325000X0.450000X-0.325000X0.450000X-0.325000X-0.450000X0.325000X-0.450000X0*%
%ADD44RoundRect,0.250000X-0.312500X-0.625000X0.312500X-0.625000X0.312500X0.625000X-0.312500X0.625000X0*%
%ADD45RoundRect,0.250000X0.312500X1.075000X-0.312500X1.075000X-0.312500X-1.075000X0.312500X-1.075000X0*%
%ADD46RoundRect,0.250000X-0.325000X-0.450000X0.325000X-0.450000X0.325000X0.450000X-0.325000X0.450000X0*%
%ADD47RoundRect,0.140000X0.021213X-0.219203X0.219203X-0.021213X-0.021213X0.219203X-0.219203X0.021213X0*%
%ADD48RoundRect,0.140000X-0.140000X-0.170000X0.140000X-0.170000X0.140000X0.170000X-0.140000X0.170000X0*%
%ADD49RoundRect,0.250000X0.312500X0.625000X-0.312500X0.625000X-0.312500X-0.625000X0.312500X-0.625000X0*%
%ADD50RoundRect,0.140000X-0.170000X0.140000X-0.170000X-0.140000X0.170000X-0.140000X0.170000X0.140000X0*%
%ADD51RoundRect,0.250000X-0.325000X-1.100000X0.325000X-1.100000X0.325000X1.100000X-0.325000X1.100000X0*%
%ADD52RoundRect,0.140000X0.219203X0.021213X0.021213X0.219203X-0.219203X-0.021213X-0.021213X-0.219203X0*%
%ADD53RoundRect,0.225000X0.424264X0.106066X0.106066X0.424264X-0.424264X-0.106066X-0.106066X-0.424264X0*%
%ADD54RoundRect,0.062500X-0.194454X-0.282843X0.282843X0.194454X0.194454X0.282843X-0.282843X-0.194454X0*%
%ADD55RoundRect,0.062500X0.194454X-0.282843X0.282843X-0.194454X-0.194454X0.282843X-0.282843X0.194454X0*%
%ADD56RotRect,3.350000X3.350000X45.000000*%
%ADD57RoundRect,0.375000X-0.625000X-0.375000X0.625000X-0.375000X0.625000X0.375000X-0.625000X0.375000X0*%
%ADD58RoundRect,0.500000X-0.500000X-1.400000X0.500000X-1.400000X0.500000X1.400000X-0.500000X1.400000X0*%
%ADD59RoundRect,0.250000X0.262500X0.450000X-0.262500X0.450000X-0.262500X-0.450000X0.262500X-0.450000X0*%
G04 APERTURE END LIST*
D10*
%TO.C,C7*%
X161975000Y-68706928D03*
X163525000Y-68706928D03*
%TD*%
D11*
%TO.C,C1*%
X130000000Y-54005000D03*
X130000000Y-52455000D03*
%TD*%
D12*
%TO.C,SW2*%
X157000000Y-73950000D03*
X157000000Y-70550000D03*
%TD*%
%TO.C,SW1*%
X127250000Y-70250001D03*
X127250000Y-73650001D03*
%TD*%
D13*
%TO.C,P1*%
X176395000Y-73640000D03*
X176395000Y-67860000D03*
D14*
X175320000Y-73950000D03*
X175320000Y-73150000D03*
D15*
X175320000Y-72000000D03*
X175320000Y-71000000D03*
X175320000Y-70500000D03*
X175320000Y-69500000D03*
D14*
X175320000Y-68350000D03*
X175320000Y-67550000D03*
X175320000Y-67550000D03*
X175320000Y-68350000D03*
D15*
X175320000Y-69000000D03*
X175320000Y-70000000D03*
X175320000Y-71500000D03*
X175320000Y-72500000D03*
D14*
X175320000Y-73150000D03*
X175320000Y-73950000D03*
D16*
X175895000Y-75070000D03*
D17*
X180075000Y-75070000D03*
D16*
X175895000Y-66430000D03*
D17*
X180075000Y-66430000D03*
%TD*%
D18*
%TO.C,U4*%
X140750000Y-74500000D03*
X141250000Y-74500000D03*
X141750000Y-74500000D03*
X142250000Y-74500000D03*
X142750000Y-74500000D03*
X143250000Y-74500000D03*
D19*
X143950000Y-75200000D03*
X143950000Y-75700000D03*
X143950000Y-76200000D03*
X143950000Y-76700000D03*
X143950000Y-77200000D03*
X143950000Y-77700000D03*
D18*
X143250000Y-78400000D03*
X142750000Y-78400000D03*
X142250000Y-78400000D03*
X141750000Y-78400000D03*
X141250000Y-78400000D03*
X140750000Y-78400000D03*
D19*
X140050000Y-77700000D03*
X140050000Y-77200000D03*
X140050000Y-76700000D03*
X140050000Y-76200000D03*
X140050000Y-75700000D03*
X140050000Y-75200000D03*
%TD*%
D20*
%TO.C,M5*%
X173426598Y-83944365D03*
D21*
X175194365Y-82176598D03*
%TD*%
D22*
%TO.C,M4*%
X112073402Y-58805635D03*
D21*
X110305635Y-60573402D03*
%TD*%
D23*
%TO.C,M3*%
X175444365Y-60573402D03*
D24*
X173676598Y-58805635D03*
%TD*%
D25*
%TO.C,M2*%
X110305635Y-82176598D03*
D26*
X112073402Y-83944365D03*
%TD*%
D27*
%TO.C,J1*%
X112950000Y-70250000D03*
D28*
X112950000Y-72750000D03*
%TD*%
D29*
%TO.C,C4*%
X131225001Y-65025000D03*
X128274999Y-65025000D03*
%TD*%
D30*
%TO.C,Q7*%
X149450000Y-78124999D03*
X147550000Y-78124999D03*
X148500000Y-80000000D03*
%TD*%
D31*
%TO.C,REF\u002A\u002A*%
X169000000Y-88500000D03*
%TD*%
D32*
%TO.C,R8*%
X143000000Y-83087500D03*
X143000000Y-84912500D03*
%TD*%
D30*
%TO.C,Q4*%
X136950000Y-78124999D03*
X135050000Y-78124999D03*
X136000000Y-80000000D03*
%TD*%
D33*
%TO.C,R7*%
X146837500Y-87000000D03*
X148662500Y-87000000D03*
%TD*%
D34*
%TO.C,Q2*%
X157770001Y-65640001D03*
D35*
X156500000Y-65640001D03*
X155230001Y-65640001D03*
%TD*%
D36*
%TO.C,U1*%
X134000000Y-52540000D03*
X134000000Y-53810000D03*
X134000000Y-55080000D03*
X134000000Y-56350000D03*
X134000000Y-57620000D03*
X134000000Y-58890000D03*
X134000000Y-60160000D03*
X134000000Y-61430000D03*
X134000000Y-62700000D03*
X134000000Y-63970000D03*
X134000000Y-65240000D03*
X134000000Y-66510000D03*
X134000000Y-67780000D03*
X134000000Y-69050000D03*
D37*
X135765000Y-70300000D03*
X137035000Y-70300000D03*
X138305000Y-70300000D03*
X139575000Y-70300000D03*
X140845000Y-70300000D03*
X142115000Y-70300000D03*
X143385000Y-70300000D03*
X144655000Y-70300000D03*
X145925000Y-70300000D03*
X147195000Y-70300000D03*
X148465000Y-70300000D03*
X149735000Y-70300000D03*
D36*
X151500000Y-69050000D03*
X151500000Y-67780000D03*
X151500000Y-66510000D03*
X151500000Y-65240000D03*
X151500000Y-63970000D03*
X151500000Y-62700000D03*
X151500000Y-61430000D03*
X151500000Y-60160000D03*
X151500000Y-58890000D03*
X151500000Y-57620000D03*
X151500000Y-56350000D03*
X151500000Y-55080000D03*
X151500000Y-53810000D03*
X151500000Y-52540000D03*
D38*
X139850000Y-59560000D03*
X139850000Y-60960000D03*
X140550000Y-58860000D03*
X140550000Y-60260000D03*
X140550000Y-61660000D03*
X141250000Y-59560000D03*
D39*
X141250000Y-60260000D03*
D38*
X141250000Y-60960000D03*
X141950000Y-58860000D03*
X141950000Y-60260000D03*
X141950000Y-61660000D03*
X142650000Y-59560000D03*
X142650000Y-60960000D03*
%TD*%
D40*
%TO.C,R10*%
X161359999Y-52357500D03*
X161359999Y-54182500D03*
%TD*%
D33*
%TO.C,R14*%
X130675000Y-75000000D03*
X132500000Y-75000000D03*
%TD*%
D30*
%TO.C,Q5*%
X153950000Y-78124999D03*
X152050000Y-78124999D03*
X153000000Y-80000000D03*
%TD*%
D41*
%TO.C,C9*%
X160250000Y-71475000D03*
X160250000Y-73025000D03*
%TD*%
D11*
%TO.C,C8*%
X124250000Y-72775000D03*
X124250000Y-71225000D03*
%TD*%
D42*
%TO.C,D4*%
X113767767Y-63462132D03*
X116101219Y-61128680D03*
%TD*%
D32*
%TO.C,R1*%
X140000000Y-83000000D03*
X140000000Y-84825000D03*
%TD*%
D43*
%TO.C,D6*%
X121274999Y-53750000D03*
X119225001Y-53750000D03*
%TD*%
D42*
%TO.C,D5*%
X169083274Y-81666726D03*
X171416726Y-79333274D03*
%TD*%
D44*
%TO.C,R4*%
X165281830Y-74181928D03*
X168206830Y-74181928D03*
%TD*%
D45*
%TO.C,R3*%
X168206830Y-71206928D03*
X165281830Y-71206928D03*
%TD*%
D46*
%TO.C,D1*%
X142725001Y-87000000D03*
X144774999Y-87000000D03*
%TD*%
D40*
%TO.C,R11*%
X119250000Y-57587500D03*
X119250000Y-59412500D03*
%TD*%
D33*
%TO.C,R15*%
X147587500Y-75000000D03*
X149412500Y-75000000D03*
%TD*%
D40*
%TO.C,R2*%
X121000000Y-71162499D03*
X121000000Y-72987499D03*
%TD*%
D47*
%TO.C,C14*%
X168410589Y-79589411D03*
X169089411Y-78910589D03*
%TD*%
D48*
%TO.C,C6*%
X166264330Y-76431928D03*
X167224330Y-76431928D03*
%TD*%
D33*
%TO.C,R12*%
X135087500Y-75000000D03*
X136912500Y-75000000D03*
%TD*%
%TO.C,R13*%
X152087500Y-75000000D03*
X153912500Y-75000000D03*
%TD*%
D31*
%TO.C,REF\u002A\u002A*%
X116500000Y-88500000D03*
%TD*%
D49*
%TO.C,R5*%
X169206830Y-67956928D03*
X166281830Y-67956928D03*
%TD*%
D50*
%TO.C,C5*%
X122750000Y-71594999D03*
X122750000Y-72554999D03*
%TD*%
D51*
%TO.C,C3*%
X122774999Y-65025000D03*
X125725001Y-65025000D03*
%TD*%
D52*
%TO.C,C12*%
X170089411Y-63589411D03*
X169410589Y-62910589D03*
%TD*%
D31*
%TO.C,REF\u002A\u002A*%
X116250000Y-54000000D03*
%TD*%
D53*
%TO.C,D3*%
X172454594Y-63277639D03*
X170121142Y-60944187D03*
%TD*%
D47*
%TO.C,C13*%
X115845082Y-63884817D03*
X116523904Y-63205995D03*
%TD*%
D53*
%TO.C,D2*%
X116666726Y-81416726D03*
X114333274Y-79083274D03*
%TD*%
D54*
%TO.C,U3*%
X161123009Y-64171751D03*
X161476563Y-64525305D03*
X161830116Y-64878858D03*
X162183669Y-65232412D03*
X162537223Y-65585965D03*
X162890776Y-65939518D03*
X163244330Y-66293072D03*
D55*
X164587832Y-66293072D03*
X164941386Y-65939518D03*
X165294939Y-65585965D03*
X165648493Y-65232412D03*
X166002046Y-64878858D03*
X166355599Y-64525305D03*
X166709153Y-64171751D03*
D54*
X166709153Y-62828249D03*
X166355599Y-62474695D03*
X166002046Y-62121142D03*
X165648493Y-61767588D03*
X165294939Y-61414035D03*
X164941386Y-61060482D03*
X164587832Y-60706928D03*
D55*
X163244330Y-60706928D03*
X162890776Y-61060482D03*
X162537223Y-61414035D03*
X162183669Y-61767588D03*
X161830116Y-62121142D03*
X161476563Y-62474695D03*
X161123009Y-62828249D03*
D56*
X163916081Y-63500000D03*
%TD*%
D34*
%TO.C,Q1*%
X157770001Y-53640001D03*
D35*
X156500000Y-53640001D03*
X155230001Y-53640001D03*
%TD*%
D52*
%TO.C,C11*%
X117117050Y-79339411D03*
X116438228Y-78660589D03*
%TD*%
D11*
%TO.C,C2*%
X131750000Y-53775000D03*
X131750000Y-52225000D03*
%TD*%
D30*
%TO.C,Q6*%
X132450000Y-78124999D03*
X130550000Y-78124999D03*
X131500000Y-80000000D03*
%TD*%
D31*
%TO.C,REF\u002A\u002A*%
X168750000Y-54000000D03*
%TD*%
D57*
%TO.C,U2*%
X124100000Y-56200000D03*
X124100000Y-58500000D03*
D58*
X130400000Y-58500000D03*
D57*
X124100000Y-60800000D03*
%TD*%
D59*
%TO.C,R9*%
X157772499Y-62270000D03*
X155947499Y-62270000D03*
%TD*%
D33*
%TO.C,R6*%
X168081830Y-65706928D03*
X169906830Y-65706928D03*
%TD*%
M02*
