%TF.GenerationSoftware,KiCad,Pcbnew,8.0.1*%
%TF.CreationDate,2024-07-15T00:54:35+06:00*%
%TF.ProjectId,saucey,73617563-6579-42e6-9b69-6361645f7063,1.0*%
%TF.SameCoordinates,Original*%
%TF.FileFunction,Legend,Top*%
%TF.FilePolarity,Positive*%
%FSLAX46Y46*%
G04 Gerber Fmt 4.6, Leading zero omitted, Abs format (unit mm)*
G04 Created by KiCad (PCBNEW 8.0.1) date 2024-07-15 00:54:35*
%MOMM*%
%LPD*%
G01*
G04 APERTURE LIST*
%ADD10C,0.100000*%
%ADD11C,0.120000*%
%ADD12C,0.150000*%
%ADD13C,0.070000*%
%ADD14C,0.000000*%
G04 APERTURE END LIST*
D10*
X160250000Y-64000000D02*
G75*
G02*
X159750000Y-64000000I-250000J0D01*
G01*
X159750000Y-64000000D02*
G75*
G02*
X160250000Y-64000000I250000J0D01*
G01*
X139000000Y-75250000D02*
G75*
G02*
X138500000Y-75250000I-250000J0D01*
G01*
X138500000Y-75250000D02*
G75*
G02*
X139000000Y-75250000I250000J0D01*
G01*
X126103553Y-55750000D02*
G75*
G02*
X125396447Y-55750000I-353553J0D01*
G01*
X125396447Y-55750000D02*
G75*
G02*
X126103553Y-55750000I353553J0D01*
G01*
X135750000Y-52250000D02*
G75*
G02*
X135250000Y-52250000I-250000J0D01*
G01*
X135250000Y-52250000D02*
G75*
G02*
X135750000Y-52250000I250000J0D01*
G01*
D11*
X163145613Y-70091426D02*
X163112280Y-70124760D01*
X163112280Y-70124760D02*
X163012280Y-70158093D01*
X163012280Y-70158093D02*
X162945613Y-70158093D01*
X162945613Y-70158093D02*
X162845613Y-70124760D01*
X162845613Y-70124760D02*
X162778947Y-70058093D01*
X162778947Y-70058093D02*
X162745613Y-69991426D01*
X162745613Y-69991426D02*
X162712280Y-69858093D01*
X162712280Y-69858093D02*
X162712280Y-69758093D01*
X162712280Y-69758093D02*
X162745613Y-69624760D01*
X162745613Y-69624760D02*
X162778947Y-69558093D01*
X162778947Y-69558093D02*
X162845613Y-69491426D01*
X162845613Y-69491426D02*
X162945613Y-69458093D01*
X162945613Y-69458093D02*
X163012280Y-69458093D01*
X163012280Y-69458093D02*
X163112280Y-69491426D01*
X163112280Y-69491426D02*
X163145613Y-69524760D01*
X163378947Y-69458093D02*
X163845613Y-69458093D01*
X163845613Y-69458093D02*
X163545613Y-70158093D01*
D10*
X105053884Y-72991466D02*
X105815789Y-72991466D01*
X105434836Y-73372419D02*
X105434836Y-72610514D01*
D12*
X119789160Y-87259875D02*
X119789160Y-87450351D01*
X120170112Y-87259875D02*
X120170112Y-87450351D01*
X120551065Y-88212256D02*
X120693922Y-88259875D01*
X120693922Y-88259875D02*
X120932017Y-88259875D01*
X120932017Y-88259875D02*
X121027255Y-88212256D01*
X121027255Y-88212256D02*
X121074874Y-88164636D01*
X121074874Y-88164636D02*
X121122493Y-88069398D01*
X121122493Y-88069398D02*
X121122493Y-87974160D01*
X121122493Y-87974160D02*
X121074874Y-87878922D01*
X121074874Y-87878922D02*
X121027255Y-87831303D01*
X121027255Y-87831303D02*
X120932017Y-87783684D01*
X120932017Y-87783684D02*
X120741541Y-87736065D01*
X120741541Y-87736065D02*
X120646303Y-87688446D01*
X120646303Y-87688446D02*
X120598684Y-87640827D01*
X120598684Y-87640827D02*
X120551065Y-87545589D01*
X120551065Y-87545589D02*
X120551065Y-87450351D01*
X120551065Y-87450351D02*
X120598684Y-87355113D01*
X120598684Y-87355113D02*
X120646303Y-87307494D01*
X120646303Y-87307494D02*
X120741541Y-87259875D01*
X120741541Y-87259875D02*
X120979636Y-87259875D01*
X120979636Y-87259875D02*
X121122493Y-87307494D01*
X121979636Y-88259875D02*
X121979636Y-87736065D01*
X121979636Y-87736065D02*
X121932017Y-87640827D01*
X121932017Y-87640827D02*
X121836779Y-87593208D01*
X121836779Y-87593208D02*
X121646303Y-87593208D01*
X121646303Y-87593208D02*
X121551065Y-87640827D01*
X121979636Y-88212256D02*
X121884398Y-88259875D01*
X121884398Y-88259875D02*
X121646303Y-88259875D01*
X121646303Y-88259875D02*
X121551065Y-88212256D01*
X121551065Y-88212256D02*
X121503446Y-88117017D01*
X121503446Y-88117017D02*
X121503446Y-88021779D01*
X121503446Y-88021779D02*
X121551065Y-87926541D01*
X121551065Y-87926541D02*
X121646303Y-87878922D01*
X121646303Y-87878922D02*
X121884398Y-87878922D01*
X121884398Y-87878922D02*
X121979636Y-87831303D01*
X122884398Y-87593208D02*
X122884398Y-88259875D01*
X122455827Y-87593208D02*
X122455827Y-88117017D01*
X122455827Y-88117017D02*
X122503446Y-88212256D01*
X122503446Y-88212256D02*
X122598684Y-88259875D01*
X122598684Y-88259875D02*
X122741541Y-88259875D01*
X122741541Y-88259875D02*
X122836779Y-88212256D01*
X122836779Y-88212256D02*
X122884398Y-88164636D01*
X123789160Y-88212256D02*
X123693922Y-88259875D01*
X123693922Y-88259875D02*
X123503446Y-88259875D01*
X123503446Y-88259875D02*
X123408208Y-88212256D01*
X123408208Y-88212256D02*
X123360589Y-88164636D01*
X123360589Y-88164636D02*
X123312970Y-88069398D01*
X123312970Y-88069398D02*
X123312970Y-87783684D01*
X123312970Y-87783684D02*
X123360589Y-87688446D01*
X123360589Y-87688446D02*
X123408208Y-87640827D01*
X123408208Y-87640827D02*
X123503446Y-87593208D01*
X123503446Y-87593208D02*
X123693922Y-87593208D01*
X123693922Y-87593208D02*
X123789160Y-87640827D01*
X124598684Y-88212256D02*
X124503446Y-88259875D01*
X124503446Y-88259875D02*
X124312970Y-88259875D01*
X124312970Y-88259875D02*
X124217732Y-88212256D01*
X124217732Y-88212256D02*
X124170113Y-88117017D01*
X124170113Y-88117017D02*
X124170113Y-87736065D01*
X124170113Y-87736065D02*
X124217732Y-87640827D01*
X124217732Y-87640827D02*
X124312970Y-87593208D01*
X124312970Y-87593208D02*
X124503446Y-87593208D01*
X124503446Y-87593208D02*
X124598684Y-87640827D01*
X124598684Y-87640827D02*
X124646303Y-87736065D01*
X124646303Y-87736065D02*
X124646303Y-87831303D01*
X124646303Y-87831303D02*
X124170113Y-87926541D01*
X124979637Y-87593208D02*
X125217732Y-88259875D01*
X125455827Y-87593208D02*
X125217732Y-88259875D01*
X125217732Y-88259875D02*
X125122494Y-88497970D01*
X125122494Y-88497970D02*
X125074875Y-88545589D01*
X125074875Y-88545589D02*
X124979637Y-88593208D01*
X125789161Y-87259875D02*
X125789161Y-87450351D01*
X126170113Y-87259875D02*
X126170113Y-87450351D01*
X127693923Y-87736065D02*
X127360590Y-87736065D01*
X127360590Y-88259875D02*
X127360590Y-87259875D01*
X127360590Y-87259875D02*
X127836780Y-87259875D01*
X128360590Y-88259875D02*
X128265352Y-88212256D01*
X128265352Y-88212256D02*
X128217733Y-88117017D01*
X128217733Y-88117017D02*
X128217733Y-87259875D01*
X128741543Y-88259875D02*
X128741543Y-87593208D01*
X128741543Y-87259875D02*
X128693924Y-87307494D01*
X128693924Y-87307494D02*
X128741543Y-87355113D01*
X128741543Y-87355113D02*
X128789162Y-87307494D01*
X128789162Y-87307494D02*
X128741543Y-87259875D01*
X128741543Y-87259875D02*
X128741543Y-87355113D01*
X129646304Y-87593208D02*
X129646304Y-88402732D01*
X129646304Y-88402732D02*
X129598685Y-88497970D01*
X129598685Y-88497970D02*
X129551066Y-88545589D01*
X129551066Y-88545589D02*
X129455828Y-88593208D01*
X129455828Y-88593208D02*
X129312971Y-88593208D01*
X129312971Y-88593208D02*
X129217733Y-88545589D01*
X129646304Y-88212256D02*
X129551066Y-88259875D01*
X129551066Y-88259875D02*
X129360590Y-88259875D01*
X129360590Y-88259875D02*
X129265352Y-88212256D01*
X129265352Y-88212256D02*
X129217733Y-88164636D01*
X129217733Y-88164636D02*
X129170114Y-88069398D01*
X129170114Y-88069398D02*
X129170114Y-87783684D01*
X129170114Y-87783684D02*
X129217733Y-87688446D01*
X129217733Y-87688446D02*
X129265352Y-87640827D01*
X129265352Y-87640827D02*
X129360590Y-87593208D01*
X129360590Y-87593208D02*
X129551066Y-87593208D01*
X129551066Y-87593208D02*
X129646304Y-87640827D01*
X130122495Y-88259875D02*
X130122495Y-87259875D01*
X130551066Y-88259875D02*
X130551066Y-87736065D01*
X130551066Y-87736065D02*
X130503447Y-87640827D01*
X130503447Y-87640827D02*
X130408209Y-87593208D01*
X130408209Y-87593208D02*
X130265352Y-87593208D01*
X130265352Y-87593208D02*
X130170114Y-87640827D01*
X130170114Y-87640827D02*
X130122495Y-87688446D01*
X130884400Y-87593208D02*
X131265352Y-87593208D01*
X131027257Y-87259875D02*
X131027257Y-88117017D01*
X131027257Y-88117017D02*
X131074876Y-88212256D01*
X131074876Y-88212256D02*
X131170114Y-88259875D01*
X131170114Y-88259875D02*
X131265352Y-88259875D01*
X132932019Y-88164636D02*
X132884400Y-88212256D01*
X132884400Y-88212256D02*
X132741543Y-88259875D01*
X132741543Y-88259875D02*
X132646305Y-88259875D01*
X132646305Y-88259875D02*
X132503448Y-88212256D01*
X132503448Y-88212256D02*
X132408210Y-88117017D01*
X132408210Y-88117017D02*
X132360591Y-88021779D01*
X132360591Y-88021779D02*
X132312972Y-87831303D01*
X132312972Y-87831303D02*
X132312972Y-87688446D01*
X132312972Y-87688446D02*
X132360591Y-87497970D01*
X132360591Y-87497970D02*
X132408210Y-87402732D01*
X132408210Y-87402732D02*
X132503448Y-87307494D01*
X132503448Y-87307494D02*
X132646305Y-87259875D01*
X132646305Y-87259875D02*
X132741543Y-87259875D01*
X132741543Y-87259875D02*
X132884400Y-87307494D01*
X132884400Y-87307494D02*
X132932019Y-87355113D01*
X133503448Y-88259875D02*
X133408210Y-88212256D01*
X133408210Y-88212256D02*
X133360591Y-88164636D01*
X133360591Y-88164636D02*
X133312972Y-88069398D01*
X133312972Y-88069398D02*
X133312972Y-87783684D01*
X133312972Y-87783684D02*
X133360591Y-87688446D01*
X133360591Y-87688446D02*
X133408210Y-87640827D01*
X133408210Y-87640827D02*
X133503448Y-87593208D01*
X133503448Y-87593208D02*
X133646305Y-87593208D01*
X133646305Y-87593208D02*
X133741543Y-87640827D01*
X133741543Y-87640827D02*
X133789162Y-87688446D01*
X133789162Y-87688446D02*
X133836781Y-87783684D01*
X133836781Y-87783684D02*
X133836781Y-88069398D01*
X133836781Y-88069398D02*
X133789162Y-88164636D01*
X133789162Y-88164636D02*
X133741543Y-88212256D01*
X133741543Y-88212256D02*
X133646305Y-88259875D01*
X133646305Y-88259875D02*
X133503448Y-88259875D01*
X134265353Y-87593208D02*
X134265353Y-88259875D01*
X134265353Y-87688446D02*
X134312972Y-87640827D01*
X134312972Y-87640827D02*
X134408210Y-87593208D01*
X134408210Y-87593208D02*
X134551067Y-87593208D01*
X134551067Y-87593208D02*
X134646305Y-87640827D01*
X134646305Y-87640827D02*
X134693924Y-87736065D01*
X134693924Y-87736065D02*
X134693924Y-88259875D01*
X135027258Y-87593208D02*
X135408210Y-87593208D01*
X135170115Y-87259875D02*
X135170115Y-88117017D01*
X135170115Y-88117017D02*
X135217734Y-88212256D01*
X135217734Y-88212256D02*
X135312972Y-88259875D01*
X135312972Y-88259875D02*
X135408210Y-88259875D01*
X135741544Y-88259875D02*
X135741544Y-87593208D01*
X135741544Y-87783684D02*
X135789163Y-87688446D01*
X135789163Y-87688446D02*
X135836782Y-87640827D01*
X135836782Y-87640827D02*
X135932020Y-87593208D01*
X135932020Y-87593208D02*
X136027258Y-87593208D01*
X136503449Y-88259875D02*
X136408211Y-88212256D01*
X136408211Y-88212256D02*
X136360592Y-88164636D01*
X136360592Y-88164636D02*
X136312973Y-88069398D01*
X136312973Y-88069398D02*
X136312973Y-87783684D01*
X136312973Y-87783684D02*
X136360592Y-87688446D01*
X136360592Y-87688446D02*
X136408211Y-87640827D01*
X136408211Y-87640827D02*
X136503449Y-87593208D01*
X136503449Y-87593208D02*
X136646306Y-87593208D01*
X136646306Y-87593208D02*
X136741544Y-87640827D01*
X136741544Y-87640827D02*
X136789163Y-87688446D01*
X136789163Y-87688446D02*
X136836782Y-87783684D01*
X136836782Y-87783684D02*
X136836782Y-88069398D01*
X136836782Y-88069398D02*
X136789163Y-88164636D01*
X136789163Y-88164636D02*
X136741544Y-88212256D01*
X136741544Y-88212256D02*
X136646306Y-88259875D01*
X136646306Y-88259875D02*
X136503449Y-88259875D01*
X137408211Y-88259875D02*
X137312973Y-88212256D01*
X137312973Y-88212256D02*
X137265354Y-88117017D01*
X137265354Y-88117017D02*
X137265354Y-87259875D01*
X137932021Y-88259875D02*
X137836783Y-88212256D01*
X137836783Y-88212256D02*
X137789164Y-88117017D01*
X137789164Y-88117017D02*
X137789164Y-87259875D01*
X138693926Y-88212256D02*
X138598688Y-88259875D01*
X138598688Y-88259875D02*
X138408212Y-88259875D01*
X138408212Y-88259875D02*
X138312974Y-88212256D01*
X138312974Y-88212256D02*
X138265355Y-88117017D01*
X138265355Y-88117017D02*
X138265355Y-87736065D01*
X138265355Y-87736065D02*
X138312974Y-87640827D01*
X138312974Y-87640827D02*
X138408212Y-87593208D01*
X138408212Y-87593208D02*
X138598688Y-87593208D01*
X138598688Y-87593208D02*
X138693926Y-87640827D01*
X138693926Y-87640827D02*
X138741545Y-87736065D01*
X138741545Y-87736065D02*
X138741545Y-87831303D01*
X138741545Y-87831303D02*
X138265355Y-87926541D01*
X139170117Y-88259875D02*
X139170117Y-87593208D01*
X139170117Y-87783684D02*
X139217736Y-87688446D01*
X139217736Y-87688446D02*
X139265355Y-87640827D01*
X139265355Y-87640827D02*
X139360593Y-87593208D01*
X139360593Y-87593208D02*
X139455831Y-87593208D01*
X119836779Y-89869819D02*
X119836779Y-88869819D01*
X119836779Y-88869819D02*
X120074874Y-88869819D01*
X120074874Y-88869819D02*
X120217731Y-88917438D01*
X120217731Y-88917438D02*
X120312969Y-89012676D01*
X120312969Y-89012676D02*
X120360588Y-89107914D01*
X120360588Y-89107914D02*
X120408207Y-89298390D01*
X120408207Y-89298390D02*
X120408207Y-89441247D01*
X120408207Y-89441247D02*
X120360588Y-89631723D01*
X120360588Y-89631723D02*
X120312969Y-89726961D01*
X120312969Y-89726961D02*
X120217731Y-89822200D01*
X120217731Y-89822200D02*
X120074874Y-89869819D01*
X120074874Y-89869819D02*
X119836779Y-89869819D01*
X121217731Y-89822200D02*
X121122493Y-89869819D01*
X121122493Y-89869819D02*
X120932017Y-89869819D01*
X120932017Y-89869819D02*
X120836779Y-89822200D01*
X120836779Y-89822200D02*
X120789160Y-89726961D01*
X120789160Y-89726961D02*
X120789160Y-89346009D01*
X120789160Y-89346009D02*
X120836779Y-89250771D01*
X120836779Y-89250771D02*
X120932017Y-89203152D01*
X120932017Y-89203152D02*
X121122493Y-89203152D01*
X121122493Y-89203152D02*
X121217731Y-89250771D01*
X121217731Y-89250771D02*
X121265350Y-89346009D01*
X121265350Y-89346009D02*
X121265350Y-89441247D01*
X121265350Y-89441247D02*
X120789160Y-89536485D01*
X121646303Y-89822200D02*
X121741541Y-89869819D01*
X121741541Y-89869819D02*
X121932017Y-89869819D01*
X121932017Y-89869819D02*
X122027255Y-89822200D01*
X122027255Y-89822200D02*
X122074874Y-89726961D01*
X122074874Y-89726961D02*
X122074874Y-89679342D01*
X122074874Y-89679342D02*
X122027255Y-89584104D01*
X122027255Y-89584104D02*
X121932017Y-89536485D01*
X121932017Y-89536485D02*
X121789160Y-89536485D01*
X121789160Y-89536485D02*
X121693922Y-89488866D01*
X121693922Y-89488866D02*
X121646303Y-89393628D01*
X121646303Y-89393628D02*
X121646303Y-89346009D01*
X121646303Y-89346009D02*
X121693922Y-89250771D01*
X121693922Y-89250771D02*
X121789160Y-89203152D01*
X121789160Y-89203152D02*
X121932017Y-89203152D01*
X121932017Y-89203152D02*
X122027255Y-89250771D01*
X122503446Y-89869819D02*
X122503446Y-89203152D01*
X122503446Y-88869819D02*
X122455827Y-88917438D01*
X122455827Y-88917438D02*
X122503446Y-88965057D01*
X122503446Y-88965057D02*
X122551065Y-88917438D01*
X122551065Y-88917438D02*
X122503446Y-88869819D01*
X122503446Y-88869819D02*
X122503446Y-88965057D01*
X123408207Y-89203152D02*
X123408207Y-90012676D01*
X123408207Y-90012676D02*
X123360588Y-90107914D01*
X123360588Y-90107914D02*
X123312969Y-90155533D01*
X123312969Y-90155533D02*
X123217731Y-90203152D01*
X123217731Y-90203152D02*
X123074874Y-90203152D01*
X123074874Y-90203152D02*
X122979636Y-90155533D01*
X123408207Y-89822200D02*
X123312969Y-89869819D01*
X123312969Y-89869819D02*
X123122493Y-89869819D01*
X123122493Y-89869819D02*
X123027255Y-89822200D01*
X123027255Y-89822200D02*
X122979636Y-89774580D01*
X122979636Y-89774580D02*
X122932017Y-89679342D01*
X122932017Y-89679342D02*
X122932017Y-89393628D01*
X122932017Y-89393628D02*
X122979636Y-89298390D01*
X122979636Y-89298390D02*
X123027255Y-89250771D01*
X123027255Y-89250771D02*
X123122493Y-89203152D01*
X123122493Y-89203152D02*
X123312969Y-89203152D01*
X123312969Y-89203152D02*
X123408207Y-89250771D01*
X123884398Y-89203152D02*
X123884398Y-89869819D01*
X123884398Y-89298390D02*
X123932017Y-89250771D01*
X123932017Y-89250771D02*
X124027255Y-89203152D01*
X124027255Y-89203152D02*
X124170112Y-89203152D01*
X124170112Y-89203152D02*
X124265350Y-89250771D01*
X124265350Y-89250771D02*
X124312969Y-89346009D01*
X124312969Y-89346009D02*
X124312969Y-89869819D01*
X125170112Y-89822200D02*
X125074874Y-89869819D01*
X125074874Y-89869819D02*
X124884398Y-89869819D01*
X124884398Y-89869819D02*
X124789160Y-89822200D01*
X124789160Y-89822200D02*
X124741541Y-89726961D01*
X124741541Y-89726961D02*
X124741541Y-89346009D01*
X124741541Y-89346009D02*
X124789160Y-89250771D01*
X124789160Y-89250771D02*
X124884398Y-89203152D01*
X124884398Y-89203152D02*
X125074874Y-89203152D01*
X125074874Y-89203152D02*
X125170112Y-89250771D01*
X125170112Y-89250771D02*
X125217731Y-89346009D01*
X125217731Y-89346009D02*
X125217731Y-89441247D01*
X125217731Y-89441247D02*
X124741541Y-89536485D01*
X126074874Y-89869819D02*
X126074874Y-88869819D01*
X126074874Y-89822200D02*
X125979636Y-89869819D01*
X125979636Y-89869819D02*
X125789160Y-89869819D01*
X125789160Y-89869819D02*
X125693922Y-89822200D01*
X125693922Y-89822200D02*
X125646303Y-89774580D01*
X125646303Y-89774580D02*
X125598684Y-89679342D01*
X125598684Y-89679342D02*
X125598684Y-89393628D01*
X125598684Y-89393628D02*
X125646303Y-89298390D01*
X125646303Y-89298390D02*
X125693922Y-89250771D01*
X125693922Y-89250771D02*
X125789160Y-89203152D01*
X125789160Y-89203152D02*
X125979636Y-89203152D01*
X125979636Y-89203152D02*
X126074874Y-89250771D01*
X127312970Y-89869819D02*
X127312970Y-88869819D01*
X127312970Y-89250771D02*
X127408208Y-89203152D01*
X127408208Y-89203152D02*
X127598684Y-89203152D01*
X127598684Y-89203152D02*
X127693922Y-89250771D01*
X127693922Y-89250771D02*
X127741541Y-89298390D01*
X127741541Y-89298390D02*
X127789160Y-89393628D01*
X127789160Y-89393628D02*
X127789160Y-89679342D01*
X127789160Y-89679342D02*
X127741541Y-89774580D01*
X127741541Y-89774580D02*
X127693922Y-89822200D01*
X127693922Y-89822200D02*
X127598684Y-89869819D01*
X127598684Y-89869819D02*
X127408208Y-89869819D01*
X127408208Y-89869819D02*
X127312970Y-89822200D01*
X128122494Y-89203152D02*
X128360589Y-89869819D01*
X128598684Y-89203152D02*
X128360589Y-89869819D01*
X128360589Y-89869819D02*
X128265351Y-90107914D01*
X128265351Y-90107914D02*
X128217732Y-90155533D01*
X128217732Y-90155533D02*
X128122494Y-90203152D01*
X129693923Y-89584104D02*
X130170113Y-89584104D01*
X129598685Y-89869819D02*
X129932018Y-88869819D01*
X129932018Y-88869819D02*
X130265351Y-89869819D01*
X130741542Y-89869819D02*
X130646304Y-89822200D01*
X130646304Y-89822200D02*
X130598685Y-89726961D01*
X130598685Y-89726961D02*
X130598685Y-88869819D01*
X131884400Y-89869819D02*
X131884400Y-88869819D01*
X131884400Y-88869819D02*
X132217733Y-89584104D01*
X132217733Y-89584104D02*
X132551066Y-88869819D01*
X132551066Y-88869819D02*
X132551066Y-89869819D01*
X133455828Y-89869819D02*
X133455828Y-89346009D01*
X133455828Y-89346009D02*
X133408209Y-89250771D01*
X133408209Y-89250771D02*
X133312971Y-89203152D01*
X133312971Y-89203152D02*
X133122495Y-89203152D01*
X133122495Y-89203152D02*
X133027257Y-89250771D01*
X133455828Y-89822200D02*
X133360590Y-89869819D01*
X133360590Y-89869819D02*
X133122495Y-89869819D01*
X133122495Y-89869819D02*
X133027257Y-89822200D01*
X133027257Y-89822200D02*
X132979638Y-89726961D01*
X132979638Y-89726961D02*
X132979638Y-89631723D01*
X132979638Y-89631723D02*
X133027257Y-89536485D01*
X133027257Y-89536485D02*
X133122495Y-89488866D01*
X133122495Y-89488866D02*
X133360590Y-89488866D01*
X133360590Y-89488866D02*
X133455828Y-89441247D01*
X133932019Y-89869819D02*
X133932019Y-88869819D01*
X134360590Y-89869819D02*
X134360590Y-89346009D01*
X134360590Y-89346009D02*
X134312971Y-89250771D01*
X134312971Y-89250771D02*
X134217733Y-89203152D01*
X134217733Y-89203152D02*
X134074876Y-89203152D01*
X134074876Y-89203152D02*
X133979638Y-89250771D01*
X133979638Y-89250771D02*
X133932019Y-89298390D01*
X134836781Y-89869819D02*
X134836781Y-89203152D01*
X134836781Y-88869819D02*
X134789162Y-88917438D01*
X134789162Y-88917438D02*
X134836781Y-88965057D01*
X134836781Y-88965057D02*
X134884400Y-88917438D01*
X134884400Y-88917438D02*
X134836781Y-88869819D01*
X134836781Y-88869819D02*
X134836781Y-88965057D01*
X135312971Y-89869819D02*
X135312971Y-89203152D01*
X135312971Y-89393628D02*
X135360590Y-89298390D01*
X135360590Y-89298390D02*
X135408209Y-89250771D01*
X135408209Y-89250771D02*
X135503447Y-89203152D01*
X135503447Y-89203152D02*
X135598685Y-89203152D01*
X136646305Y-89584104D02*
X137122495Y-89584104D01*
X136551067Y-89869819D02*
X136884400Y-88869819D01*
X136884400Y-88869819D02*
X137217733Y-89869819D01*
X137551067Y-89869819D02*
X137551067Y-88869819D01*
X137979638Y-89869819D02*
X137979638Y-89346009D01*
X137979638Y-89346009D02*
X137932019Y-89250771D01*
X137932019Y-89250771D02*
X137836781Y-89203152D01*
X137836781Y-89203152D02*
X137693924Y-89203152D01*
X137693924Y-89203152D02*
X137598686Y-89250771D01*
X137598686Y-89250771D02*
X137551067Y-89298390D01*
X138455829Y-89869819D02*
X138455829Y-89203152D01*
X138455829Y-89298390D02*
X138503448Y-89250771D01*
X138503448Y-89250771D02*
X138598686Y-89203152D01*
X138598686Y-89203152D02*
X138741543Y-89203152D01*
X138741543Y-89203152D02*
X138836781Y-89250771D01*
X138836781Y-89250771D02*
X138884400Y-89346009D01*
X138884400Y-89346009D02*
X138884400Y-89869819D01*
X138884400Y-89346009D02*
X138932019Y-89250771D01*
X138932019Y-89250771D02*
X139027257Y-89203152D01*
X139027257Y-89203152D02*
X139170114Y-89203152D01*
X139170114Y-89203152D02*
X139265353Y-89250771D01*
X139265353Y-89250771D02*
X139312972Y-89346009D01*
X139312972Y-89346009D02*
X139312972Y-89869819D01*
X140170114Y-89822200D02*
X140074876Y-89869819D01*
X140074876Y-89869819D02*
X139884400Y-89869819D01*
X139884400Y-89869819D02*
X139789162Y-89822200D01*
X139789162Y-89822200D02*
X139741543Y-89726961D01*
X139741543Y-89726961D02*
X139741543Y-89346009D01*
X139741543Y-89346009D02*
X139789162Y-89250771D01*
X139789162Y-89250771D02*
X139884400Y-89203152D01*
X139884400Y-89203152D02*
X140074876Y-89203152D01*
X140074876Y-89203152D02*
X140170114Y-89250771D01*
X140170114Y-89250771D02*
X140217733Y-89346009D01*
X140217733Y-89346009D02*
X140217733Y-89441247D01*
X140217733Y-89441247D02*
X139741543Y-89536485D01*
X141074876Y-89869819D02*
X141074876Y-88869819D01*
X141074876Y-89822200D02*
X140979638Y-89869819D01*
X140979638Y-89869819D02*
X140789162Y-89869819D01*
X140789162Y-89869819D02*
X140693924Y-89822200D01*
X140693924Y-89822200D02*
X140646305Y-89774580D01*
X140646305Y-89774580D02*
X140598686Y-89679342D01*
X140598686Y-89679342D02*
X140598686Y-89393628D01*
X140598686Y-89393628D02*
X140646305Y-89298390D01*
X140646305Y-89298390D02*
X140693924Y-89250771D01*
X140693924Y-89250771D02*
X140789162Y-89203152D01*
X140789162Y-89203152D02*
X140979638Y-89203152D01*
X140979638Y-89203152D02*
X141074876Y-89250771D01*
D10*
X105053884Y-69991466D02*
X105815789Y-69991466D01*
D12*
X162583333Y-67636508D02*
X162535714Y-67684128D01*
X162535714Y-67684128D02*
X162392857Y-67731747D01*
X162392857Y-67731747D02*
X162297619Y-67731747D01*
X162297619Y-67731747D02*
X162154762Y-67684128D01*
X162154762Y-67684128D02*
X162059524Y-67588889D01*
X162059524Y-67588889D02*
X162011905Y-67493651D01*
X162011905Y-67493651D02*
X161964286Y-67303175D01*
X161964286Y-67303175D02*
X161964286Y-67160318D01*
X161964286Y-67160318D02*
X162011905Y-66969842D01*
X162011905Y-66969842D02*
X162059524Y-66874604D01*
X162059524Y-66874604D02*
X162154762Y-66779366D01*
X162154762Y-66779366D02*
X162297619Y-66731747D01*
X162297619Y-66731747D02*
X162392857Y-66731747D01*
X162392857Y-66731747D02*
X162535714Y-66779366D01*
X162535714Y-66779366D02*
X162583333Y-66826985D01*
X162916667Y-66731747D02*
X163583333Y-66731747D01*
X163583333Y-66731747D02*
X163154762Y-67731747D01*
X128929580Y-53396666D02*
X128977200Y-53444285D01*
X128977200Y-53444285D02*
X129024819Y-53587142D01*
X129024819Y-53587142D02*
X129024819Y-53682380D01*
X129024819Y-53682380D02*
X128977200Y-53825237D01*
X128977200Y-53825237D02*
X128881961Y-53920475D01*
X128881961Y-53920475D02*
X128786723Y-53968094D01*
X128786723Y-53968094D02*
X128596247Y-54015713D01*
X128596247Y-54015713D02*
X128453390Y-54015713D01*
X128453390Y-54015713D02*
X128262914Y-53968094D01*
X128262914Y-53968094D02*
X128167676Y-53920475D01*
X128167676Y-53920475D02*
X128072438Y-53825237D01*
X128072438Y-53825237D02*
X128024819Y-53682380D01*
X128024819Y-53682380D02*
X128024819Y-53587142D01*
X128024819Y-53587142D02*
X128072438Y-53444285D01*
X128072438Y-53444285D02*
X128120057Y-53396666D01*
X129024819Y-52444285D02*
X129024819Y-53015713D01*
X129024819Y-52729999D02*
X128024819Y-52729999D01*
X128024819Y-52729999D02*
X128167676Y-52825237D01*
X128167676Y-52825237D02*
X128262914Y-52920475D01*
X128262914Y-52920475D02*
X128310533Y-53015713D01*
X154907200Y-73583332D02*
X154954819Y-73440475D01*
X154954819Y-73440475D02*
X154954819Y-73202380D01*
X154954819Y-73202380D02*
X154907200Y-73107142D01*
X154907200Y-73107142D02*
X154859580Y-73059523D01*
X154859580Y-73059523D02*
X154764342Y-73011904D01*
X154764342Y-73011904D02*
X154669104Y-73011904D01*
X154669104Y-73011904D02*
X154573866Y-73059523D01*
X154573866Y-73059523D02*
X154526247Y-73107142D01*
X154526247Y-73107142D02*
X154478628Y-73202380D01*
X154478628Y-73202380D02*
X154431009Y-73392856D01*
X154431009Y-73392856D02*
X154383390Y-73488094D01*
X154383390Y-73488094D02*
X154335771Y-73535713D01*
X154335771Y-73535713D02*
X154240533Y-73583332D01*
X154240533Y-73583332D02*
X154145295Y-73583332D01*
X154145295Y-73583332D02*
X154050057Y-73535713D01*
X154050057Y-73535713D02*
X154002438Y-73488094D01*
X154002438Y-73488094D02*
X153954819Y-73392856D01*
X153954819Y-73392856D02*
X153954819Y-73154761D01*
X153954819Y-73154761D02*
X154002438Y-73011904D01*
X153954819Y-72678570D02*
X154954819Y-72440475D01*
X154954819Y-72440475D02*
X154240533Y-72249999D01*
X154240533Y-72249999D02*
X154954819Y-72059523D01*
X154954819Y-72059523D02*
X153954819Y-71821428D01*
X154050057Y-71488094D02*
X154002438Y-71440475D01*
X154002438Y-71440475D02*
X153954819Y-71345237D01*
X153954819Y-71345237D02*
X153954819Y-71107142D01*
X153954819Y-71107142D02*
X154002438Y-71011904D01*
X154002438Y-71011904D02*
X154050057Y-70964285D01*
X154050057Y-70964285D02*
X154145295Y-70916666D01*
X154145295Y-70916666D02*
X154240533Y-70916666D01*
X154240533Y-70916666D02*
X154383390Y-70964285D01*
X154383390Y-70964285D02*
X154954819Y-71535713D01*
X154954819Y-71535713D02*
X154954819Y-70916666D01*
X130157200Y-73283333D02*
X130204819Y-73140476D01*
X130204819Y-73140476D02*
X130204819Y-72902381D01*
X130204819Y-72902381D02*
X130157200Y-72807143D01*
X130157200Y-72807143D02*
X130109580Y-72759524D01*
X130109580Y-72759524D02*
X130014342Y-72711905D01*
X130014342Y-72711905D02*
X129919104Y-72711905D01*
X129919104Y-72711905D02*
X129823866Y-72759524D01*
X129823866Y-72759524D02*
X129776247Y-72807143D01*
X129776247Y-72807143D02*
X129728628Y-72902381D01*
X129728628Y-72902381D02*
X129681009Y-73092857D01*
X129681009Y-73092857D02*
X129633390Y-73188095D01*
X129633390Y-73188095D02*
X129585771Y-73235714D01*
X129585771Y-73235714D02*
X129490533Y-73283333D01*
X129490533Y-73283333D02*
X129395295Y-73283333D01*
X129395295Y-73283333D02*
X129300057Y-73235714D01*
X129300057Y-73235714D02*
X129252438Y-73188095D01*
X129252438Y-73188095D02*
X129204819Y-73092857D01*
X129204819Y-73092857D02*
X129204819Y-72854762D01*
X129204819Y-72854762D02*
X129252438Y-72711905D01*
X129204819Y-72378571D02*
X130204819Y-72140476D01*
X130204819Y-72140476D02*
X129490533Y-71950000D01*
X129490533Y-71950000D02*
X130204819Y-71759524D01*
X130204819Y-71759524D02*
X129204819Y-71521429D01*
X130204819Y-70616667D02*
X130204819Y-71188095D01*
X130204819Y-70902381D02*
X129204819Y-70902381D01*
X129204819Y-70902381D02*
X129347676Y-70997619D01*
X129347676Y-70997619D02*
X129442914Y-71092857D01*
X129442914Y-71092857D02*
X129490533Y-71188095D01*
X173954819Y-71488094D02*
X172954819Y-71488094D01*
X172954819Y-71488094D02*
X172954819Y-71107142D01*
X172954819Y-71107142D02*
X173002438Y-71011904D01*
X173002438Y-71011904D02*
X173050057Y-70964285D01*
X173050057Y-70964285D02*
X173145295Y-70916666D01*
X173145295Y-70916666D02*
X173288152Y-70916666D01*
X173288152Y-70916666D02*
X173383390Y-70964285D01*
X173383390Y-70964285D02*
X173431009Y-71011904D01*
X173431009Y-71011904D02*
X173478628Y-71107142D01*
X173478628Y-71107142D02*
X173478628Y-71488094D01*
X173954819Y-69964285D02*
X173954819Y-70535713D01*
X173954819Y-70249999D02*
X172954819Y-70249999D01*
X172954819Y-70249999D02*
X173097676Y-70345237D01*
X173097676Y-70345237D02*
X173192914Y-70440475D01*
X173192914Y-70440475D02*
X173240533Y-70535713D01*
X141238095Y-72454819D02*
X141238095Y-73264342D01*
X141238095Y-73264342D02*
X141285714Y-73359580D01*
X141285714Y-73359580D02*
X141333333Y-73407200D01*
X141333333Y-73407200D02*
X141428571Y-73454819D01*
X141428571Y-73454819D02*
X141619047Y-73454819D01*
X141619047Y-73454819D02*
X141714285Y-73407200D01*
X141714285Y-73407200D02*
X141761904Y-73359580D01*
X141761904Y-73359580D02*
X141809523Y-73264342D01*
X141809523Y-73264342D02*
X141809523Y-72454819D01*
X142714285Y-72788152D02*
X142714285Y-73454819D01*
X142476190Y-72407200D02*
X142238095Y-73121485D01*
X142238095Y-73121485D02*
X142857142Y-73121485D01*
X172749185Y-82144025D02*
X172042079Y-81436918D01*
X172042079Y-81436918D02*
X172782857Y-81706292D01*
X172782857Y-81706292D02*
X172513483Y-80965514D01*
X172513483Y-80965514D02*
X173220590Y-81672620D01*
X173186918Y-80292079D02*
X172850201Y-80628796D01*
X172850201Y-80628796D02*
X173153246Y-80999185D01*
X173153246Y-80999185D02*
X173153246Y-80931842D01*
X173153246Y-80931842D02*
X173186918Y-80830827D01*
X173186918Y-80830827D02*
X173355277Y-80662468D01*
X173355277Y-80662468D02*
X173456292Y-80628796D01*
X173456292Y-80628796D02*
X173523636Y-80628796D01*
X173523636Y-80628796D02*
X173624651Y-80662468D01*
X173624651Y-80662468D02*
X173793010Y-80830827D01*
X173793010Y-80830827D02*
X173826681Y-80931842D01*
X173826681Y-80931842D02*
X173826681Y-80999185D01*
X173826681Y-80999185D02*
X173793010Y-81100201D01*
X173793010Y-81100201D02*
X173624651Y-81268559D01*
X173624651Y-81268559D02*
X173523636Y-81302231D01*
X173523636Y-81302231D02*
X173456292Y-81302231D01*
X112499185Y-62394025D02*
X111792079Y-61686918D01*
X111792079Y-61686918D02*
X112532857Y-61956292D01*
X112532857Y-61956292D02*
X112263483Y-61215514D01*
X112263483Y-61215514D02*
X112970590Y-61922620D01*
X113138949Y-60811453D02*
X113610353Y-61282857D01*
X112701216Y-60710437D02*
X113037933Y-61383872D01*
X113037933Y-61383872D02*
X113475666Y-60946140D01*
X171855974Y-60499185D02*
X172563081Y-59792079D01*
X172563081Y-59792079D02*
X172293707Y-60532857D01*
X172293707Y-60532857D02*
X173034485Y-60263483D01*
X173034485Y-60263483D02*
X172327379Y-60970590D01*
X173303859Y-60532857D02*
X173741592Y-60970590D01*
X173741592Y-60970590D02*
X173236516Y-61004262D01*
X173236516Y-61004262D02*
X173337531Y-61105277D01*
X173337531Y-61105277D02*
X173371203Y-61206292D01*
X173371203Y-61206292D02*
X173371203Y-61273636D01*
X173371203Y-61273636D02*
X173337531Y-61374651D01*
X173337531Y-61374651D02*
X173169172Y-61543010D01*
X173169172Y-61543010D02*
X173068157Y-61576681D01*
X173068157Y-61576681D02*
X173000814Y-61576681D01*
X173000814Y-61576681D02*
X172899798Y-61543010D01*
X172899798Y-61543010D02*
X172697768Y-61340979D01*
X172697768Y-61340979D02*
X172664096Y-61239964D01*
X172664096Y-61239964D02*
X172664096Y-61172620D01*
X112105974Y-81499185D02*
X112813081Y-80792079D01*
X112813081Y-80792079D02*
X112543707Y-81532857D01*
X112543707Y-81532857D02*
X113284485Y-81263483D01*
X113284485Y-81263483D02*
X112577379Y-81970590D01*
X113520188Y-81633872D02*
X113587531Y-81633872D01*
X113587531Y-81633872D02*
X113688546Y-81667544D01*
X113688546Y-81667544D02*
X113856905Y-81835903D01*
X113856905Y-81835903D02*
X113890577Y-81936918D01*
X113890577Y-81936918D02*
X113890577Y-82004262D01*
X113890577Y-82004262D02*
X113856905Y-82105277D01*
X113856905Y-82105277D02*
X113789562Y-82172620D01*
X113789562Y-82172620D02*
X113654875Y-82239964D01*
X113654875Y-82239964D02*
X112846753Y-82239964D01*
X112846753Y-82239964D02*
X113284485Y-82677697D01*
X115904819Y-71833333D02*
X116619104Y-71833333D01*
X116619104Y-71833333D02*
X116761961Y-71880952D01*
X116761961Y-71880952D02*
X116857200Y-71976190D01*
X116857200Y-71976190D02*
X116904819Y-72119047D01*
X116904819Y-72119047D02*
X116904819Y-72214285D01*
X116904819Y-70833333D02*
X116904819Y-71404761D01*
X116904819Y-71119047D02*
X115904819Y-71119047D01*
X115904819Y-71119047D02*
X116047676Y-71214285D01*
X116047676Y-71214285D02*
X116142914Y-71309523D01*
X116142914Y-71309523D02*
X116190533Y-71404761D01*
X129583333Y-67609580D02*
X129535714Y-67657200D01*
X129535714Y-67657200D02*
X129392857Y-67704819D01*
X129392857Y-67704819D02*
X129297619Y-67704819D01*
X129297619Y-67704819D02*
X129154762Y-67657200D01*
X129154762Y-67657200D02*
X129059524Y-67561961D01*
X129059524Y-67561961D02*
X129011905Y-67466723D01*
X129011905Y-67466723D02*
X128964286Y-67276247D01*
X128964286Y-67276247D02*
X128964286Y-67133390D01*
X128964286Y-67133390D02*
X129011905Y-66942914D01*
X129011905Y-66942914D02*
X129059524Y-66847676D01*
X129059524Y-66847676D02*
X129154762Y-66752438D01*
X129154762Y-66752438D02*
X129297619Y-66704819D01*
X129297619Y-66704819D02*
X129392857Y-66704819D01*
X129392857Y-66704819D02*
X129535714Y-66752438D01*
X129535714Y-66752438D02*
X129583333Y-66800057D01*
X130440476Y-67038152D02*
X130440476Y-67704819D01*
X130202381Y-66657200D02*
X129964286Y-67371485D01*
X129964286Y-67371485D02*
X130583333Y-67371485D01*
X148404761Y-82550057D02*
X148309523Y-82502438D01*
X148309523Y-82502438D02*
X148214285Y-82407200D01*
X148214285Y-82407200D02*
X148071428Y-82264342D01*
X148071428Y-82264342D02*
X147976190Y-82216723D01*
X147976190Y-82216723D02*
X147880952Y-82216723D01*
X147928571Y-82454819D02*
X147833333Y-82407200D01*
X147833333Y-82407200D02*
X147738095Y-82311961D01*
X147738095Y-82311961D02*
X147690476Y-82121485D01*
X147690476Y-82121485D02*
X147690476Y-81788152D01*
X147690476Y-81788152D02*
X147738095Y-81597676D01*
X147738095Y-81597676D02*
X147833333Y-81502438D01*
X147833333Y-81502438D02*
X147928571Y-81454819D01*
X147928571Y-81454819D02*
X148119047Y-81454819D01*
X148119047Y-81454819D02*
X148214285Y-81502438D01*
X148214285Y-81502438D02*
X148309523Y-81597676D01*
X148309523Y-81597676D02*
X148357142Y-81788152D01*
X148357142Y-81788152D02*
X148357142Y-82121485D01*
X148357142Y-82121485D02*
X148309523Y-82311961D01*
X148309523Y-82311961D02*
X148214285Y-82407200D01*
X148214285Y-82407200D02*
X148119047Y-82454819D01*
X148119047Y-82454819D02*
X147928571Y-82454819D01*
X148690476Y-81454819D02*
X149357142Y-81454819D01*
X149357142Y-81454819D02*
X148928571Y-82454819D01*
X145083333Y-85454819D02*
X144750000Y-84978628D01*
X144511905Y-85454819D02*
X144511905Y-84454819D01*
X144511905Y-84454819D02*
X144892857Y-84454819D01*
X144892857Y-84454819D02*
X144988095Y-84502438D01*
X144988095Y-84502438D02*
X145035714Y-84550057D01*
X145035714Y-84550057D02*
X145083333Y-84645295D01*
X145083333Y-84645295D02*
X145083333Y-84788152D01*
X145083333Y-84788152D02*
X145035714Y-84883390D01*
X145035714Y-84883390D02*
X144988095Y-84931009D01*
X144988095Y-84931009D02*
X144892857Y-84978628D01*
X144892857Y-84978628D02*
X144511905Y-84978628D01*
X145654762Y-84883390D02*
X145559524Y-84835771D01*
X145559524Y-84835771D02*
X145511905Y-84788152D01*
X145511905Y-84788152D02*
X145464286Y-84692914D01*
X145464286Y-84692914D02*
X145464286Y-84645295D01*
X145464286Y-84645295D02*
X145511905Y-84550057D01*
X145511905Y-84550057D02*
X145559524Y-84502438D01*
X145559524Y-84502438D02*
X145654762Y-84454819D01*
X145654762Y-84454819D02*
X145845238Y-84454819D01*
X145845238Y-84454819D02*
X145940476Y-84502438D01*
X145940476Y-84502438D02*
X145988095Y-84550057D01*
X145988095Y-84550057D02*
X146035714Y-84645295D01*
X146035714Y-84645295D02*
X146035714Y-84692914D01*
X146035714Y-84692914D02*
X145988095Y-84788152D01*
X145988095Y-84788152D02*
X145940476Y-84835771D01*
X145940476Y-84835771D02*
X145845238Y-84883390D01*
X145845238Y-84883390D02*
X145654762Y-84883390D01*
X145654762Y-84883390D02*
X145559524Y-84931009D01*
X145559524Y-84931009D02*
X145511905Y-84978628D01*
X145511905Y-84978628D02*
X145464286Y-85073866D01*
X145464286Y-85073866D02*
X145464286Y-85264342D01*
X145464286Y-85264342D02*
X145511905Y-85359580D01*
X145511905Y-85359580D02*
X145559524Y-85407200D01*
X145559524Y-85407200D02*
X145654762Y-85454819D01*
X145654762Y-85454819D02*
X145845238Y-85454819D01*
X145845238Y-85454819D02*
X145940476Y-85407200D01*
X145940476Y-85407200D02*
X145988095Y-85359580D01*
X145988095Y-85359580D02*
X146035714Y-85264342D01*
X146035714Y-85264342D02*
X146035714Y-85073866D01*
X146035714Y-85073866D02*
X145988095Y-84978628D01*
X145988095Y-84978628D02*
X145940476Y-84931009D01*
X145940476Y-84931009D02*
X145845238Y-84883390D01*
X135904761Y-82550057D02*
X135809523Y-82502438D01*
X135809523Y-82502438D02*
X135714285Y-82407200D01*
X135714285Y-82407200D02*
X135571428Y-82264342D01*
X135571428Y-82264342D02*
X135476190Y-82216723D01*
X135476190Y-82216723D02*
X135380952Y-82216723D01*
X135428571Y-82454819D02*
X135333333Y-82407200D01*
X135333333Y-82407200D02*
X135238095Y-82311961D01*
X135238095Y-82311961D02*
X135190476Y-82121485D01*
X135190476Y-82121485D02*
X135190476Y-81788152D01*
X135190476Y-81788152D02*
X135238095Y-81597676D01*
X135238095Y-81597676D02*
X135333333Y-81502438D01*
X135333333Y-81502438D02*
X135428571Y-81454819D01*
X135428571Y-81454819D02*
X135619047Y-81454819D01*
X135619047Y-81454819D02*
X135714285Y-81502438D01*
X135714285Y-81502438D02*
X135809523Y-81597676D01*
X135809523Y-81597676D02*
X135857142Y-81788152D01*
X135857142Y-81788152D02*
X135857142Y-82121485D01*
X135857142Y-82121485D02*
X135809523Y-82311961D01*
X135809523Y-82311961D02*
X135714285Y-82407200D01*
X135714285Y-82407200D02*
X135619047Y-82454819D01*
X135619047Y-82454819D02*
X135428571Y-82454819D01*
X136714285Y-81788152D02*
X136714285Y-82454819D01*
X136476190Y-81407200D02*
X136238095Y-82121485D01*
X136238095Y-82121485D02*
X136857142Y-82121485D01*
X147583333Y-89454819D02*
X147250000Y-88978628D01*
X147011905Y-89454819D02*
X147011905Y-88454819D01*
X147011905Y-88454819D02*
X147392857Y-88454819D01*
X147392857Y-88454819D02*
X147488095Y-88502438D01*
X147488095Y-88502438D02*
X147535714Y-88550057D01*
X147535714Y-88550057D02*
X147583333Y-88645295D01*
X147583333Y-88645295D02*
X147583333Y-88788152D01*
X147583333Y-88788152D02*
X147535714Y-88883390D01*
X147535714Y-88883390D02*
X147488095Y-88931009D01*
X147488095Y-88931009D02*
X147392857Y-88978628D01*
X147392857Y-88978628D02*
X147011905Y-88978628D01*
X147916667Y-88454819D02*
X148583333Y-88454819D01*
X148583333Y-88454819D02*
X148154762Y-89454819D01*
X156404762Y-68050057D02*
X156309524Y-68002438D01*
X156309524Y-68002438D02*
X156214286Y-67907200D01*
X156214286Y-67907200D02*
X156071429Y-67764342D01*
X156071429Y-67764342D02*
X155976191Y-67716723D01*
X155976191Y-67716723D02*
X155880953Y-67716723D01*
X155928572Y-67954819D02*
X155833334Y-67907200D01*
X155833334Y-67907200D02*
X155738096Y-67811961D01*
X155738096Y-67811961D02*
X155690477Y-67621485D01*
X155690477Y-67621485D02*
X155690477Y-67288152D01*
X155690477Y-67288152D02*
X155738096Y-67097676D01*
X155738096Y-67097676D02*
X155833334Y-67002438D01*
X155833334Y-67002438D02*
X155928572Y-66954819D01*
X155928572Y-66954819D02*
X156119048Y-66954819D01*
X156119048Y-66954819D02*
X156214286Y-67002438D01*
X156214286Y-67002438D02*
X156309524Y-67097676D01*
X156309524Y-67097676D02*
X156357143Y-67288152D01*
X156357143Y-67288152D02*
X156357143Y-67621485D01*
X156357143Y-67621485D02*
X156309524Y-67811961D01*
X156309524Y-67811961D02*
X156214286Y-67907200D01*
X156214286Y-67907200D02*
X156119048Y-67954819D01*
X156119048Y-67954819D02*
X155928572Y-67954819D01*
X156738096Y-67050057D02*
X156785715Y-67002438D01*
X156785715Y-67002438D02*
X156880953Y-66954819D01*
X156880953Y-66954819D02*
X157119048Y-66954819D01*
X157119048Y-66954819D02*
X157214286Y-67002438D01*
X157214286Y-67002438D02*
X157261905Y-67050057D01*
X157261905Y-67050057D02*
X157309524Y-67145295D01*
X157309524Y-67145295D02*
X157309524Y-67240533D01*
X157309524Y-67240533D02*
X157261905Y-67383390D01*
X157261905Y-67383390D02*
X156690477Y-67954819D01*
X156690477Y-67954819D02*
X157309524Y-67954819D01*
X131704819Y-69961904D02*
X132514342Y-69961904D01*
X132514342Y-69961904D02*
X132609580Y-69914285D01*
X132609580Y-69914285D02*
X132657200Y-69866666D01*
X132657200Y-69866666D02*
X132704819Y-69771428D01*
X132704819Y-69771428D02*
X132704819Y-69580952D01*
X132704819Y-69580952D02*
X132657200Y-69485714D01*
X132657200Y-69485714D02*
X132609580Y-69438095D01*
X132609580Y-69438095D02*
X132514342Y-69390476D01*
X132514342Y-69390476D02*
X131704819Y-69390476D01*
X132704819Y-68390476D02*
X132704819Y-68961904D01*
X132704819Y-68676190D02*
X131704819Y-68676190D01*
X131704819Y-68676190D02*
X131847676Y-68771428D01*
X131847676Y-68771428D02*
X131942914Y-68866666D01*
X131942914Y-68866666D02*
X131990533Y-68961904D01*
X163464818Y-53912857D02*
X162988627Y-54246190D01*
X163464818Y-54484285D02*
X162464818Y-54484285D01*
X162464818Y-54484285D02*
X162464818Y-54103333D01*
X162464818Y-54103333D02*
X162512437Y-54008095D01*
X162512437Y-54008095D02*
X162560056Y-53960476D01*
X162560056Y-53960476D02*
X162655294Y-53912857D01*
X162655294Y-53912857D02*
X162798151Y-53912857D01*
X162798151Y-53912857D02*
X162893389Y-53960476D01*
X162893389Y-53960476D02*
X162941008Y-54008095D01*
X162941008Y-54008095D02*
X162988627Y-54103333D01*
X162988627Y-54103333D02*
X162988627Y-54484285D01*
X163464818Y-52960476D02*
X163464818Y-53531904D01*
X163464818Y-53246190D02*
X162464818Y-53246190D01*
X162464818Y-53246190D02*
X162607675Y-53341428D01*
X162607675Y-53341428D02*
X162702913Y-53436666D01*
X162702913Y-53436666D02*
X162750532Y-53531904D01*
X162464818Y-52341428D02*
X162464818Y-52246190D01*
X162464818Y-52246190D02*
X162512437Y-52150952D01*
X162512437Y-52150952D02*
X162560056Y-52103333D01*
X162560056Y-52103333D02*
X162655294Y-52055714D01*
X162655294Y-52055714D02*
X162845770Y-52008095D01*
X162845770Y-52008095D02*
X163083865Y-52008095D01*
X163083865Y-52008095D02*
X163274341Y-52055714D01*
X163274341Y-52055714D02*
X163369579Y-52103333D01*
X163369579Y-52103333D02*
X163417199Y-52150952D01*
X163417199Y-52150952D02*
X163464818Y-52246190D01*
X163464818Y-52246190D02*
X163464818Y-52341428D01*
X163464818Y-52341428D02*
X163417199Y-52436666D01*
X163417199Y-52436666D02*
X163369579Y-52484285D01*
X163369579Y-52484285D02*
X163274341Y-52531904D01*
X163274341Y-52531904D02*
X163083865Y-52579523D01*
X163083865Y-52579523D02*
X162845770Y-52579523D01*
X162845770Y-52579523D02*
X162655294Y-52531904D01*
X162655294Y-52531904D02*
X162560056Y-52484285D01*
X162560056Y-52484285D02*
X162512437Y-52436666D01*
X162512437Y-52436666D02*
X162464818Y-52341428D01*
X130944642Y-73804819D02*
X130611309Y-73328628D01*
X130373214Y-73804819D02*
X130373214Y-72804819D01*
X130373214Y-72804819D02*
X130754166Y-72804819D01*
X130754166Y-72804819D02*
X130849404Y-72852438D01*
X130849404Y-72852438D02*
X130897023Y-72900057D01*
X130897023Y-72900057D02*
X130944642Y-72995295D01*
X130944642Y-72995295D02*
X130944642Y-73138152D01*
X130944642Y-73138152D02*
X130897023Y-73233390D01*
X130897023Y-73233390D02*
X130849404Y-73281009D01*
X130849404Y-73281009D02*
X130754166Y-73328628D01*
X130754166Y-73328628D02*
X130373214Y-73328628D01*
X131897023Y-73804819D02*
X131325595Y-73804819D01*
X131611309Y-73804819D02*
X131611309Y-72804819D01*
X131611309Y-72804819D02*
X131516071Y-72947676D01*
X131516071Y-72947676D02*
X131420833Y-73042914D01*
X131420833Y-73042914D02*
X131325595Y-73090533D01*
X132754166Y-73138152D02*
X132754166Y-73804819D01*
X132516071Y-72757200D02*
X132277976Y-73471485D01*
X132277976Y-73471485D02*
X132897023Y-73471485D01*
X152904761Y-82550057D02*
X152809523Y-82502438D01*
X152809523Y-82502438D02*
X152714285Y-82407200D01*
X152714285Y-82407200D02*
X152571428Y-82264342D01*
X152571428Y-82264342D02*
X152476190Y-82216723D01*
X152476190Y-82216723D02*
X152380952Y-82216723D01*
X152428571Y-82454819D02*
X152333333Y-82407200D01*
X152333333Y-82407200D02*
X152238095Y-82311961D01*
X152238095Y-82311961D02*
X152190476Y-82121485D01*
X152190476Y-82121485D02*
X152190476Y-81788152D01*
X152190476Y-81788152D02*
X152238095Y-81597676D01*
X152238095Y-81597676D02*
X152333333Y-81502438D01*
X152333333Y-81502438D02*
X152428571Y-81454819D01*
X152428571Y-81454819D02*
X152619047Y-81454819D01*
X152619047Y-81454819D02*
X152714285Y-81502438D01*
X152714285Y-81502438D02*
X152809523Y-81597676D01*
X152809523Y-81597676D02*
X152857142Y-81788152D01*
X152857142Y-81788152D02*
X152857142Y-82121485D01*
X152857142Y-82121485D02*
X152809523Y-82311961D01*
X152809523Y-82311961D02*
X152714285Y-82407200D01*
X152714285Y-82407200D02*
X152619047Y-82454819D01*
X152619047Y-82454819D02*
X152428571Y-82454819D01*
X153761904Y-81454819D02*
X153285714Y-81454819D01*
X153285714Y-81454819D02*
X153238095Y-81931009D01*
X153238095Y-81931009D02*
X153285714Y-81883390D01*
X153285714Y-81883390D02*
X153380952Y-81835771D01*
X153380952Y-81835771D02*
X153619047Y-81835771D01*
X153619047Y-81835771D02*
X153714285Y-81883390D01*
X153714285Y-81883390D02*
X153761904Y-81931009D01*
X153761904Y-81931009D02*
X153809523Y-82026247D01*
X153809523Y-82026247D02*
X153809523Y-82264342D01*
X153809523Y-82264342D02*
X153761904Y-82359580D01*
X153761904Y-82359580D02*
X153714285Y-82407200D01*
X153714285Y-82407200D02*
X153619047Y-82454819D01*
X153619047Y-82454819D02*
X153380952Y-82454819D01*
X153380952Y-82454819D02*
X153285714Y-82407200D01*
X153285714Y-82407200D02*
X153238095Y-82359580D01*
X162039580Y-72416666D02*
X162087200Y-72464285D01*
X162087200Y-72464285D02*
X162134819Y-72607142D01*
X162134819Y-72607142D02*
X162134819Y-72702380D01*
X162134819Y-72702380D02*
X162087200Y-72845237D01*
X162087200Y-72845237D02*
X161991961Y-72940475D01*
X161991961Y-72940475D02*
X161896723Y-72988094D01*
X161896723Y-72988094D02*
X161706247Y-73035713D01*
X161706247Y-73035713D02*
X161563390Y-73035713D01*
X161563390Y-73035713D02*
X161372914Y-72988094D01*
X161372914Y-72988094D02*
X161277676Y-72940475D01*
X161277676Y-72940475D02*
X161182438Y-72845237D01*
X161182438Y-72845237D02*
X161134819Y-72702380D01*
X161134819Y-72702380D02*
X161134819Y-72607142D01*
X161134819Y-72607142D02*
X161182438Y-72464285D01*
X161182438Y-72464285D02*
X161230057Y-72416666D01*
X162134819Y-71940475D02*
X162134819Y-71749999D01*
X162134819Y-71749999D02*
X162087200Y-71654761D01*
X162087200Y-71654761D02*
X162039580Y-71607142D01*
X162039580Y-71607142D02*
X161896723Y-71511904D01*
X161896723Y-71511904D02*
X161706247Y-71464285D01*
X161706247Y-71464285D02*
X161325295Y-71464285D01*
X161325295Y-71464285D02*
X161230057Y-71511904D01*
X161230057Y-71511904D02*
X161182438Y-71559523D01*
X161182438Y-71559523D02*
X161134819Y-71654761D01*
X161134819Y-71654761D02*
X161134819Y-71845237D01*
X161134819Y-71845237D02*
X161182438Y-71940475D01*
X161182438Y-71940475D02*
X161230057Y-71988094D01*
X161230057Y-71988094D02*
X161325295Y-72035713D01*
X161325295Y-72035713D02*
X161563390Y-72035713D01*
X161563390Y-72035713D02*
X161658628Y-71988094D01*
X161658628Y-71988094D02*
X161706247Y-71940475D01*
X161706247Y-71940475D02*
X161753866Y-71845237D01*
X161753866Y-71845237D02*
X161753866Y-71654761D01*
X161753866Y-71654761D02*
X161706247Y-71559523D01*
X161706247Y-71559523D02*
X161658628Y-71511904D01*
X161658628Y-71511904D02*
X161563390Y-71464285D01*
X124859580Y-74666666D02*
X124907200Y-74714285D01*
X124907200Y-74714285D02*
X124954819Y-74857142D01*
X124954819Y-74857142D02*
X124954819Y-74952380D01*
X124954819Y-74952380D02*
X124907200Y-75095237D01*
X124907200Y-75095237D02*
X124811961Y-75190475D01*
X124811961Y-75190475D02*
X124716723Y-75238094D01*
X124716723Y-75238094D02*
X124526247Y-75285713D01*
X124526247Y-75285713D02*
X124383390Y-75285713D01*
X124383390Y-75285713D02*
X124192914Y-75238094D01*
X124192914Y-75238094D02*
X124097676Y-75190475D01*
X124097676Y-75190475D02*
X124002438Y-75095237D01*
X124002438Y-75095237D02*
X123954819Y-74952380D01*
X123954819Y-74952380D02*
X123954819Y-74857142D01*
X123954819Y-74857142D02*
X124002438Y-74714285D01*
X124002438Y-74714285D02*
X124050057Y-74666666D01*
X124383390Y-74095237D02*
X124335771Y-74190475D01*
X124335771Y-74190475D02*
X124288152Y-74238094D01*
X124288152Y-74238094D02*
X124192914Y-74285713D01*
X124192914Y-74285713D02*
X124145295Y-74285713D01*
X124145295Y-74285713D02*
X124050057Y-74238094D01*
X124050057Y-74238094D02*
X124002438Y-74190475D01*
X124002438Y-74190475D02*
X123954819Y-74095237D01*
X123954819Y-74095237D02*
X123954819Y-73904761D01*
X123954819Y-73904761D02*
X124002438Y-73809523D01*
X124002438Y-73809523D02*
X124050057Y-73761904D01*
X124050057Y-73761904D02*
X124145295Y-73714285D01*
X124145295Y-73714285D02*
X124192914Y-73714285D01*
X124192914Y-73714285D02*
X124288152Y-73761904D01*
X124288152Y-73761904D02*
X124335771Y-73809523D01*
X124335771Y-73809523D02*
X124383390Y-73904761D01*
X124383390Y-73904761D02*
X124383390Y-74095237D01*
X124383390Y-74095237D02*
X124431009Y-74190475D01*
X124431009Y-74190475D02*
X124478628Y-74238094D01*
X124478628Y-74238094D02*
X124573866Y-74285713D01*
X124573866Y-74285713D02*
X124764342Y-74285713D01*
X124764342Y-74285713D02*
X124859580Y-74238094D01*
X124859580Y-74238094D02*
X124907200Y-74190475D01*
X124907200Y-74190475D02*
X124954819Y-74095237D01*
X124954819Y-74095237D02*
X124954819Y-73904761D01*
X124954819Y-73904761D02*
X124907200Y-73809523D01*
X124907200Y-73809523D02*
X124859580Y-73761904D01*
X124859580Y-73761904D02*
X124764342Y-73714285D01*
X124764342Y-73714285D02*
X124573866Y-73714285D01*
X124573866Y-73714285D02*
X124478628Y-73761904D01*
X124478628Y-73761904D02*
X124431009Y-73809523D01*
X124431009Y-73809523D02*
X124383390Y-73904761D01*
X114799693Y-63093518D02*
X114092587Y-62386411D01*
X114092587Y-62386411D02*
X114260945Y-62218052D01*
X114260945Y-62218052D02*
X114395632Y-62150709D01*
X114395632Y-62150709D02*
X114530319Y-62150709D01*
X114530319Y-62150709D02*
X114631335Y-62184381D01*
X114631335Y-62184381D02*
X114799693Y-62285396D01*
X114799693Y-62285396D02*
X114900709Y-62386411D01*
X114900709Y-62386411D02*
X115001724Y-62554770D01*
X115001724Y-62554770D02*
X115035396Y-62655785D01*
X115035396Y-62655785D02*
X115035396Y-62790472D01*
X115035396Y-62790472D02*
X114968052Y-62925159D01*
X114968052Y-62925159D02*
X114799693Y-63093518D01*
X115338441Y-61611961D02*
X115809846Y-62083365D01*
X114900709Y-61510946D02*
X115237426Y-62184381D01*
X115237426Y-62184381D02*
X115675159Y-61746648D01*
X137583333Y-85454819D02*
X137250000Y-84978628D01*
X137011905Y-85454819D02*
X137011905Y-84454819D01*
X137011905Y-84454819D02*
X137392857Y-84454819D01*
X137392857Y-84454819D02*
X137488095Y-84502438D01*
X137488095Y-84502438D02*
X137535714Y-84550057D01*
X137535714Y-84550057D02*
X137583333Y-84645295D01*
X137583333Y-84645295D02*
X137583333Y-84788152D01*
X137583333Y-84788152D02*
X137535714Y-84883390D01*
X137535714Y-84883390D02*
X137488095Y-84931009D01*
X137488095Y-84931009D02*
X137392857Y-84978628D01*
X137392857Y-84978628D02*
X137011905Y-84978628D01*
X138535714Y-85454819D02*
X137964286Y-85454819D01*
X138250000Y-85454819D02*
X138250000Y-84454819D01*
X138250000Y-84454819D02*
X138154762Y-84597676D01*
X138154762Y-84597676D02*
X138059524Y-84692914D01*
X138059524Y-84692914D02*
X137964286Y-84740533D01*
X119511905Y-55854819D02*
X119511905Y-54854819D01*
X119511905Y-54854819D02*
X119750000Y-54854819D01*
X119750000Y-54854819D02*
X119892857Y-54902438D01*
X119892857Y-54902438D02*
X119988095Y-54997676D01*
X119988095Y-54997676D02*
X120035714Y-55092914D01*
X120035714Y-55092914D02*
X120083333Y-55283390D01*
X120083333Y-55283390D02*
X120083333Y-55426247D01*
X120083333Y-55426247D02*
X120035714Y-55616723D01*
X120035714Y-55616723D02*
X119988095Y-55711961D01*
X119988095Y-55711961D02*
X119892857Y-55807200D01*
X119892857Y-55807200D02*
X119750000Y-55854819D01*
X119750000Y-55854819D02*
X119511905Y-55854819D01*
X120940476Y-54854819D02*
X120750000Y-54854819D01*
X120750000Y-54854819D02*
X120654762Y-54902438D01*
X120654762Y-54902438D02*
X120607143Y-54950057D01*
X120607143Y-54950057D02*
X120511905Y-55092914D01*
X120511905Y-55092914D02*
X120464286Y-55283390D01*
X120464286Y-55283390D02*
X120464286Y-55664342D01*
X120464286Y-55664342D02*
X120511905Y-55759580D01*
X120511905Y-55759580D02*
X120559524Y-55807200D01*
X120559524Y-55807200D02*
X120654762Y-55854819D01*
X120654762Y-55854819D02*
X120845238Y-55854819D01*
X120845238Y-55854819D02*
X120940476Y-55807200D01*
X120940476Y-55807200D02*
X120988095Y-55759580D01*
X120988095Y-55759580D02*
X121035714Y-55664342D01*
X121035714Y-55664342D02*
X121035714Y-55426247D01*
X121035714Y-55426247D02*
X120988095Y-55331009D01*
X120988095Y-55331009D02*
X120940476Y-55283390D01*
X120940476Y-55283390D02*
X120845238Y-55235771D01*
X120845238Y-55235771D02*
X120654762Y-55235771D01*
X120654762Y-55235771D02*
X120559524Y-55283390D01*
X120559524Y-55283390D02*
X120511905Y-55331009D01*
X120511905Y-55331009D02*
X120464286Y-55426247D01*
X170049693Y-81343517D02*
X169342587Y-80636410D01*
X169342587Y-80636410D02*
X169510945Y-80468051D01*
X169510945Y-80468051D02*
X169645632Y-80400708D01*
X169645632Y-80400708D02*
X169780319Y-80400708D01*
X169780319Y-80400708D02*
X169881335Y-80434380D01*
X169881335Y-80434380D02*
X170049693Y-80535395D01*
X170049693Y-80535395D02*
X170150709Y-80636410D01*
X170150709Y-80636410D02*
X170251724Y-80804769D01*
X170251724Y-80804769D02*
X170285396Y-80905784D01*
X170285396Y-80905784D02*
X170285396Y-81040471D01*
X170285396Y-81040471D02*
X170218052Y-81175158D01*
X170218052Y-81175158D02*
X170049693Y-81343517D01*
X170386411Y-79592586D02*
X170049693Y-79929303D01*
X170049693Y-79929303D02*
X170352739Y-80299693D01*
X170352739Y-80299693D02*
X170352739Y-80232349D01*
X170352739Y-80232349D02*
X170386411Y-80131334D01*
X170386411Y-80131334D02*
X170554770Y-79962975D01*
X170554770Y-79962975D02*
X170655785Y-79929303D01*
X170655785Y-79929303D02*
X170723128Y-79929303D01*
X170723128Y-79929303D02*
X170824144Y-79962975D01*
X170824144Y-79962975D02*
X170992502Y-80131334D01*
X170992502Y-80131334D02*
X171026174Y-80232349D01*
X171026174Y-80232349D02*
X171026174Y-80299693D01*
X171026174Y-80299693D02*
X170992502Y-80400708D01*
X170992502Y-80400708D02*
X170824144Y-80569067D01*
X170824144Y-80569067D02*
X170723128Y-80602738D01*
X170723128Y-80602738D02*
X170655785Y-80602738D01*
D10*
X166633333Y-74568633D02*
X166400000Y-74235300D01*
X166233333Y-74568633D02*
X166233333Y-73868633D01*
X166233333Y-73868633D02*
X166500000Y-73868633D01*
X166500000Y-73868633D02*
X166566667Y-73901966D01*
X166566667Y-73901966D02*
X166600000Y-73935300D01*
X166600000Y-73935300D02*
X166633333Y-74001966D01*
X166633333Y-74001966D02*
X166633333Y-74101966D01*
X166633333Y-74101966D02*
X166600000Y-74168633D01*
X166600000Y-74168633D02*
X166566667Y-74201966D01*
X166566667Y-74201966D02*
X166500000Y-74235300D01*
X166500000Y-74235300D02*
X166233333Y-74235300D01*
X167233333Y-74101966D02*
X167233333Y-74568633D01*
X167066667Y-73835300D02*
X166900000Y-74335300D01*
X166900000Y-74335300D02*
X167333333Y-74335300D01*
X166627663Y-71568633D02*
X166394330Y-71235300D01*
X166227663Y-71568633D02*
X166227663Y-70868633D01*
X166227663Y-70868633D02*
X166494330Y-70868633D01*
X166494330Y-70868633D02*
X166560997Y-70901966D01*
X166560997Y-70901966D02*
X166594330Y-70935300D01*
X166594330Y-70935300D02*
X166627663Y-71001966D01*
X166627663Y-71001966D02*
X166627663Y-71101966D01*
X166627663Y-71101966D02*
X166594330Y-71168633D01*
X166594330Y-71168633D02*
X166560997Y-71201966D01*
X166560997Y-71201966D02*
X166494330Y-71235300D01*
X166494330Y-71235300D02*
X166227663Y-71235300D01*
X166860997Y-70868633D02*
X167294330Y-70868633D01*
X167294330Y-70868633D02*
X167060997Y-71135300D01*
X167060997Y-71135300D02*
X167160997Y-71135300D01*
X167160997Y-71135300D02*
X167227663Y-71168633D01*
X167227663Y-71168633D02*
X167260997Y-71201966D01*
X167260997Y-71201966D02*
X167294330Y-71268633D01*
X167294330Y-71268633D02*
X167294330Y-71435300D01*
X167294330Y-71435300D02*
X167260997Y-71501966D01*
X167260997Y-71501966D02*
X167227663Y-71535300D01*
X167227663Y-71535300D02*
X167160997Y-71568633D01*
X167160997Y-71568633D02*
X166960997Y-71568633D01*
X166960997Y-71568633D02*
X166894330Y-71535300D01*
X166894330Y-71535300D02*
X166860997Y-71501966D01*
D12*
X143011905Y-89454819D02*
X143011905Y-88454819D01*
X143011905Y-88454819D02*
X143250000Y-88454819D01*
X143250000Y-88454819D02*
X143392857Y-88502438D01*
X143392857Y-88502438D02*
X143488095Y-88597676D01*
X143488095Y-88597676D02*
X143535714Y-88692914D01*
X143535714Y-88692914D02*
X143583333Y-88883390D01*
X143583333Y-88883390D02*
X143583333Y-89026247D01*
X143583333Y-89026247D02*
X143535714Y-89216723D01*
X143535714Y-89216723D02*
X143488095Y-89311961D01*
X143488095Y-89311961D02*
X143392857Y-89407200D01*
X143392857Y-89407200D02*
X143250000Y-89454819D01*
X143250000Y-89454819D02*
X143011905Y-89454819D01*
X144535714Y-89454819D02*
X143964286Y-89454819D01*
X144250000Y-89454819D02*
X144250000Y-88454819D01*
X144250000Y-88454819D02*
X144154762Y-88597676D01*
X144154762Y-88597676D02*
X144059524Y-88692914D01*
X144059524Y-88692914D02*
X143964286Y-88740533D01*
X121354819Y-59142857D02*
X120878628Y-59476190D01*
X121354819Y-59714285D02*
X120354819Y-59714285D01*
X120354819Y-59714285D02*
X120354819Y-59333333D01*
X120354819Y-59333333D02*
X120402438Y-59238095D01*
X120402438Y-59238095D02*
X120450057Y-59190476D01*
X120450057Y-59190476D02*
X120545295Y-59142857D01*
X120545295Y-59142857D02*
X120688152Y-59142857D01*
X120688152Y-59142857D02*
X120783390Y-59190476D01*
X120783390Y-59190476D02*
X120831009Y-59238095D01*
X120831009Y-59238095D02*
X120878628Y-59333333D01*
X120878628Y-59333333D02*
X120878628Y-59714285D01*
X121354819Y-58190476D02*
X121354819Y-58761904D01*
X121354819Y-58476190D02*
X120354819Y-58476190D01*
X120354819Y-58476190D02*
X120497676Y-58571428D01*
X120497676Y-58571428D02*
X120592914Y-58666666D01*
X120592914Y-58666666D02*
X120640533Y-58761904D01*
X121354819Y-57238095D02*
X121354819Y-57809523D01*
X121354819Y-57523809D02*
X120354819Y-57523809D01*
X120354819Y-57523809D02*
X120497676Y-57619047D01*
X120497676Y-57619047D02*
X120592914Y-57714285D01*
X120592914Y-57714285D02*
X120640533Y-57809523D01*
X147857142Y-73804819D02*
X147523809Y-73328628D01*
X147285714Y-73804819D02*
X147285714Y-72804819D01*
X147285714Y-72804819D02*
X147666666Y-72804819D01*
X147666666Y-72804819D02*
X147761904Y-72852438D01*
X147761904Y-72852438D02*
X147809523Y-72900057D01*
X147809523Y-72900057D02*
X147857142Y-72995295D01*
X147857142Y-72995295D02*
X147857142Y-73138152D01*
X147857142Y-73138152D02*
X147809523Y-73233390D01*
X147809523Y-73233390D02*
X147761904Y-73281009D01*
X147761904Y-73281009D02*
X147666666Y-73328628D01*
X147666666Y-73328628D02*
X147285714Y-73328628D01*
X148809523Y-73804819D02*
X148238095Y-73804819D01*
X148523809Y-73804819D02*
X148523809Y-72804819D01*
X148523809Y-72804819D02*
X148428571Y-72947676D01*
X148428571Y-72947676D02*
X148333333Y-73042914D01*
X148333333Y-73042914D02*
X148238095Y-73090533D01*
X149714285Y-72804819D02*
X149238095Y-72804819D01*
X149238095Y-72804819D02*
X149190476Y-73281009D01*
X149190476Y-73281009D02*
X149238095Y-73233390D01*
X149238095Y-73233390D02*
X149333333Y-73185771D01*
X149333333Y-73185771D02*
X149571428Y-73185771D01*
X149571428Y-73185771D02*
X149666666Y-73233390D01*
X149666666Y-73233390D02*
X149714285Y-73281009D01*
X149714285Y-73281009D02*
X149761904Y-73376247D01*
X149761904Y-73376247D02*
X149761904Y-73614342D01*
X149761904Y-73614342D02*
X149714285Y-73709580D01*
X149714285Y-73709580D02*
X149666666Y-73757200D01*
X149666666Y-73757200D02*
X149571428Y-73804819D01*
X149571428Y-73804819D02*
X149333333Y-73804819D01*
X149333333Y-73804819D02*
X149238095Y-73757200D01*
X149238095Y-73757200D02*
X149190476Y-73709580D01*
X121454819Y-74916666D02*
X120978628Y-75249999D01*
X121454819Y-75488094D02*
X120454819Y-75488094D01*
X120454819Y-75488094D02*
X120454819Y-75107142D01*
X120454819Y-75107142D02*
X120502438Y-75011904D01*
X120502438Y-75011904D02*
X120550057Y-74964285D01*
X120550057Y-74964285D02*
X120645295Y-74916666D01*
X120645295Y-74916666D02*
X120788152Y-74916666D01*
X120788152Y-74916666D02*
X120883390Y-74964285D01*
X120883390Y-74964285D02*
X120931009Y-75011904D01*
X120931009Y-75011904D02*
X120978628Y-75107142D01*
X120978628Y-75107142D02*
X120978628Y-75488094D01*
X120550057Y-74535713D02*
X120502438Y-74488094D01*
X120502438Y-74488094D02*
X120454819Y-74392856D01*
X120454819Y-74392856D02*
X120454819Y-74154761D01*
X120454819Y-74154761D02*
X120502438Y-74059523D01*
X120502438Y-74059523D02*
X120550057Y-74011904D01*
X120550057Y-74011904D02*
X120645295Y-73964285D01*
X120645295Y-73964285D02*
X120740533Y-73964285D01*
X120740533Y-73964285D02*
X120883390Y-74011904D01*
X120883390Y-74011904D02*
X121454819Y-74583332D01*
X121454819Y-74583332D02*
X121454819Y-73964285D01*
X167549693Y-79208830D02*
X167549693Y-79276174D01*
X167549693Y-79276174D02*
X167482349Y-79410861D01*
X167482349Y-79410861D02*
X167415006Y-79478204D01*
X167415006Y-79478204D02*
X167280319Y-79545548D01*
X167280319Y-79545548D02*
X167145632Y-79545548D01*
X167145632Y-79545548D02*
X167044617Y-79511876D01*
X167044617Y-79511876D02*
X166876258Y-79410861D01*
X166876258Y-79410861D02*
X166775243Y-79309846D01*
X166775243Y-79309846D02*
X166674227Y-79141487D01*
X166674227Y-79141487D02*
X166640556Y-79040472D01*
X166640556Y-79040472D02*
X166640556Y-78905785D01*
X166640556Y-78905785D02*
X166707899Y-78771098D01*
X166707899Y-78771098D02*
X166775243Y-78703754D01*
X166775243Y-78703754D02*
X166909930Y-78636411D01*
X166909930Y-78636411D02*
X166977273Y-78636411D01*
X168290471Y-78602739D02*
X167886410Y-79006800D01*
X168088441Y-78804769D02*
X167381334Y-78097663D01*
X167381334Y-78097663D02*
X167415006Y-78266021D01*
X167415006Y-78266021D02*
X167415006Y-78400708D01*
X167415006Y-78400708D02*
X167381334Y-78501724D01*
X168425159Y-77525243D02*
X168896563Y-77996647D01*
X167987426Y-77424227D02*
X168324143Y-78097662D01*
X168324143Y-78097662D02*
X168761876Y-77659930D01*
X168583333Y-76859580D02*
X168535714Y-76907200D01*
X168535714Y-76907200D02*
X168392857Y-76954819D01*
X168392857Y-76954819D02*
X168297619Y-76954819D01*
X168297619Y-76954819D02*
X168154762Y-76907200D01*
X168154762Y-76907200D02*
X168059524Y-76811961D01*
X168059524Y-76811961D02*
X168011905Y-76716723D01*
X168011905Y-76716723D02*
X167964286Y-76526247D01*
X167964286Y-76526247D02*
X167964286Y-76383390D01*
X167964286Y-76383390D02*
X168011905Y-76192914D01*
X168011905Y-76192914D02*
X168059524Y-76097676D01*
X168059524Y-76097676D02*
X168154762Y-76002438D01*
X168154762Y-76002438D02*
X168297619Y-75954819D01*
X168297619Y-75954819D02*
X168392857Y-75954819D01*
X168392857Y-75954819D02*
X168535714Y-76002438D01*
X168535714Y-76002438D02*
X168583333Y-76050057D01*
X169440476Y-75954819D02*
X169250000Y-75954819D01*
X169250000Y-75954819D02*
X169154762Y-76002438D01*
X169154762Y-76002438D02*
X169107143Y-76050057D01*
X169107143Y-76050057D02*
X169011905Y-76192914D01*
X169011905Y-76192914D02*
X168964286Y-76383390D01*
X168964286Y-76383390D02*
X168964286Y-76764342D01*
X168964286Y-76764342D02*
X169011905Y-76859580D01*
X169011905Y-76859580D02*
X169059524Y-76907200D01*
X169059524Y-76907200D02*
X169154762Y-76954819D01*
X169154762Y-76954819D02*
X169345238Y-76954819D01*
X169345238Y-76954819D02*
X169440476Y-76907200D01*
X169440476Y-76907200D02*
X169488095Y-76859580D01*
X169488095Y-76859580D02*
X169535714Y-76764342D01*
X169535714Y-76764342D02*
X169535714Y-76526247D01*
X169535714Y-76526247D02*
X169488095Y-76431009D01*
X169488095Y-76431009D02*
X169440476Y-76383390D01*
X169440476Y-76383390D02*
X169345238Y-76335771D01*
X169345238Y-76335771D02*
X169154762Y-76335771D01*
X169154762Y-76335771D02*
X169059524Y-76383390D01*
X169059524Y-76383390D02*
X169011905Y-76431009D01*
X169011905Y-76431009D02*
X168964286Y-76526247D01*
X135357142Y-73804819D02*
X135023809Y-73328628D01*
X134785714Y-73804819D02*
X134785714Y-72804819D01*
X134785714Y-72804819D02*
X135166666Y-72804819D01*
X135166666Y-72804819D02*
X135261904Y-72852438D01*
X135261904Y-72852438D02*
X135309523Y-72900057D01*
X135309523Y-72900057D02*
X135357142Y-72995295D01*
X135357142Y-72995295D02*
X135357142Y-73138152D01*
X135357142Y-73138152D02*
X135309523Y-73233390D01*
X135309523Y-73233390D02*
X135261904Y-73281009D01*
X135261904Y-73281009D02*
X135166666Y-73328628D01*
X135166666Y-73328628D02*
X134785714Y-73328628D01*
X136309523Y-73804819D02*
X135738095Y-73804819D01*
X136023809Y-73804819D02*
X136023809Y-72804819D01*
X136023809Y-72804819D02*
X135928571Y-72947676D01*
X135928571Y-72947676D02*
X135833333Y-73042914D01*
X135833333Y-73042914D02*
X135738095Y-73090533D01*
X136690476Y-72900057D02*
X136738095Y-72852438D01*
X136738095Y-72852438D02*
X136833333Y-72804819D01*
X136833333Y-72804819D02*
X137071428Y-72804819D01*
X137071428Y-72804819D02*
X137166666Y-72852438D01*
X137166666Y-72852438D02*
X137214285Y-72900057D01*
X137214285Y-72900057D02*
X137261904Y-72995295D01*
X137261904Y-72995295D02*
X137261904Y-73090533D01*
X137261904Y-73090533D02*
X137214285Y-73233390D01*
X137214285Y-73233390D02*
X136642857Y-73804819D01*
X136642857Y-73804819D02*
X137261904Y-73804819D01*
X152357142Y-73804819D02*
X152023809Y-73328628D01*
X151785714Y-73804819D02*
X151785714Y-72804819D01*
X151785714Y-72804819D02*
X152166666Y-72804819D01*
X152166666Y-72804819D02*
X152261904Y-72852438D01*
X152261904Y-72852438D02*
X152309523Y-72900057D01*
X152309523Y-72900057D02*
X152357142Y-72995295D01*
X152357142Y-72995295D02*
X152357142Y-73138152D01*
X152357142Y-73138152D02*
X152309523Y-73233390D01*
X152309523Y-73233390D02*
X152261904Y-73281009D01*
X152261904Y-73281009D02*
X152166666Y-73328628D01*
X152166666Y-73328628D02*
X151785714Y-73328628D01*
X153309523Y-73804819D02*
X152738095Y-73804819D01*
X153023809Y-73804819D02*
X153023809Y-72804819D01*
X153023809Y-72804819D02*
X152928571Y-72947676D01*
X152928571Y-72947676D02*
X152833333Y-73042914D01*
X152833333Y-73042914D02*
X152738095Y-73090533D01*
X153642857Y-72804819D02*
X154261904Y-72804819D01*
X154261904Y-72804819D02*
X153928571Y-73185771D01*
X153928571Y-73185771D02*
X154071428Y-73185771D01*
X154071428Y-73185771D02*
X154166666Y-73233390D01*
X154166666Y-73233390D02*
X154214285Y-73281009D01*
X154214285Y-73281009D02*
X154261904Y-73376247D01*
X154261904Y-73376247D02*
X154261904Y-73614342D01*
X154261904Y-73614342D02*
X154214285Y-73709580D01*
X154214285Y-73709580D02*
X154166666Y-73757200D01*
X154166666Y-73757200D02*
X154071428Y-73804819D01*
X154071428Y-73804819D02*
X153785714Y-73804819D01*
X153785714Y-73804819D02*
X153690476Y-73757200D01*
X153690476Y-73757200D02*
X153642857Y-73709580D01*
D10*
X167627663Y-68318633D02*
X167394330Y-67985300D01*
X167227663Y-68318633D02*
X167227663Y-67618633D01*
X167227663Y-67618633D02*
X167494330Y-67618633D01*
X167494330Y-67618633D02*
X167560997Y-67651966D01*
X167560997Y-67651966D02*
X167594330Y-67685300D01*
X167594330Y-67685300D02*
X167627663Y-67751966D01*
X167627663Y-67751966D02*
X167627663Y-67851966D01*
X167627663Y-67851966D02*
X167594330Y-67918633D01*
X167594330Y-67918633D02*
X167560997Y-67951966D01*
X167560997Y-67951966D02*
X167494330Y-67985300D01*
X167494330Y-67985300D02*
X167227663Y-67985300D01*
X168260997Y-67618633D02*
X167927663Y-67618633D01*
X167927663Y-67618633D02*
X167894330Y-67951966D01*
X167894330Y-67951966D02*
X167927663Y-67918633D01*
X167927663Y-67918633D02*
X167994330Y-67885300D01*
X167994330Y-67885300D02*
X168160997Y-67885300D01*
X168160997Y-67885300D02*
X168227663Y-67918633D01*
X168227663Y-67918633D02*
X168260997Y-67951966D01*
X168260997Y-67951966D02*
X168294330Y-68018633D01*
X168294330Y-68018633D02*
X168294330Y-68185300D01*
X168294330Y-68185300D02*
X168260997Y-68251966D01*
X168260997Y-68251966D02*
X168227663Y-68285300D01*
X168227663Y-68285300D02*
X168160997Y-68318633D01*
X168160997Y-68318633D02*
X167994330Y-68318633D01*
X167994330Y-68318633D02*
X167927663Y-68285300D01*
X167927663Y-68285300D02*
X167894330Y-68251966D01*
D12*
X123109580Y-70166666D02*
X123157200Y-70214285D01*
X123157200Y-70214285D02*
X123204819Y-70357142D01*
X123204819Y-70357142D02*
X123204819Y-70452380D01*
X123204819Y-70452380D02*
X123157200Y-70595237D01*
X123157200Y-70595237D02*
X123061961Y-70690475D01*
X123061961Y-70690475D02*
X122966723Y-70738094D01*
X122966723Y-70738094D02*
X122776247Y-70785713D01*
X122776247Y-70785713D02*
X122633390Y-70785713D01*
X122633390Y-70785713D02*
X122442914Y-70738094D01*
X122442914Y-70738094D02*
X122347676Y-70690475D01*
X122347676Y-70690475D02*
X122252438Y-70595237D01*
X122252438Y-70595237D02*
X122204819Y-70452380D01*
X122204819Y-70452380D02*
X122204819Y-70357142D01*
X122204819Y-70357142D02*
X122252438Y-70214285D01*
X122252438Y-70214285D02*
X122300057Y-70166666D01*
X122204819Y-69261904D02*
X122204819Y-69738094D01*
X122204819Y-69738094D02*
X122681009Y-69785713D01*
X122681009Y-69785713D02*
X122633390Y-69738094D01*
X122633390Y-69738094D02*
X122585771Y-69642856D01*
X122585771Y-69642856D02*
X122585771Y-69404761D01*
X122585771Y-69404761D02*
X122633390Y-69309523D01*
X122633390Y-69309523D02*
X122681009Y-69261904D01*
X122681009Y-69261904D02*
X122776247Y-69214285D01*
X122776247Y-69214285D02*
X123014342Y-69214285D01*
X123014342Y-69214285D02*
X123109580Y-69261904D01*
X123109580Y-69261904D02*
X123157200Y-69309523D01*
X123157200Y-69309523D02*
X123204819Y-69404761D01*
X123204819Y-69404761D02*
X123204819Y-69642856D01*
X123204819Y-69642856D02*
X123157200Y-69738094D01*
X123157200Y-69738094D02*
X123109580Y-69785713D01*
X124083333Y-63084579D02*
X124035714Y-63132199D01*
X124035714Y-63132199D02*
X123892857Y-63179818D01*
X123892857Y-63179818D02*
X123797619Y-63179818D01*
X123797619Y-63179818D02*
X123654762Y-63132199D01*
X123654762Y-63132199D02*
X123559524Y-63036960D01*
X123559524Y-63036960D02*
X123511905Y-62941722D01*
X123511905Y-62941722D02*
X123464286Y-62751246D01*
X123464286Y-62751246D02*
X123464286Y-62608389D01*
X123464286Y-62608389D02*
X123511905Y-62417913D01*
X123511905Y-62417913D02*
X123559524Y-62322675D01*
X123559524Y-62322675D02*
X123654762Y-62227437D01*
X123654762Y-62227437D02*
X123797619Y-62179818D01*
X123797619Y-62179818D02*
X123892857Y-62179818D01*
X123892857Y-62179818D02*
X124035714Y-62227437D01*
X124035714Y-62227437D02*
X124083333Y-62275056D01*
X124416667Y-62179818D02*
X125035714Y-62179818D01*
X125035714Y-62179818D02*
X124702381Y-62560770D01*
X124702381Y-62560770D02*
X124845238Y-62560770D01*
X124845238Y-62560770D02*
X124940476Y-62608389D01*
X124940476Y-62608389D02*
X124988095Y-62656008D01*
X124988095Y-62656008D02*
X125035714Y-62751246D01*
X125035714Y-62751246D02*
X125035714Y-62989341D01*
X125035714Y-62989341D02*
X124988095Y-63084579D01*
X124988095Y-63084579D02*
X124940476Y-63132199D01*
X124940476Y-63132199D02*
X124845238Y-63179818D01*
X124845238Y-63179818D02*
X124559524Y-63179818D01*
X124559524Y-63179818D02*
X124464286Y-63132199D01*
X124464286Y-63132199D02*
X124416667Y-63084579D01*
X167041169Y-61299694D02*
X166973825Y-61299694D01*
X166973825Y-61299694D02*
X166839138Y-61232350D01*
X166839138Y-61232350D02*
X166771795Y-61165007D01*
X166771795Y-61165007D02*
X166704451Y-61030320D01*
X166704451Y-61030320D02*
X166704451Y-60895633D01*
X166704451Y-60895633D02*
X166738123Y-60794618D01*
X166738123Y-60794618D02*
X166839138Y-60626259D01*
X166839138Y-60626259D02*
X166940153Y-60525244D01*
X166940153Y-60525244D02*
X167108512Y-60424228D01*
X167108512Y-60424228D02*
X167209527Y-60390557D01*
X167209527Y-60390557D02*
X167344214Y-60390557D01*
X167344214Y-60390557D02*
X167478901Y-60457900D01*
X167478901Y-60457900D02*
X167546245Y-60525244D01*
X167546245Y-60525244D02*
X167613588Y-60659931D01*
X167613588Y-60659931D02*
X167613588Y-60727274D01*
X167647260Y-62040472D02*
X167243199Y-61636411D01*
X167445230Y-61838442D02*
X168152336Y-61131335D01*
X168152336Y-61131335D02*
X167983978Y-61165007D01*
X167983978Y-61165007D02*
X167849291Y-61165007D01*
X167849291Y-61165007D02*
X167748275Y-61131335D01*
X168556398Y-61670083D02*
X168623741Y-61670083D01*
X168623741Y-61670083D02*
X168724756Y-61703755D01*
X168724756Y-61703755D02*
X168893115Y-61872114D01*
X168893115Y-61872114D02*
X168926787Y-61973129D01*
X168926787Y-61973129D02*
X168926787Y-62040473D01*
X168926787Y-62040473D02*
X168893115Y-62141488D01*
X168893115Y-62141488D02*
X168825772Y-62208831D01*
X168825772Y-62208831D02*
X168691085Y-62276175D01*
X168691085Y-62276175D02*
X167882963Y-62276175D01*
X167882963Y-62276175D02*
X168320695Y-62713908D01*
X170406482Y-62049693D02*
X171113589Y-61342587D01*
X171113589Y-61342587D02*
X171281948Y-61510945D01*
X171281948Y-61510945D02*
X171349291Y-61645632D01*
X171349291Y-61645632D02*
X171349291Y-61780319D01*
X171349291Y-61780319D02*
X171315619Y-61881335D01*
X171315619Y-61881335D02*
X171214604Y-62049693D01*
X171214604Y-62049693D02*
X171113589Y-62150709D01*
X171113589Y-62150709D02*
X170945230Y-62251724D01*
X170945230Y-62251724D02*
X170844215Y-62285396D01*
X170844215Y-62285396D02*
X170709528Y-62285396D01*
X170709528Y-62285396D02*
X170574841Y-62218052D01*
X170574841Y-62218052D02*
X170406482Y-62049693D01*
X171753352Y-61982350D02*
X172191085Y-62420083D01*
X172191085Y-62420083D02*
X171686009Y-62453754D01*
X171686009Y-62453754D02*
X171787024Y-62554770D01*
X171787024Y-62554770D02*
X171820696Y-62655785D01*
X171820696Y-62655785D02*
X171820696Y-62723128D01*
X171820696Y-62723128D02*
X171787024Y-62824144D01*
X171787024Y-62824144D02*
X171618665Y-62992502D01*
X171618665Y-62992502D02*
X171517650Y-63026174D01*
X171517650Y-63026174D02*
X171450306Y-63026174D01*
X171450306Y-63026174D02*
X171349291Y-62992502D01*
X171349291Y-62992502D02*
X171147261Y-62790472D01*
X171147261Y-62790472D02*
X171113589Y-62689457D01*
X171113589Y-62689457D02*
X171113589Y-62622113D01*
X116799693Y-65208829D02*
X116799693Y-65276173D01*
X116799693Y-65276173D02*
X116732349Y-65410860D01*
X116732349Y-65410860D02*
X116665006Y-65478203D01*
X116665006Y-65478203D02*
X116530319Y-65545547D01*
X116530319Y-65545547D02*
X116395632Y-65545547D01*
X116395632Y-65545547D02*
X116294617Y-65511875D01*
X116294617Y-65511875D02*
X116126258Y-65410860D01*
X116126258Y-65410860D02*
X116025243Y-65309845D01*
X116025243Y-65309845D02*
X115924227Y-65141486D01*
X115924227Y-65141486D02*
X115890556Y-65040471D01*
X115890556Y-65040471D02*
X115890556Y-64905784D01*
X115890556Y-64905784D02*
X115957899Y-64771097D01*
X115957899Y-64771097D02*
X116025243Y-64703753D01*
X116025243Y-64703753D02*
X116159930Y-64636410D01*
X116159930Y-64636410D02*
X116227273Y-64636410D01*
X117540471Y-64602738D02*
X117136410Y-65006799D01*
X117338441Y-64804768D02*
X116631334Y-64097662D01*
X116631334Y-64097662D02*
X116665006Y-64266020D01*
X116665006Y-64266020D02*
X116665006Y-64400707D01*
X116665006Y-64400707D02*
X116631334Y-64501723D01*
X117069067Y-63659929D02*
X117506800Y-63222196D01*
X117506800Y-63222196D02*
X117540472Y-63727272D01*
X117540472Y-63727272D02*
X117641487Y-63626257D01*
X117641487Y-63626257D02*
X117742502Y-63592585D01*
X117742502Y-63592585D02*
X117809846Y-63592585D01*
X117809846Y-63592585D02*
X117910861Y-63626257D01*
X117910861Y-63626257D02*
X118079220Y-63794616D01*
X118079220Y-63794616D02*
X118112891Y-63895631D01*
X118112891Y-63895631D02*
X118112891Y-63962974D01*
X118112891Y-63962974D02*
X118079220Y-64063990D01*
X118079220Y-64063990D02*
X117877189Y-64266020D01*
X117877189Y-64266020D02*
X117776174Y-64299692D01*
X117776174Y-64299692D02*
X117708830Y-64299692D01*
X114656482Y-80049693D02*
X115363589Y-79342587D01*
X115363589Y-79342587D02*
X115531948Y-79510945D01*
X115531948Y-79510945D02*
X115599291Y-79645632D01*
X115599291Y-79645632D02*
X115599291Y-79780319D01*
X115599291Y-79780319D02*
X115565619Y-79881335D01*
X115565619Y-79881335D02*
X115464604Y-80049693D01*
X115464604Y-80049693D02*
X115363589Y-80150709D01*
X115363589Y-80150709D02*
X115195230Y-80251724D01*
X115195230Y-80251724D02*
X115094215Y-80285396D01*
X115094215Y-80285396D02*
X114959528Y-80285396D01*
X114959528Y-80285396D02*
X114824841Y-80218052D01*
X114824841Y-80218052D02*
X114656482Y-80049693D01*
X115969680Y-80083365D02*
X116037024Y-80083365D01*
X116037024Y-80083365D02*
X116138039Y-80117037D01*
X116138039Y-80117037D02*
X116306398Y-80285396D01*
X116306398Y-80285396D02*
X116340070Y-80386411D01*
X116340070Y-80386411D02*
X116340070Y-80453754D01*
X116340070Y-80453754D02*
X116306398Y-80554770D01*
X116306398Y-80554770D02*
X116239054Y-80622113D01*
X116239054Y-80622113D02*
X116104367Y-80689457D01*
X116104367Y-80689457D02*
X115296245Y-80689457D01*
X115296245Y-80689457D02*
X115733978Y-81127189D01*
X160304825Y-60966240D02*
X160877245Y-61538660D01*
X160877245Y-61538660D02*
X160978260Y-61572332D01*
X160978260Y-61572332D02*
X161045604Y-61572332D01*
X161045604Y-61572332D02*
X161146619Y-61538660D01*
X161146619Y-61538660D02*
X161281306Y-61403973D01*
X161281306Y-61403973D02*
X161314978Y-61302958D01*
X161314978Y-61302958D02*
X161314978Y-61235614D01*
X161314978Y-61235614D02*
X161281306Y-61134599D01*
X161281306Y-61134599D02*
X160708886Y-60562179D01*
X160978260Y-60292805D02*
X161415993Y-59855073D01*
X161415993Y-59855073D02*
X161449665Y-60360149D01*
X161449665Y-60360149D02*
X161550680Y-60259134D01*
X161550680Y-60259134D02*
X161651695Y-60225462D01*
X161651695Y-60225462D02*
X161719039Y-60225462D01*
X161719039Y-60225462D02*
X161820054Y-60259134D01*
X161820054Y-60259134D02*
X161988413Y-60427492D01*
X161988413Y-60427492D02*
X162022085Y-60528508D01*
X162022085Y-60528508D02*
X162022085Y-60595851D01*
X162022085Y-60595851D02*
X161988413Y-60696866D01*
X161988413Y-60696866D02*
X161786382Y-60898897D01*
X161786382Y-60898897D02*
X161685367Y-60932569D01*
X161685367Y-60932569D02*
X161618024Y-60932569D01*
X156654761Y-55800057D02*
X156559523Y-55752438D01*
X156559523Y-55752438D02*
X156464285Y-55657200D01*
X156464285Y-55657200D02*
X156321428Y-55514342D01*
X156321428Y-55514342D02*
X156226190Y-55466723D01*
X156226190Y-55466723D02*
X156130952Y-55466723D01*
X156178571Y-55704819D02*
X156083333Y-55657200D01*
X156083333Y-55657200D02*
X155988095Y-55561961D01*
X155988095Y-55561961D02*
X155940476Y-55371485D01*
X155940476Y-55371485D02*
X155940476Y-55038152D01*
X155940476Y-55038152D02*
X155988095Y-54847676D01*
X155988095Y-54847676D02*
X156083333Y-54752438D01*
X156083333Y-54752438D02*
X156178571Y-54704819D01*
X156178571Y-54704819D02*
X156369047Y-54704819D01*
X156369047Y-54704819D02*
X156464285Y-54752438D01*
X156464285Y-54752438D02*
X156559523Y-54847676D01*
X156559523Y-54847676D02*
X156607142Y-55038152D01*
X156607142Y-55038152D02*
X156607142Y-55371485D01*
X156607142Y-55371485D02*
X156559523Y-55561961D01*
X156559523Y-55561961D02*
X156464285Y-55657200D01*
X156464285Y-55657200D02*
X156369047Y-55704819D01*
X156369047Y-55704819D02*
X156178571Y-55704819D01*
X157559523Y-55704819D02*
X156988095Y-55704819D01*
X157273809Y-55704819D02*
X157273809Y-54704819D01*
X157273809Y-54704819D02*
X157178571Y-54847676D01*
X157178571Y-54847676D02*
X157083333Y-54942914D01*
X157083333Y-54942914D02*
X156988095Y-54990533D01*
X117041169Y-78049693D02*
X116973825Y-78049693D01*
X116973825Y-78049693D02*
X116839138Y-77982349D01*
X116839138Y-77982349D02*
X116771795Y-77915006D01*
X116771795Y-77915006D02*
X116704451Y-77780319D01*
X116704451Y-77780319D02*
X116704451Y-77645632D01*
X116704451Y-77645632D02*
X116738123Y-77544617D01*
X116738123Y-77544617D02*
X116839138Y-77376258D01*
X116839138Y-77376258D02*
X116940153Y-77275243D01*
X116940153Y-77275243D02*
X117108512Y-77174227D01*
X117108512Y-77174227D02*
X117209527Y-77140556D01*
X117209527Y-77140556D02*
X117344214Y-77140556D01*
X117344214Y-77140556D02*
X117478901Y-77207899D01*
X117478901Y-77207899D02*
X117546245Y-77275243D01*
X117546245Y-77275243D02*
X117613588Y-77409930D01*
X117613588Y-77409930D02*
X117613588Y-77477273D01*
X117647260Y-78790471D02*
X117243199Y-78386410D01*
X117445230Y-78588441D02*
X118152336Y-77881334D01*
X118152336Y-77881334D02*
X117983978Y-77915006D01*
X117983978Y-77915006D02*
X117849291Y-77915006D01*
X117849291Y-77915006D02*
X117748275Y-77881334D01*
X118320695Y-79463907D02*
X117916634Y-79059846D01*
X118118665Y-79261876D02*
X118825772Y-78554769D01*
X118825772Y-78554769D02*
X118657413Y-78588441D01*
X118657413Y-78588441D02*
X118522726Y-78588441D01*
X118522726Y-78588441D02*
X118421711Y-78554769D01*
X129833333Y-52109580D02*
X129785714Y-52157200D01*
X129785714Y-52157200D02*
X129642857Y-52204819D01*
X129642857Y-52204819D02*
X129547619Y-52204819D01*
X129547619Y-52204819D02*
X129404762Y-52157200D01*
X129404762Y-52157200D02*
X129309524Y-52061961D01*
X129309524Y-52061961D02*
X129261905Y-51966723D01*
X129261905Y-51966723D02*
X129214286Y-51776247D01*
X129214286Y-51776247D02*
X129214286Y-51633390D01*
X129214286Y-51633390D02*
X129261905Y-51442914D01*
X129261905Y-51442914D02*
X129309524Y-51347676D01*
X129309524Y-51347676D02*
X129404762Y-51252438D01*
X129404762Y-51252438D02*
X129547619Y-51204819D01*
X129547619Y-51204819D02*
X129642857Y-51204819D01*
X129642857Y-51204819D02*
X129785714Y-51252438D01*
X129785714Y-51252438D02*
X129833333Y-51300057D01*
X130214286Y-51300057D02*
X130261905Y-51252438D01*
X130261905Y-51252438D02*
X130357143Y-51204819D01*
X130357143Y-51204819D02*
X130595238Y-51204819D01*
X130595238Y-51204819D02*
X130690476Y-51252438D01*
X130690476Y-51252438D02*
X130738095Y-51300057D01*
X130738095Y-51300057D02*
X130785714Y-51395295D01*
X130785714Y-51395295D02*
X130785714Y-51490533D01*
X130785714Y-51490533D02*
X130738095Y-51633390D01*
X130738095Y-51633390D02*
X130166667Y-52204819D01*
X130166667Y-52204819D02*
X130785714Y-52204819D01*
X131404761Y-82550057D02*
X131309523Y-82502438D01*
X131309523Y-82502438D02*
X131214285Y-82407200D01*
X131214285Y-82407200D02*
X131071428Y-82264342D01*
X131071428Y-82264342D02*
X130976190Y-82216723D01*
X130976190Y-82216723D02*
X130880952Y-82216723D01*
X130928571Y-82454819D02*
X130833333Y-82407200D01*
X130833333Y-82407200D02*
X130738095Y-82311961D01*
X130738095Y-82311961D02*
X130690476Y-82121485D01*
X130690476Y-82121485D02*
X130690476Y-81788152D01*
X130690476Y-81788152D02*
X130738095Y-81597676D01*
X130738095Y-81597676D02*
X130833333Y-81502438D01*
X130833333Y-81502438D02*
X130928571Y-81454819D01*
X130928571Y-81454819D02*
X131119047Y-81454819D01*
X131119047Y-81454819D02*
X131214285Y-81502438D01*
X131214285Y-81502438D02*
X131309523Y-81597676D01*
X131309523Y-81597676D02*
X131357142Y-81788152D01*
X131357142Y-81788152D02*
X131357142Y-82121485D01*
X131357142Y-82121485D02*
X131309523Y-82311961D01*
X131309523Y-82311961D02*
X131214285Y-82407200D01*
X131214285Y-82407200D02*
X131119047Y-82454819D01*
X131119047Y-82454819D02*
X130928571Y-82454819D01*
X132214285Y-81454819D02*
X132023809Y-81454819D01*
X132023809Y-81454819D02*
X131928571Y-81502438D01*
X131928571Y-81502438D02*
X131880952Y-81550057D01*
X131880952Y-81550057D02*
X131785714Y-81692914D01*
X131785714Y-81692914D02*
X131738095Y-81883390D01*
X131738095Y-81883390D02*
X131738095Y-82264342D01*
X131738095Y-82264342D02*
X131785714Y-82359580D01*
X131785714Y-82359580D02*
X131833333Y-82407200D01*
X131833333Y-82407200D02*
X131928571Y-82454819D01*
X131928571Y-82454819D02*
X132119047Y-82454819D01*
X132119047Y-82454819D02*
X132214285Y-82407200D01*
X132214285Y-82407200D02*
X132261904Y-82359580D01*
X132261904Y-82359580D02*
X132309523Y-82264342D01*
X132309523Y-82264342D02*
X132309523Y-82026247D01*
X132309523Y-82026247D02*
X132261904Y-81931009D01*
X132261904Y-81931009D02*
X132214285Y-81883390D01*
X132214285Y-81883390D02*
X132119047Y-81835771D01*
X132119047Y-81835771D02*
X131928571Y-81835771D01*
X131928571Y-81835771D02*
X131833333Y-81883390D01*
X131833333Y-81883390D02*
X131785714Y-81931009D01*
X131785714Y-81931009D02*
X131738095Y-82026247D01*
X126488095Y-53454819D02*
X126488095Y-54264342D01*
X126488095Y-54264342D02*
X126535714Y-54359580D01*
X126535714Y-54359580D02*
X126583333Y-54407200D01*
X126583333Y-54407200D02*
X126678571Y-54454819D01*
X126678571Y-54454819D02*
X126869047Y-54454819D01*
X126869047Y-54454819D02*
X126964285Y-54407200D01*
X126964285Y-54407200D02*
X127011904Y-54359580D01*
X127011904Y-54359580D02*
X127059523Y-54264342D01*
X127059523Y-54264342D02*
X127059523Y-53454819D01*
X127488095Y-53550057D02*
X127535714Y-53502438D01*
X127535714Y-53502438D02*
X127630952Y-53454819D01*
X127630952Y-53454819D02*
X127869047Y-53454819D01*
X127869047Y-53454819D02*
X127964285Y-53502438D01*
X127964285Y-53502438D02*
X128011904Y-53550057D01*
X128011904Y-53550057D02*
X128059523Y-53645295D01*
X128059523Y-53645295D02*
X128059523Y-53740533D01*
X128059523Y-53740533D02*
X128011904Y-53883390D01*
X128011904Y-53883390D02*
X127440476Y-54454819D01*
X127440476Y-54454819D02*
X128059523Y-54454819D01*
X156693332Y-60954819D02*
X156359999Y-60478628D01*
X156121904Y-60954819D02*
X156121904Y-59954819D01*
X156121904Y-59954819D02*
X156502856Y-59954819D01*
X156502856Y-59954819D02*
X156598094Y-60002438D01*
X156598094Y-60002438D02*
X156645713Y-60050057D01*
X156645713Y-60050057D02*
X156693332Y-60145295D01*
X156693332Y-60145295D02*
X156693332Y-60288152D01*
X156693332Y-60288152D02*
X156645713Y-60383390D01*
X156645713Y-60383390D02*
X156598094Y-60431009D01*
X156598094Y-60431009D02*
X156502856Y-60478628D01*
X156502856Y-60478628D02*
X156121904Y-60478628D01*
X157169523Y-60954819D02*
X157359999Y-60954819D01*
X157359999Y-60954819D02*
X157455237Y-60907200D01*
X157455237Y-60907200D02*
X157502856Y-60859580D01*
X157502856Y-60859580D02*
X157598094Y-60716723D01*
X157598094Y-60716723D02*
X157645713Y-60526247D01*
X157645713Y-60526247D02*
X157645713Y-60145295D01*
X157645713Y-60145295D02*
X157598094Y-60050057D01*
X157598094Y-60050057D02*
X157550475Y-60002438D01*
X157550475Y-60002438D02*
X157455237Y-59954819D01*
X157455237Y-59954819D02*
X157264761Y-59954819D01*
X157264761Y-59954819D02*
X157169523Y-60002438D01*
X157169523Y-60002438D02*
X157121904Y-60050057D01*
X157121904Y-60050057D02*
X157074285Y-60145295D01*
X157074285Y-60145295D02*
X157074285Y-60383390D01*
X157074285Y-60383390D02*
X157121904Y-60478628D01*
X157121904Y-60478628D02*
X157169523Y-60526247D01*
X157169523Y-60526247D02*
X157264761Y-60573866D01*
X157264761Y-60573866D02*
X157455237Y-60573866D01*
X157455237Y-60573866D02*
X157550475Y-60526247D01*
X157550475Y-60526247D02*
X157598094Y-60478628D01*
X157598094Y-60478628D02*
X157645713Y-60383390D01*
D13*
X168933333Y-65931407D02*
X168800000Y-65740931D01*
X168704762Y-65931407D02*
X168704762Y-65531407D01*
X168704762Y-65531407D02*
X168857143Y-65531407D01*
X168857143Y-65531407D02*
X168895238Y-65550455D01*
X168895238Y-65550455D02*
X168914285Y-65569502D01*
X168914285Y-65569502D02*
X168933333Y-65607598D01*
X168933333Y-65607598D02*
X168933333Y-65664740D01*
X168933333Y-65664740D02*
X168914285Y-65702836D01*
X168914285Y-65702836D02*
X168895238Y-65721883D01*
X168895238Y-65721883D02*
X168857143Y-65740931D01*
X168857143Y-65740931D02*
X168704762Y-65740931D01*
X169276190Y-65531407D02*
X169200000Y-65531407D01*
X169200000Y-65531407D02*
X169161904Y-65550455D01*
X169161904Y-65550455D02*
X169142857Y-65569502D01*
X169142857Y-65569502D02*
X169104762Y-65626645D01*
X169104762Y-65626645D02*
X169085714Y-65702836D01*
X169085714Y-65702836D02*
X169085714Y-65855217D01*
X169085714Y-65855217D02*
X169104762Y-65893312D01*
X169104762Y-65893312D02*
X169123809Y-65912360D01*
X169123809Y-65912360D02*
X169161904Y-65931407D01*
X169161904Y-65931407D02*
X169238095Y-65931407D01*
X169238095Y-65931407D02*
X169276190Y-65912360D01*
X169276190Y-65912360D02*
X169295238Y-65893312D01*
X169295238Y-65893312D02*
X169314285Y-65855217D01*
X169314285Y-65855217D02*
X169314285Y-65759979D01*
X169314285Y-65759979D02*
X169295238Y-65721883D01*
X169295238Y-65721883D02*
X169276190Y-65702836D01*
X169276190Y-65702836D02*
X169238095Y-65683788D01*
X169238095Y-65683788D02*
X169161904Y-65683788D01*
X169161904Y-65683788D02*
X169123809Y-65702836D01*
X169123809Y-65702836D02*
X169104762Y-65721883D01*
X169104762Y-65721883D02*
X169085714Y-65759979D01*
D11*
%TO.C,C7*%
X162609420Y-68196928D02*
X162890580Y-68196928D01*
X162609420Y-69216928D02*
X162890580Y-69216928D01*
%TO.C,C1*%
X129490000Y-53370580D02*
X129490000Y-53089420D01*
X130510000Y-53370580D02*
X130510000Y-53089420D01*
%TO.C,SW2*%
X155600000Y-73900000D02*
X155600000Y-70600000D01*
X155900000Y-73900000D02*
X155600000Y-73900000D01*
X158100000Y-73900000D02*
X158400000Y-73900000D01*
X158400000Y-73900000D02*
X158400000Y-70600000D01*
X155600000Y-70600000D02*
X155900000Y-70600000D01*
X158400000Y-70600000D02*
X158100000Y-70600000D01*
%TO.C,SW1*%
X128650000Y-70300001D02*
X128650000Y-73600001D01*
X128350000Y-70300001D02*
X128650000Y-70300001D01*
X126150000Y-70300001D02*
X125850000Y-70300001D01*
X125850000Y-70300001D02*
X125850000Y-73600001D01*
X128650000Y-73600001D02*
X128350000Y-73600001D01*
X125850000Y-73600001D02*
X126150000Y-73600001D01*
%TO.C,P1*%
X178900000Y-75420000D02*
X177200000Y-75420000D01*
X178900000Y-66080000D02*
X177200000Y-66080000D01*
%TO.C,U4*%
X139850000Y-74300000D02*
X139610000Y-73970000D01*
X140090000Y-73970000D01*
X139850000Y-74300000D01*
G36*
X139850000Y-74300000D02*
G01*
X139610000Y-73970000D01*
X140090000Y-73970000D01*
X139850000Y-74300000D01*
G37*
X144150000Y-78600000D02*
X144150000Y-78075000D01*
X144150000Y-78600000D02*
X143625000Y-78600000D01*
X144150000Y-74300000D02*
X144150000Y-74825000D01*
X144150000Y-74300000D02*
X143625000Y-74300000D01*
X140375000Y-74300000D02*
X140150000Y-74300000D01*
X139850000Y-78600000D02*
X140375000Y-78600000D01*
X139850000Y-78600000D02*
X139850000Y-78075000D01*
X139850000Y-74765000D02*
X139850000Y-74540000D01*
%TO.C,M5*%
X169912277Y-84050431D02*
X170916369Y-83046339D01*
X178199569Y-92337722D02*
X169912277Y-84050431D01*
X170916369Y-83046339D02*
X174098349Y-86228320D01*
X174098349Y-86228320D02*
X175788335Y-84538335D01*
X171729542Y-82671573D02*
X172153806Y-82247309D01*
X175512563Y-86383883D02*
X179401650Y-90272971D01*
X179401650Y-90272971D02*
X179755204Y-89919417D01*
X172365938Y-82883705D02*
X171729542Y-82671573D01*
X175866116Y-86030330D02*
X175512563Y-86383883D01*
X179755204Y-89919417D02*
X175866116Y-86030330D01*
X172153806Y-82247309D02*
X172365938Y-82883705D01*
X180893646Y-89643646D02*
X178199569Y-92337722D01*
X180893646Y-89643646D02*
X183587722Y-86949569D01*
X177280330Y-84616116D02*
X181169417Y-88505204D01*
X181169417Y-88505204D02*
X181522971Y-88151650D01*
X177633883Y-84262563D02*
X177280330Y-84616116D01*
X181522971Y-88151650D02*
X177633883Y-84262563D01*
X174296339Y-79666369D02*
X177478320Y-82848349D01*
X177478320Y-82848349D02*
X175788335Y-84538335D01*
X175300431Y-78662277D02*
X174296339Y-79666369D01*
X183587722Y-86949569D02*
X175300431Y-78662277D01*
%TO.C,M4*%
X115587723Y-58699569D02*
X114583631Y-59703661D01*
X107300431Y-50412278D02*
X115587723Y-58699569D01*
X114583631Y-59703661D02*
X111401651Y-56521680D01*
X111401651Y-56521680D02*
X109711665Y-58211665D01*
X113770458Y-60078427D02*
X113346194Y-60502691D01*
X109987437Y-56366117D02*
X106098350Y-52477029D01*
X106098350Y-52477029D02*
X105744796Y-52830583D01*
X113134062Y-59866295D02*
X113770458Y-60078427D01*
X109633884Y-56719670D02*
X109987437Y-56366117D01*
X105744796Y-52830583D02*
X109633884Y-56719670D01*
X113346194Y-60502691D02*
X113134062Y-59866295D01*
X104606354Y-53106354D02*
X107300431Y-50412278D01*
X104606354Y-53106354D02*
X101912278Y-55800431D01*
X108219670Y-58133884D02*
X104330583Y-54244796D01*
X104330583Y-54244796D02*
X103977029Y-54598350D01*
X107866117Y-58487437D02*
X108219670Y-58133884D01*
X103977029Y-54598350D02*
X107866117Y-58487437D01*
X111203661Y-63083631D02*
X108021680Y-59901651D01*
X108021680Y-59901651D02*
X109711665Y-58211665D01*
X110199569Y-64087723D02*
X111203661Y-63083631D01*
X101912278Y-55800431D02*
X110199569Y-64087723D01*
%TO.C,M3*%
X175550431Y-64087723D02*
X174546339Y-63083631D01*
X183837722Y-55800431D02*
X175550431Y-64087723D01*
X174546339Y-63083631D02*
X177728320Y-59901651D01*
X177728320Y-59901651D02*
X176038335Y-58211665D01*
X174171573Y-62270458D02*
X173747309Y-61846194D01*
X177883883Y-58487437D02*
X181772971Y-54598350D01*
X181772971Y-54598350D02*
X181419417Y-54244796D01*
X174383705Y-61634062D02*
X174171573Y-62270458D01*
X177530330Y-58133884D02*
X177883883Y-58487437D01*
X181419417Y-54244796D02*
X177530330Y-58133884D01*
X173747309Y-61846194D02*
X174383705Y-61634062D01*
X181143646Y-53106354D02*
X183837722Y-55800431D01*
X181143646Y-53106354D02*
X178449569Y-50412278D01*
X176116116Y-56719670D02*
X180005204Y-52830583D01*
X180005204Y-52830583D02*
X179651650Y-52477029D01*
X175762563Y-56366117D02*
X176116116Y-56719670D01*
X179651650Y-52477029D02*
X175762563Y-56366117D01*
X171166369Y-59703661D02*
X174348349Y-56521680D01*
X174348349Y-56521680D02*
X176038335Y-58211665D01*
X170162277Y-58699569D02*
X171166369Y-59703661D01*
X178449569Y-50412278D02*
X170162277Y-58699569D01*
%TO.C,M2*%
X110199569Y-78662277D02*
X111203661Y-79666369D01*
X101912278Y-86949569D02*
X110199569Y-78662277D01*
X111203661Y-79666369D02*
X108021680Y-82848349D01*
X108021680Y-82848349D02*
X109711665Y-84538335D01*
X111578427Y-80479542D02*
X112002691Y-80903806D01*
X107866117Y-84262563D02*
X103977029Y-88151650D01*
X103977029Y-88151650D02*
X104330583Y-88505204D01*
X111366295Y-81115938D02*
X111578427Y-80479542D01*
X108219670Y-84616116D02*
X107866117Y-84262563D01*
X104330583Y-88505204D02*
X108219670Y-84616116D01*
X112002691Y-80903806D02*
X111366295Y-81115938D01*
X104606354Y-89643646D02*
X101912278Y-86949569D01*
X104606354Y-89643646D02*
X107300431Y-92337722D01*
X109633884Y-86030330D02*
X105744796Y-89919417D01*
X105744796Y-89919417D02*
X106098350Y-90272971D01*
X109987437Y-86383883D02*
X109633884Y-86030330D01*
X106098350Y-90272971D02*
X109987437Y-86383883D01*
X114583631Y-83046339D02*
X111401651Y-86228320D01*
X111401651Y-86228320D02*
X109711665Y-84538335D01*
X115587723Y-84050431D02*
X114583631Y-83046339D01*
X107300431Y-92337722D02*
X115587723Y-84050431D01*
%TO.C,J1*%
X115360000Y-67690000D02*
X115360000Y-69110000D01*
X103640000Y-67690001D02*
X115360000Y-67690000D01*
X115360000Y-69110000D02*
X110860000Y-69110000D01*
X110860000Y-69110000D02*
X110860000Y-71500000D01*
X115050000Y-69950000D02*
X115050000Y-70550000D01*
X109750000Y-70000000D02*
X104250000Y-70000000D01*
X104250000Y-70000000D02*
X104250000Y-70500000D01*
X114450000Y-70250000D02*
X115050000Y-69950000D01*
X109750000Y-70500000D02*
X109750000Y-70000000D01*
X104250000Y-70500000D02*
X109750000Y-70500000D01*
X115050000Y-70550000D02*
X114450000Y-70250000D01*
X103639999Y-71500000D02*
X103640000Y-67690001D01*
X103639999Y-71500000D02*
X103640000Y-75310000D01*
X109750000Y-72500000D02*
X104250000Y-72500000D01*
X104250000Y-72500000D02*
X104250000Y-73000000D01*
X109750000Y-73000000D02*
X109750000Y-72500000D01*
X104250000Y-73000000D02*
X109750000Y-73000000D01*
X115360000Y-73890000D02*
X110860000Y-73890000D01*
X110860000Y-73890000D02*
X110860000Y-71500000D01*
X115360000Y-75310000D02*
X115360000Y-73890000D01*
X103640000Y-75310000D02*
X115360000Y-75310000D01*
%TO.C,C4*%
X130461252Y-63665000D02*
X129038748Y-63665000D01*
X130461252Y-66385000D02*
X129038748Y-66385000D01*
%TO.C,Q7*%
X146939999Y-79062499D02*
X146940000Y-78412499D01*
X146939999Y-79062499D02*
X146940000Y-79712499D01*
X150060001Y-79062499D02*
X150060000Y-78412499D01*
X150060001Y-79062499D02*
X150060000Y-79712499D01*
X150339999Y-78139999D02*
X150010000Y-77899999D01*
X150340000Y-77659999D01*
X150339999Y-78139999D01*
G36*
X150339999Y-78139999D02*
G01*
X150010000Y-77899999D01*
X150340000Y-77659999D01*
X150339999Y-78139999D01*
G37*
%TO.C,R8*%
X143735000Y-84227064D02*
X143735000Y-83772936D01*
X142265000Y-84227064D02*
X142265000Y-83772936D01*
%TO.C,Q4*%
X134439999Y-79062499D02*
X134440000Y-78412499D01*
X134439999Y-79062499D02*
X134440000Y-79712499D01*
X137560001Y-79062499D02*
X137560000Y-78412499D01*
X137560001Y-79062499D02*
X137560000Y-79712499D01*
X137839999Y-78139999D02*
X137510000Y-77899999D01*
X137840000Y-77659999D01*
X137839999Y-78139999D01*
G36*
X137839999Y-78139999D02*
G01*
X137510000Y-77899999D01*
X137840000Y-77659999D01*
X137839999Y-78139999D01*
G37*
%TO.C,R7*%
X147522936Y-86265000D02*
X147977064Y-86265000D01*
X147522936Y-87735000D02*
X147977064Y-87735000D01*
%TO.C,Q2*%
X158300001Y-63790001D02*
X154700001Y-63790001D01*
X156500001Y-68240001D02*
G75*
G02*
X154661523Y-63801523I0J2600000D01*
G01*
X158338479Y-63801523D02*
G75*
G02*
X156500001Y-68240001I-1838478J-1838478D01*
G01*
%TO.C,U1*%
X133550000Y-44900000D02*
X133550000Y-51100000D01*
X133550000Y-44900000D02*
X151950000Y-44900000D01*
X133550000Y-69750000D02*
X133550000Y-70750000D01*
X133550000Y-70750000D02*
X135050000Y-70750000D01*
X151950000Y-44900000D02*
X151950000Y-51100000D01*
X151950000Y-70750000D02*
X150450000Y-70750000D01*
X151950000Y-70750000D02*
X151950000Y-69750000D01*
X133550000Y-51775000D02*
X133050000Y-51775000D01*
X133550000Y-51275000D01*
X133550000Y-51775000D01*
G36*
X133550000Y-51775000D02*
G01*
X133050000Y-51775000D01*
X133550000Y-51275000D01*
X133550000Y-51775000D01*
G37*
%TO.C,R10*%
X160624999Y-53042936D02*
X160624999Y-53497064D01*
X162094999Y-53042936D02*
X162094999Y-53497064D01*
%TO.C,R14*%
X131360436Y-74265000D02*
X131814564Y-74265000D01*
X131360436Y-75735000D02*
X131814564Y-75735000D01*
%TO.C,Q5*%
X151439999Y-79062499D02*
X151440000Y-78412499D01*
X151439999Y-79062499D02*
X151440000Y-79712499D01*
X154560001Y-79062499D02*
X154560000Y-78412499D01*
X154560001Y-79062499D02*
X154560000Y-79712499D01*
X154839999Y-78139999D02*
X154510000Y-77899999D01*
X154840000Y-77659999D01*
X154839999Y-78139999D01*
G36*
X154839999Y-78139999D02*
G01*
X154510000Y-77899999D01*
X154840000Y-77659999D01*
X154839999Y-78139999D01*
G37*
%TO.C,C9*%
X159740000Y-72109419D02*
X159740000Y-72390581D01*
X160760000Y-72109419D02*
X160760000Y-72390581D01*
%TO.C,C8*%
X123740000Y-72140581D02*
X123740000Y-71859419D01*
X124760000Y-72140581D02*
X124760000Y-71859419D01*
%TO.C,D4*%
X112558614Y-63257071D02*
X113972828Y-64671285D01*
X112558614Y-63257071D02*
X115394112Y-60421573D01*
X113972828Y-64671285D02*
X116808326Y-61835787D01*
%TO.C,R1*%
X140735000Y-84139564D02*
X140735000Y-83685436D01*
X139265000Y-84139564D02*
X139265000Y-83685436D01*
%TO.C,D6*%
X119250000Y-54710000D02*
X122110000Y-54710000D01*
X122110000Y-52790000D02*
X119250000Y-52790000D01*
X122110000Y-54710000D02*
X122110000Y-52790000D01*
%TO.C,D5*%
X167874121Y-81461665D02*
X169288335Y-82875879D01*
X167874121Y-81461665D02*
X170709619Y-78626167D01*
X169288335Y-82875879D02*
X172123833Y-80040381D01*
%TO.C,R4*%
X166017266Y-73271928D02*
X167471394Y-73271928D01*
X166017266Y-75091928D02*
X167471394Y-75091928D01*
%TO.C,R3*%
X167468067Y-69851928D02*
X166020593Y-69851928D01*
X167468067Y-72561928D02*
X166020593Y-72561928D01*
%TO.C,D1*%
X141890000Y-86040000D02*
X141890000Y-87960000D01*
X141890000Y-87960000D02*
X144750000Y-87960000D01*
X144750000Y-86040000D02*
X141890000Y-86040000D01*
%TO.C,R11*%
X118515000Y-58272936D02*
X118515000Y-58727064D01*
X119985000Y-58272936D02*
X119985000Y-58727064D01*
%TO.C,R15*%
X148272936Y-74265000D02*
X148727064Y-74265000D01*
X148272936Y-75735000D02*
X148727064Y-75735000D01*
%TO.C,R2*%
X120265000Y-71847935D02*
X120265000Y-72302063D01*
X121735000Y-71847935D02*
X121735000Y-72302063D01*
%TO.C,C14*%
X168419190Y-79071693D02*
X168571693Y-78919190D01*
X168928307Y-79580810D02*
X169080810Y-79428307D01*
%TO.C,C6*%
X166636494Y-76071928D02*
X166852166Y-76071928D01*
X166636494Y-76791928D02*
X166852166Y-76791928D01*
%TO.C,R12*%
X135772936Y-74265000D02*
X136227064Y-74265000D01*
X135772936Y-75735000D02*
X136227064Y-75735000D01*
%TO.C,R13*%
X152772936Y-74265000D02*
X153227064Y-74265000D01*
X152772936Y-75735000D02*
X153227064Y-75735000D01*
%TO.C,R5*%
X168471394Y-67046928D02*
X167017266Y-67046928D01*
X168471394Y-68866928D02*
X167017266Y-68866928D01*
%TO.C,C5*%
X122390000Y-71967163D02*
X122390000Y-72182835D01*
X123110000Y-71967163D02*
X123110000Y-72182835D01*
%TO.C,C3*%
X123538748Y-63665000D02*
X124961252Y-63665000D01*
X123538748Y-66385000D02*
X124961252Y-66385000D01*
%TO.C,C12*%
X169571693Y-63580810D02*
X169419190Y-63428307D01*
X170080810Y-63071693D02*
X169928307Y-62919190D01*
%TO.C,D3*%
X172249533Y-64486792D02*
X169414035Y-61651294D01*
X172249533Y-64486792D02*
X173663747Y-63072578D01*
X173663747Y-63072578D02*
X170828249Y-60237080D01*
%TO.C,C13*%
X115853683Y-63367099D02*
X116006186Y-63214596D01*
X116362800Y-63876216D02*
X116515303Y-63723713D01*
%TO.C,D2*%
X116461665Y-82625879D02*
X113626167Y-79790381D01*
X116461665Y-82625879D02*
X117875879Y-81211665D01*
X117875879Y-81211665D02*
X115040381Y-78376167D01*
%TO.C,U3*%
X160737636Y-62987348D02*
X160437116Y-63287868D01*
X160737636Y-64012652D02*
X160394689Y-63669706D01*
X163403429Y-60321555D02*
X163916081Y-59808903D01*
X163916081Y-59808903D02*
X164428733Y-60321555D01*
X163916081Y-67191097D02*
X163403429Y-66678445D01*
X164428733Y-66678445D02*
X163916081Y-67191097D01*
X167094526Y-64012652D02*
X167607178Y-63500000D01*
X167607178Y-63500000D02*
X167094526Y-62987348D01*
X160224984Y-63500000D02*
X159821933Y-63436360D01*
X160161344Y-63096949D01*
X160224984Y-63500000D01*
G36*
X160224984Y-63500000D02*
G01*
X159821933Y-63436360D01*
X160161344Y-63096949D01*
X160224984Y-63500000D01*
G37*
D14*
%TO.C,G\u002A\u002A\u002A*%
G36*
X161396435Y-89010569D02*
G01*
X161396435Y-89089158D01*
X161355569Y-89089158D01*
X161314703Y-89089158D01*
X161314703Y-89010569D01*
X161314703Y-88931980D01*
X161355569Y-88931980D01*
X161396435Y-88931980D01*
X161396435Y-89010569D01*
G37*
G36*
X162370940Y-89010569D02*
G01*
X162370940Y-89089158D01*
X162333217Y-89089158D01*
X162295495Y-89089158D01*
X162295495Y-89010569D01*
X162295495Y-88931980D01*
X162333217Y-88931980D01*
X162370940Y-88931980D01*
X162370940Y-89010569D01*
G37*
G36*
X161543610Y-84501951D02*
G01*
X161565057Y-84508598D01*
X161593746Y-84518679D01*
X161627542Y-84531381D01*
X161664311Y-84545888D01*
X161701919Y-84561385D01*
X161738233Y-84577058D01*
X161758754Y-84586319D01*
X161882453Y-84647589D01*
X161995585Y-84712895D01*
X162099818Y-84783371D01*
X162196817Y-84860147D01*
X162288251Y-84944355D01*
X162292814Y-84948888D01*
X162356874Y-85014513D01*
X162412693Y-85075836D01*
X162462435Y-85135611D01*
X162508267Y-85196593D01*
X162552354Y-85261538D01*
X162596861Y-85333199D01*
X162603017Y-85343532D01*
X162628855Y-85388864D01*
X162657036Y-85441328D01*
X162686028Y-85497828D01*
X162714303Y-85555271D01*
X162740329Y-85610563D01*
X162762578Y-85660609D01*
X162776362Y-85694109D01*
X162801299Y-85759694D01*
X162825419Y-85826642D01*
X162848140Y-85893103D01*
X162868881Y-85957223D01*
X162887061Y-86017151D01*
X162902098Y-86071036D01*
X162913412Y-86117025D01*
X162920391Y-86153069D01*
X162923143Y-86169005D01*
X162927690Y-86193135D01*
X162933246Y-86221346D01*
X162935974Y-86234802D01*
X162953581Y-86327031D01*
X162967820Y-86416301D01*
X162978983Y-86505488D01*
X162987364Y-86597471D01*
X162993257Y-86695126D01*
X162996954Y-86801330D01*
X162997791Y-86841510D01*
X162998823Y-86945280D01*
X162997962Y-87040240D01*
X162995064Y-87130032D01*
X162989985Y-87218297D01*
X162982583Y-87308677D01*
X162977279Y-87362441D01*
X162973744Y-87401401D01*
X162970855Y-87442732D01*
X162968912Y-87481452D01*
X162968217Y-87512073D01*
X162969034Y-87547940D01*
X162972359Y-87575755D01*
X162979507Y-87596264D01*
X162991792Y-87610214D01*
X163010529Y-87618349D01*
X163037031Y-87621417D01*
X163072613Y-87620163D01*
X163118588Y-87615335D01*
X163144257Y-87612030D01*
X163183734Y-87606606D01*
X163223275Y-87600871D01*
X163259273Y-87595367D01*
X163288121Y-87590640D01*
X163298292Y-87588820D01*
X163363935Y-87574927D01*
X163435953Y-87556883D01*
X163511236Y-87535657D01*
X163586672Y-87512216D01*
X163659151Y-87487530D01*
X163725561Y-87462569D01*
X163782792Y-87438301D01*
X163785544Y-87437037D01*
X163899148Y-87378153D01*
X164005112Y-87310065D01*
X164102860Y-87233326D01*
X164191816Y-87148486D01*
X164271404Y-87056098D01*
X164341046Y-86956712D01*
X164400168Y-86850880D01*
X164402029Y-86847088D01*
X164416945Y-86816140D01*
X164429670Y-86788953D01*
X164439254Y-86767616D01*
X164444751Y-86754217D01*
X164445693Y-86750882D01*
X164447403Y-86744954D01*
X164453098Y-86746333D01*
X164463628Y-86755766D01*
X164479839Y-86774002D01*
X164500402Y-86799072D01*
X164552799Y-86867882D01*
X164595696Y-86932665D01*
X164630367Y-86995873D01*
X164658089Y-87059960D01*
X164680136Y-87127378D01*
X164689202Y-87162154D01*
X164695554Y-87189848D01*
X164700098Y-87214163D01*
X164703137Y-87238291D01*
X164704975Y-87265424D01*
X164705915Y-87298752D01*
X164706262Y-87341337D01*
X164706192Y-87383834D01*
X164705468Y-87417195D01*
X164703772Y-87444855D01*
X164700786Y-87470248D01*
X164696195Y-87496808D01*
X164689680Y-87527969D01*
X164688553Y-87533094D01*
X164676753Y-87582863D01*
X164664185Y-87627337D01*
X164649635Y-87669794D01*
X164631888Y-87713512D01*
X164609729Y-87761769D01*
X164586052Y-87809728D01*
X164531329Y-87909664D01*
X164467191Y-88011097D01*
X164392984Y-88114972D01*
X164308055Y-88222233D01*
X164268886Y-88268688D01*
X164216548Y-88327491D01*
X164155581Y-88392139D01*
X164087560Y-88461129D01*
X164014058Y-88532955D01*
X163936650Y-88606115D01*
X163856911Y-88679104D01*
X163776414Y-88750418D01*
X163696734Y-88818553D01*
X163670497Y-88840407D01*
X163643478Y-88863046D01*
X163625239Y-88879215D01*
X163614630Y-88890164D01*
X163610505Y-88897142D01*
X163611716Y-88901400D01*
X163613408Y-88902604D01*
X163625196Y-88905652D01*
X163647161Y-88908161D01*
X163676915Y-88910093D01*
X163712072Y-88911409D01*
X163750242Y-88912070D01*
X163789041Y-88912038D01*
X163826079Y-88911272D01*
X163858969Y-88909735D01*
X163885324Y-88907388D01*
X163887783Y-88907071D01*
X163968772Y-88892415D01*
X164055654Y-88869730D01*
X164145400Y-88839844D01*
X164177194Y-88827732D01*
X164223962Y-88808143D01*
X164277607Y-88783732D01*
X164334846Y-88756147D01*
X164392400Y-88727035D01*
X164446987Y-88698042D01*
X164495324Y-88670816D01*
X164522641Y-88654345D01*
X164544371Y-88640962D01*
X164561867Y-88630579D01*
X164572568Y-88624696D01*
X164574557Y-88623911D01*
X164581138Y-88620523D01*
X164596810Y-88610939D01*
X164620261Y-88596030D01*
X164650182Y-88576665D01*
X164685263Y-88553716D01*
X164724192Y-88528052D01*
X164765660Y-88500545D01*
X164808356Y-88472064D01*
X164850969Y-88443479D01*
X164892190Y-88415662D01*
X164930707Y-88389482D01*
X164965210Y-88365810D01*
X164994389Y-88345517D01*
X165005247Y-88337851D01*
X165037870Y-88314805D01*
X165067053Y-88294432D01*
X165091243Y-88277794D01*
X165108886Y-88265958D01*
X165118429Y-88259987D01*
X165119592Y-88259478D01*
X165121825Y-88263245D01*
X165121287Y-88275455D01*
X165117836Y-88296923D01*
X165111330Y-88328464D01*
X165101623Y-88370894D01*
X165095682Y-88395800D01*
X165070478Y-88494374D01*
X165042507Y-88593005D01*
X165012769Y-88688475D01*
X164982261Y-88777563D01*
X164954722Y-88850248D01*
X164942091Y-88881899D01*
X164928873Y-88915188D01*
X164917268Y-88944569D01*
X164913571Y-88953985D01*
X164900213Y-88985679D01*
X164881713Y-89026117D01*
X164859175Y-89073133D01*
X164833702Y-89124559D01*
X164806400Y-89178226D01*
X164778373Y-89231968D01*
X164750726Y-89283617D01*
X164724562Y-89331005D01*
X164700987Y-89371964D01*
X164698292Y-89376499D01*
X164586632Y-89551630D01*
X164465848Y-89718114D01*
X164336008Y-89875882D01*
X164197181Y-90024868D01*
X164049434Y-90165004D01*
X163892835Y-90296223D01*
X163727453Y-90418457D01*
X163553355Y-90531639D01*
X163499480Y-90563793D01*
X163419128Y-90608505D01*
X163329973Y-90654081D01*
X163235224Y-90699092D01*
X163138088Y-90742113D01*
X163041773Y-90781718D01*
X162949487Y-90816478D01*
X162873910Y-90842005D01*
X162805683Y-90862470D01*
X162732191Y-90882563D01*
X162655660Y-90901806D01*
X162578320Y-90919719D01*
X162502397Y-90935824D01*
X162430119Y-90949641D01*
X162363714Y-90960692D01*
X162305409Y-90968497D01*
X162270346Y-90971792D01*
X162241971Y-90974012D01*
X162207162Y-90977001D01*
X162171995Y-90980231D01*
X162160321Y-90981360D01*
X162126910Y-90984180D01*
X162091994Y-90986368D01*
X162061456Y-90987578D01*
X162052239Y-90987709D01*
X162029528Y-90988605D01*
X162012069Y-90990812D01*
X162003369Y-90993869D01*
X162003143Y-90994158D01*
X161995789Y-90996305D01*
X161978249Y-90997995D01*
X161952906Y-90999226D01*
X161922141Y-90999999D01*
X161888334Y-91000314D01*
X161853867Y-91000171D01*
X161821121Y-90999570D01*
X161792477Y-90998511D01*
X161770316Y-90996994D01*
X161757019Y-90995019D01*
X161754802Y-90994158D01*
X161744431Y-90991325D01*
X161725094Y-90989124D01*
X161700397Y-90987921D01*
X161691930Y-90987805D01*
X161659467Y-90986990D01*
X161621657Y-90985062D01*
X161585640Y-90982403D01*
X161578762Y-90981767D01*
X161542709Y-90978513D01*
X161502048Y-90975200D01*
X161464676Y-90972466D01*
X161459307Y-90972111D01*
X161366239Y-90963260D01*
X161264608Y-90948520D01*
X161156635Y-90928464D01*
X161044542Y-90903666D01*
X160930550Y-90874701D01*
X160816883Y-90842141D01*
X160705761Y-90806562D01*
X160599407Y-90768538D01*
X160500042Y-90728642D01*
X160475371Y-90717920D01*
X160361465Y-90664185D01*
X160247772Y-90604092D01*
X160136637Y-90539098D01*
X160030405Y-90470660D01*
X159931421Y-90400235D01*
X159842033Y-90329279D01*
X159822067Y-90312157D01*
X159771558Y-90267292D01*
X159720301Y-90220211D01*
X159669689Y-90172303D01*
X159621116Y-90124956D01*
X159575974Y-90079559D01*
X159535658Y-90037500D01*
X159501561Y-90000168D01*
X159475076Y-89968951D01*
X159466287Y-89957636D01*
X159452578Y-89939923D01*
X159435935Y-89919238D01*
X159428564Y-89910329D01*
X159396496Y-89869929D01*
X159360204Y-89820608D01*
X159321188Y-89764641D01*
X159280945Y-89704302D01*
X159240975Y-89641868D01*
X159202776Y-89579613D01*
X159167847Y-89519814D01*
X159149086Y-89486063D01*
X159078086Y-89346220D01*
X159014097Y-89201404D01*
X158959102Y-89056187D01*
X158947912Y-89023144D01*
X158928027Y-88962389D01*
X158911947Y-88911622D01*
X158899169Y-88869016D01*
X158889189Y-88832745D01*
X158881507Y-88800983D01*
X158875618Y-88771903D01*
X158871070Y-88744026D01*
X158867051Y-88716393D01*
X158929355Y-88769174D01*
X159060491Y-88875546D01*
X159189111Y-88970216D01*
X159315961Y-89053628D01*
X159441789Y-89126224D01*
X159567342Y-89188445D01*
X159693368Y-89240734D01*
X159774265Y-89269076D01*
X159805066Y-89278875D01*
X159831638Y-89286890D01*
X159851685Y-89292460D01*
X159862911Y-89294926D01*
X159864334Y-89294933D01*
X159862555Y-89289788D01*
X159854647Y-89277135D01*
X159842330Y-89259291D01*
X159827324Y-89238572D01*
X159811349Y-89217292D01*
X159796127Y-89197769D01*
X159783377Y-89182317D01*
X159774819Y-89173254D01*
X159772965Y-89171939D01*
X159768416Y-89164702D01*
X159768069Y-89161460D01*
X159764832Y-89152353D01*
X159762935Y-89150982D01*
X159756564Y-89144646D01*
X159744394Y-89129165D01*
X159727411Y-89105979D01*
X159706604Y-89076528D01*
X159682959Y-89042254D01*
X159657463Y-89004598D01*
X159631104Y-88964998D01*
X159604867Y-88924897D01*
X159579740Y-88885735D01*
X159563357Y-88859678D01*
X159529758Y-88803792D01*
X159494482Y-88741680D01*
X159458934Y-88676064D01*
X159424522Y-88609666D01*
X159392651Y-88545209D01*
X159364729Y-88485415D01*
X159342162Y-88433006D01*
X159339591Y-88426618D01*
X159304534Y-88329930D01*
X159273153Y-88226171D01*
X159246681Y-88120053D01*
X159226348Y-88016290D01*
X159218218Y-87961869D01*
X159217782Y-87957475D01*
X160906039Y-87957475D01*
X160906039Y-88931980D01*
X160906039Y-89906485D01*
X160987772Y-89906485D01*
X161069505Y-89906485D01*
X161069505Y-89947352D01*
X161069505Y-89988218D01*
X161151237Y-89988218D01*
X161232970Y-89988218D01*
X161232970Y-90029084D01*
X161232970Y-90069951D01*
X161314703Y-90069951D01*
X161396435Y-90069951D01*
X161396435Y-89582698D01*
X161396435Y-89095446D01*
X161437302Y-89095446D01*
X161478168Y-89095446D01*
X161478168Y-89177178D01*
X161478168Y-89258911D01*
X161519034Y-89258911D01*
X161559901Y-89258911D01*
X161559901Y-89341088D01*
X161559901Y-89423266D01*
X161599195Y-89421654D01*
X161638490Y-89420042D01*
X161640244Y-89502942D01*
X161641998Y-89585842D01*
X161679539Y-89585842D01*
X161717079Y-89585842D01*
X161717079Y-89664431D01*
X161717079Y-89743020D01*
X161757945Y-89743020D01*
X161798811Y-89743020D01*
X161798811Y-89824753D01*
X161798811Y-89906485D01*
X161842634Y-89906485D01*
X161886456Y-89906485D01*
X161888215Y-89826324D01*
X161889975Y-89746163D01*
X161929269Y-89744292D01*
X161968564Y-89742420D01*
X161968564Y-89664431D01*
X161968564Y-89586442D01*
X162007859Y-89584570D01*
X162047153Y-89582698D01*
X162048910Y-89502832D01*
X162050668Y-89422967D01*
X162089777Y-89421100D01*
X162128886Y-89419233D01*
X162130643Y-89339367D01*
X162132401Y-89259501D01*
X162171509Y-89257634D01*
X162210618Y-89255767D01*
X162212378Y-89175606D01*
X162214138Y-89095446D01*
X162251673Y-89095446D01*
X162289208Y-89095446D01*
X162289208Y-89500965D01*
X162289208Y-89906485D01*
X162370940Y-89906485D01*
X162452673Y-89906485D01*
X162452673Y-89947352D01*
X162452673Y-89988218D01*
X162534406Y-89988218D01*
X162616138Y-89988218D01*
X162616138Y-90029084D01*
X162616138Y-90069951D01*
X162697871Y-90069951D01*
X162779604Y-90069951D01*
X162779604Y-89013713D01*
X162779604Y-87957475D01*
X162534406Y-87957475D01*
X162289208Y-87957475D01*
X162289208Y-88036064D01*
X162289208Y-88114654D01*
X162248341Y-88114654D01*
X162207475Y-88114654D01*
X162207475Y-88196386D01*
X162207475Y-88278119D01*
X162166609Y-88278119D01*
X162125742Y-88278119D01*
X162125742Y-88359852D01*
X162125742Y-88441584D01*
X162084876Y-88441584D01*
X162044010Y-88441584D01*
X162044010Y-88523317D01*
X162044010Y-88605050D01*
X162003143Y-88605050D01*
X161962277Y-88605050D01*
X161962277Y-88683339D01*
X161962277Y-88761628D01*
X161922982Y-88763500D01*
X161883688Y-88765371D01*
X161881928Y-88845532D01*
X161880168Y-88925693D01*
X161842821Y-88925693D01*
X161805474Y-88925693D01*
X161803715Y-88845532D01*
X161801955Y-88765371D01*
X161764232Y-88764730D01*
X161726510Y-88764089D01*
X161724750Y-88684569D01*
X161722990Y-88605050D01*
X161682312Y-88605050D01*
X161641633Y-88605050D01*
X161641633Y-88523317D01*
X161641633Y-88441584D01*
X161600767Y-88441584D01*
X161559901Y-88441584D01*
X161559901Y-88359852D01*
X161559901Y-88278119D01*
X161519034Y-88278119D01*
X161478168Y-88278119D01*
X161478168Y-88196386D01*
X161478168Y-88114654D01*
X161437302Y-88114654D01*
X161396435Y-88114654D01*
X161396435Y-88036064D01*
X161396435Y-87957475D01*
X161151237Y-87957475D01*
X160906039Y-87957475D01*
X159217782Y-87957475D01*
X159214193Y-87921350D01*
X159211237Y-87871595D01*
X159209378Y-87815897D01*
X159208642Y-87757551D01*
X159209056Y-87699850D01*
X159210647Y-87646088D01*
X159213442Y-87599560D01*
X159215131Y-87581572D01*
X159233061Y-87462117D01*
X159260782Y-87340237D01*
X159297261Y-87219367D01*
X159341465Y-87102946D01*
X159390645Y-86997714D01*
X159412789Y-86955105D01*
X159430893Y-86921026D01*
X159446617Y-86892800D01*
X159461620Y-86867751D01*
X159477564Y-86843200D01*
X159496109Y-86816471D01*
X159518914Y-86784887D01*
X159542810Y-86752329D01*
X159615135Y-86658618D01*
X159689419Y-86571866D01*
X159768750Y-86488702D01*
X159856213Y-86405753D01*
X159878094Y-86386094D01*
X159905843Y-86361767D01*
X159936136Y-86335843D01*
X159967470Y-86309540D01*
X159998340Y-86284074D01*
X160027242Y-86260665D01*
X160052672Y-86240529D01*
X160073125Y-86224886D01*
X160087099Y-86214951D01*
X160093088Y-86211944D01*
X160093135Y-86211981D01*
X160091784Y-86218331D01*
X160086413Y-86233949D01*
X160077871Y-86256511D01*
X160067007Y-86283690D01*
X160066609Y-86284665D01*
X160041803Y-86348823D01*
X160016778Y-86420145D01*
X159992410Y-86495658D01*
X159969574Y-86572388D01*
X159949146Y-86647364D01*
X159932001Y-86717611D01*
X159919015Y-86780158D01*
X159916501Y-86794356D01*
X159911258Y-86833939D01*
X159907099Y-86882651D01*
X159904135Y-86937088D01*
X159902475Y-86993843D01*
X159902230Y-87049509D01*
X159903509Y-87100682D01*
X159905520Y-87133861D01*
X159915546Y-87213480D01*
X159932904Y-87289690D01*
X159958673Y-87366614D01*
X159979483Y-87416782D01*
X160027894Y-87511763D01*
X160086780Y-87601176D01*
X160156420Y-87685321D01*
X160237095Y-87764497D01*
X160329085Y-87839005D01*
X160432669Y-87909143D01*
X160447434Y-87918220D01*
X160488656Y-87943277D01*
X160452693Y-87869631D01*
X160424155Y-87805530D01*
X160396692Y-87733191D01*
X160371769Y-87656941D01*
X160350853Y-87581110D01*
X160341884Y-87542525D01*
X160335967Y-87513955D01*
X160331602Y-87489186D01*
X160328559Y-87465384D01*
X160326605Y-87439713D01*
X160325510Y-87409338D01*
X160325043Y-87371422D01*
X160324965Y-87335050D01*
X160325163Y-87288029D01*
X160325872Y-87250877D01*
X160327290Y-87220894D01*
X160329614Y-87195377D01*
X160333043Y-87171627D01*
X160337774Y-87146941D01*
X160339217Y-87140149D01*
X160363203Y-87046139D01*
X160394418Y-86954024D01*
X160433304Y-86863200D01*
X160480300Y-86773065D01*
X160535845Y-86683017D01*
X160600381Y-86592453D01*
X160674347Y-86500771D01*
X160758183Y-86407368D01*
X160852330Y-86311642D01*
X160957227Y-86212990D01*
X161073314Y-86110809D01*
X161119802Y-86071476D01*
X161147494Y-86048212D01*
X161171766Y-86027696D01*
X161190998Y-86011307D01*
X161203573Y-86000422D01*
X161207821Y-85996525D01*
X161214121Y-85991087D01*
X161227664Y-85980476D01*
X161245559Y-85966957D01*
X161246114Y-85966544D01*
X161265218Y-85952040D01*
X161281114Y-85939434D01*
X161290124Y-85931670D01*
X161297195Y-85925612D01*
X161312786Y-85912824D01*
X161335561Y-85894384D01*
X161364184Y-85871369D01*
X161397317Y-85844855D01*
X161433624Y-85815922D01*
X161440445Y-85810499D01*
X161504489Y-85758819D01*
X161559070Y-85713008D01*
X161605259Y-85672071D01*
X161644129Y-85635013D01*
X161676753Y-85600840D01*
X161704203Y-85568558D01*
X161711709Y-85558936D01*
X161740713Y-85517566D01*
X161768945Y-85471154D01*
X161794200Y-85423714D01*
X161814272Y-85379260D01*
X161822235Y-85357748D01*
X161828789Y-85336978D01*
X161833396Y-85318551D01*
X161836406Y-85299459D01*
X161838166Y-85276692D01*
X161839022Y-85247242D01*
X161839319Y-85210000D01*
X161838647Y-85160965D01*
X161835776Y-85119181D01*
X161829965Y-85081077D01*
X161820474Y-85043079D01*
X161806563Y-85001613D01*
X161787493Y-84953106D01*
X161784743Y-84946451D01*
X161767512Y-84905969D01*
X161750618Y-84868862D01*
X161732985Y-84833221D01*
X161713537Y-84797136D01*
X161691199Y-84758699D01*
X161664896Y-84715998D01*
X161633551Y-84667126D01*
X161596090Y-84610172D01*
X161591086Y-84602634D01*
X161568581Y-84568112D01*
X161550739Y-84539415D01*
X161538212Y-84517673D01*
X161531654Y-84504015D01*
X161531538Y-84499555D01*
X161543610Y-84501951D01*
G37*
D11*
%TO.C,Q1*%
X158300001Y-51790001D02*
X154700001Y-51790001D01*
X156500001Y-56240001D02*
G75*
G02*
X154661523Y-51801523I0J2600000D01*
G01*
X158338479Y-51801523D02*
G75*
G02*
X156500001Y-56240001I-1838478J-1838478D01*
G01*
%TO.C,C11*%
X116599332Y-79330810D02*
X116446829Y-79178307D01*
X117108449Y-78821693D02*
X116955946Y-78669190D01*
%TO.C,C2*%
X131240000Y-53140581D02*
X131240000Y-52859419D01*
X132260000Y-53140581D02*
X132260000Y-52859419D01*
%TO.C,Q6*%
X129939999Y-79062499D02*
X129940000Y-78412499D01*
X129939999Y-79062499D02*
X129940000Y-79712499D01*
X133060001Y-79062499D02*
X133060000Y-78412499D01*
X133060001Y-79062499D02*
X133060000Y-79712499D01*
X133339999Y-78139999D02*
X133010000Y-77899999D01*
X133340000Y-77659999D01*
X133339999Y-78139999D01*
G36*
X133339999Y-78139999D02*
G01*
X133010000Y-77899999D01*
X133340000Y-77659999D01*
X133339999Y-78139999D01*
G37*
%TO.C,U2*%
X125400000Y-55090000D02*
X129160000Y-55090000D01*
X125400000Y-61910000D02*
X129160000Y-61910000D01*
X129160000Y-55090000D02*
X129160000Y-56350000D01*
X129160000Y-61910000D02*
X129160000Y-60650000D01*
X124120000Y-55190000D02*
X123880000Y-54860000D01*
X124360000Y-54860000D01*
X124120000Y-55190000D01*
G36*
X124120000Y-55190000D02*
G01*
X123880000Y-54860000D01*
X124360000Y-54860000D01*
X124120000Y-55190000D01*
G37*
%TO.C,R9*%
X157087063Y-61535000D02*
X156632935Y-61535000D01*
X157087063Y-63005000D02*
X156632935Y-63005000D01*
%TO.C,R6*%
X168767266Y-64971928D02*
X169221394Y-64971928D01*
X168767266Y-66441928D02*
X169221394Y-66441928D01*
%TD*%
M02*
